{"glyphs":{"0":{"ha":799,"x_min":47,"x_max":752,"o":"m 394 -17 q 47 471 47 -17 q 141 856 47 724 q 413 989 235 989 q 752 493 752 989 q 660 115 752 246 q 394 -17 567 -17 m 404 825 q 264 476 264 825 q 401 147 264 147 q 534 486 534 147 q 404 825 534 825 z "},"1":{"ha":799,"x_min":144,"x_max":564,"o":"m 564 994 l 564 0 l 351 0 l 351 753 q 309 723 333 737 q 258 698 285 709 q 201 679 231 687 q 144 668 172 671 l 144 848 q 301 911 227 873 q 435 994 375 949 l 564 994 z "},"2":{"ha":799,"x_min":56,"x_max":705,"o":"m 291 178 l 703 178 l 703 0 l 56 0 l 56 73 q 81 207 56 148 q 144 314 106 267 q 228 397 182 361 q 313 463 273 433 q 388 521 356 493 q 443 576 420 549 q 475 632 465 604 q 486 692 486 660 q 451 786 486 754 q 343 818 416 818 q 103 718 218 818 l 103 907 q 389 989 230 989 q 522 969 463 989 q 621 914 581 950 q 683 827 662 878 q 705 713 705 776 q 684 593 705 646 q 629 498 663 541 q 550 420 595 456 q 457 351 505 385 q 394 306 425 328 q 341 261 364 283 q 304 218 318 239 q 291 178 291 197 z "},"3":{"ha":799,"x_min":79,"x_max":699,"o":"m 79 32 l 79 218 q 307 147 177 147 q 435 182 389 147 q 481 281 481 218 q 424 381 481 346 q 269 416 368 416 l 178 416 l 178 581 l 262 581 q 452 707 452 581 q 306 825 452 825 q 116 762 208 825 l 116 937 q 355 989 218 989 q 587 922 504 989 q 670 747 670 854 q 477 509 670 557 l 477 505 q 640 430 580 492 q 699 278 699 368 q 600 62 699 142 q 324 -17 500 -17 q 79 32 174 -17 z "},"4":{"ha":799,"x_min":26,"x_max":762,"o":"m 646 972 l 646 359 l 762 359 l 762 199 l 646 199 l 646 0 l 450 0 l 450 199 l 26 199 l 26 367 q 143 505 83 430 q 260 659 203 580 q 365 819 316 739 q 447 972 413 899 l 646 972 m 218 359 l 450 359 l 450 699 q 399 610 427 655 q 340 521 371 565 q 279 436 310 477 q 218 359 248 395 z "},"5":{"ha":799,"x_min":96,"x_max":707,"o":"m 96 25 l 96 208 q 309 147 196 147 q 441 188 393 147 q 489 297 489 228 q 285 441 489 441 q 111 430 210 441 l 148 972 l 663 972 l 663 798 l 311 798 l 298 603 q 388 607 350 607 q 623 528 538 607 q 707 317 707 450 q 606 76 707 170 q 332 -17 505 -17 q 96 25 192 -17 z "},"6":{"ha":799,"x_min":68,"x_max":753,"o":"m 753 323 q 728 189 753 252 q 658 81 703 127 q 551 9 613 35 q 416 -17 490 -17 q 270 14 334 -17 q 160 102 205 44 q 92 244 115 160 q 68 435 68 328 q 99 662 68 560 q 187 837 130 764 q 326 949 244 909 q 509 989 407 989 q 684 962 621 989 l 684 783 q 522 825 610 825 q 424 804 468 825 q 348 745 380 783 q 299 651 317 706 q 279 530 281 597 l 283 530 q 488 625 353 625 q 597 604 548 625 q 680 542 646 582 q 734 447 715 503 q 753 323 753 391 m 543 310 q 415 467 543 467 q 362 456 386 467 q 321 425 338 445 q 295 379 304 406 q 286 319 286 352 q 296 252 286 283 q 322 198 305 221 q 363 161 340 174 q 416 147 387 147 q 469 159 446 147 q 509 192 492 171 q 534 244 526 214 q 543 310 543 274 z "},"7":{"ha":799,"x_min":65,"x_max":742,"o":"m 742 849 q 625 629 677 732 q 534 426 574 526 q 467 223 495 326 q 422 0 439 119 l 198 0 q 248 218 217 113 q 320 422 279 323 q 411 614 361 521 q 517 798 461 708 l 65 798 l 65 972 l 742 972 l 742 849 z "},"8":{"ha":799,"x_min":54,"x_max":745,"o":"m 54 262 q 66 340 54 302 q 102 410 78 378 q 161 468 125 442 q 245 509 197 493 q 130 603 171 546 q 90 730 90 661 q 113 833 90 786 q 178 916 136 881 q 276 969 219 950 q 401 989 334 989 q 528 969 471 989 q 628 916 586 950 q 692 835 669 882 q 715 733 715 788 q 672 607 715 664 q 552 514 629 551 q 635 472 600 498 q 696 414 671 447 q 732 343 720 382 q 745 264 745 305 q 720 150 745 201 q 649 62 694 99 q 539 5 603 25 q 399 -16 476 -16 q 261 4 324 -16 q 152 61 197 24 q 80 149 106 98 q 54 262 54 200 m 257 280 q 267 220 257 247 q 296 176 277 194 q 341 148 315 157 q 400 138 368 138 q 457 148 431 138 q 503 176 484 158 q 532 221 522 195 q 543 280 543 248 q 533 336 543 309 q 504 381 523 362 q 459 412 485 401 q 400 424 433 424 q 343 413 370 424 q 298 384 317 403 q 268 338 279 364 q 257 280 257 311 m 287 711 q 296 662 287 685 q 321 623 305 640 q 358 597 336 606 q 403 587 379 587 q 448 597 427 587 q 485 623 469 606 q 510 663 501 640 q 519 711 519 685 q 511 760 519 737 q 486 799 502 783 q 449 825 470 816 q 403 835 427 835 q 356 825 377 835 q 319 799 334 815 q 295 759 304 782 q 287 711 287 736 z "},"9":{"ha":799,"x_min":53,"x_max":737,"o":"m 737 533 q 709 301 737 404 q 626 129 680 199 q 492 21 571 58 q 314 -17 414 -17 q 109 21 195 -17 l 109 197 q 293 147 185 147 q 466 222 404 147 q 529 440 528 298 l 525 441 q 329 346 460 346 q 219 368 269 346 q 131 430 168 391 q 74 525 94 470 q 53 646 53 580 q 78 785 53 722 q 148 894 103 848 q 256 964 193 939 q 396 989 319 989 q 538 958 475 989 q 646 869 602 927 q 714 726 690 810 q 737 533 737 641 m 521 647 q 511 717 521 684 q 485 774 502 750 q 444 811 468 798 q 390 825 419 825 q 339 813 362 825 q 298 780 315 801 q 272 728 281 758 q 262 664 262 699 q 272 596 262 626 q 299 547 281 567 q 340 516 316 526 q 395 505 365 505 q 446 516 423 505 q 486 547 469 528 q 512 591 503 566 q 521 647 521 617 z "}," ":{"ha":380,"x_min":0,"x_max":0,"o":""},"!":{"ha":454,"x_min":103,"x_max":351,"o":"m 339 972 l 313 302 l 139 302 l 114 972 l 339 972 m 228 -16 q 138 17 174 -16 q 103 97 103 50 q 139 177 103 146 q 228 208 174 208 q 317 177 282 208 q 351 97 351 145 q 317 16 351 48 q 228 -16 283 -16 z "},"\"":{"ha":685,"x_min":119,"x_max":566,"o":"m 566 985 l 545 684 l 408 684 l 387 985 l 566 985 m 297 985 l 277 685 l 139 685 l 119 985 l 297 985 z "},"#":{"ha":823,"x_min":25,"x_max":798,"o":"m 798 725 l 771 603 l 646 603 l 608 435 l 749 435 l 718 313 l 583 313 l 530 78 l 395 78 l 444 313 l 289 313 l 239 78 l 103 78 l 151 313 l 25 313 l 50 435 l 178 435 l 214 603 l 77 603 l 100 725 l 239 725 l 289 966 l 428 966 l 378 725 l 533 725 l 585 966 l 722 966 l 672 725 l 798 725 m 509 603 l 351 603 l 314 435 l 471 435 l 509 603 z "},"$":{"ha":799,"x_min":83,"x_max":734,"o":"m 457 5 l 457 -142 l 358 -142 l 358 1 q 102 64 220 2 l 102 252 q 219 193 141 220 q 358 161 297 165 l 358 408 q 141 536 199 467 q 83 704 83 605 q 159 885 83 810 q 358 972 234 960 l 358 1099 l 457 1099 l 457 975 q 671 929 600 968 l 671 746 q 457 817 576 804 l 457 559 q 670 437 606 506 q 734 271 734 368 q 663 89 734 158 q 457 5 591 20 m 358 599 l 358 814 q 264 715 264 797 q 358 599 264 646 m 457 370 l 457 164 q 554 261 554 179 q 457 370 554 328 z "},"%":{"ha":1204,"x_min":61,"x_max":1143,"o":"m 292 479 q 124 545 188 479 q 61 722 61 611 q 129 915 61 844 q 309 986 196 986 q 477 922 416 986 q 538 741 538 857 q 471 550 538 621 q 292 479 404 479 m 304 867 q 205 729 205 867 q 300 599 205 599 q 396 734 396 599 q 304 867 396 867 m 1002 972 l 368 0 l 203 0 l 835 972 l 1002 972 m 897 -14 q 730 52 793 -14 q 667 229 667 118 q 734 422 667 351 q 914 493 802 493 q 1083 429 1023 493 q 1143 249 1143 366 q 1076 58 1143 129 q 897 -14 1009 -14 m 908 374 q 810 236 810 374 q 905 106 810 106 q 1002 241 1002 106 q 976 339 1002 304 q 908 374 950 374 z "},"&":{"ha":1180,"x_min":51,"x_max":1158,"o":"m 1003 -16 q 935 -6 967 -16 q 874 20 903 3 q 819 58 845 36 q 770 105 793 80 q 710 63 745 85 q 630 24 675 41 q 532 -4 586 7 q 418 -16 479 -16 q 271 3 338 -16 q 155 60 203 22 q 78 153 106 98 q 51 282 51 209 q 72 385 51 340 q 125 464 92 430 q 201 522 159 498 q 286 563 243 547 q 244 601 265 579 q 205 647 222 622 q 178 703 189 673 q 168 766 168 732 q 189 861 168 819 q 250 930 211 902 q 343 974 289 959 q 463 989 397 989 q 577 973 525 989 q 666 930 629 958 q 724 863 703 902 q 744 777 744 824 q 699 647 744 702 q 572 557 654 591 q 634 523 604 542 q 692 479 664 504 q 748 424 721 455 q 802 353 775 393 q 881 502 857 423 q 905 667 905 581 q 902 716 905 692 q 892 760 899 740 l 1075 760 q 1086 718 1082 739 q 1089 670 1089 698 q 1075 542 1089 604 q 1036 422 1061 479 q 976 315 1011 366 q 897 220 940 264 q 966 166 930 185 q 1032 148 1001 148 q 1099 155 1065 148 q 1158 175 1133 162 l 1158 14 q 1084 -8 1120 -1 q 1003 -16 1048 -16 m 429 146 q 504 154 469 146 q 570 175 539 162 q 628 205 602 188 q 677 240 655 222 q 609 332 643 294 q 542 396 575 370 q 476 441 509 423 q 410 475 443 460 q 356 445 382 461 q 311 406 331 428 q 280 356 292 384 q 268 291 268 328 q 279 232 268 258 q 312 186 291 205 q 363 157 334 168 q 429 146 393 146 m 554 762 q 547 798 554 782 q 526 824 539 813 q 497 840 513 834 q 463 846 481 846 q 421 839 440 846 q 389 821 403 832 q 368 793 375 809 q 360 759 360 777 q 384 689 360 721 q 443 637 408 657 q 485 656 465 646 q 520 682 505 667 q 545 717 536 697 q 554 762 554 736 z "},"'":{"ha":407,"x_min":115,"x_max":292,"o":"m 292 985 l 271 685 l 135 685 l 115 985 l 292 985 z "},"(":{"ha":513,"x_min":107,"x_max":501,"o":"m 501 -221 l 326 -221 q 107 372 107 20 q 326 972 107 712 l 500 972 q 294 372 294 700 q 501 -221 294 45 z "},")":{"ha":513,"x_min":12,"x_max":407,"o":"m 186 -221 l 12 -221 q 220 372 220 43 q 12 972 220 699 l 187 972 q 407 372 407 711 q 186 -221 407 23 z "},"*":{"ha":632,"x_min":47,"x_max":586,"o":"m 586 714 l 400 689 l 533 546 l 410 461 l 317 633 l 224 461 l 100 546 l 233 689 l 47 714 l 96 851 l 267 778 l 237 972 l 396 972 l 367 778 l 536 851 l 586 714 z "},"+":{"ha":982,"x_min":161,"x_max":822,"o":"m 822 329 l 561 329 l 561 68 l 424 68 l 424 329 l 161 329 l 161 467 l 424 467 l 424 729 l 561 729 l 561 467 l 822 467 l 822 329 z "},",":{"ha":376,"x_min":26,"x_max":293,"o":"m 293 171 l 193 -172 l 26 -172 l 96 171 l 293 171 z "},"-":{"ha":562,"x_min":97,"x_max":468,"o":"m 468 296 l 97 296 l 97 446 l 468 446 l 468 296 z "},".":{"ha":376,"x_min":62,"x_max":314,"o":"m 186 -17 q 98 16 133 -17 q 62 96 62 48 q 99 176 62 144 q 189 207 135 207 q 279 175 244 207 q 314 96 314 144 q 278 15 314 46 q 186 -17 243 -17 z "},"/":{"ha":616,"x_min":-33,"x_max":632,"o":"m 632 972 l 158 -161 l -33 -161 l 439 972 l 632 972 z "},":":{"ha":376,"x_min":62,"x_max":314,"o":"m 186 479 q 98 512 133 479 q 62 591 62 544 q 99 671 62 640 q 189 703 135 703 q 279 671 244 703 q 314 591 314 640 q 278 511 314 542 q 186 479 243 479 m 186 -17 q 98 16 133 -17 q 62 96 62 48 q 99 176 62 144 q 189 207 135 207 q 279 175 244 207 q 314 96 314 144 q 278 15 314 46 q 186 -17 243 -17 z "},";":{"ha":376,"x_min":26,"x_max":317,"o":"m 191 479 q 102 512 137 479 q 66 591 66 545 q 102 672 66 641 q 192 703 138 703 q 282 671 247 703 q 317 591 317 640 q 282 511 317 542 q 191 479 248 479 m 293 171 l 193 -172 l 26 -172 l 96 171 l 293 171 z "},"<":{"ha":982,"x_min":175,"x_max":808,"o":"m 808 43 l 175 332 l 175 441 l 808 745 l 808 583 l 357 390 l 357 386 l 808 204 l 808 43 z "},"=":{"ha":982,"x_min":161,"x_max":822,"o":"m 822 475 l 161 475 l 161 614 l 822 614 l 822 475 m 822 180 l 161 180 l 161 318 l 822 318 l 822 180 z "},">":{"ha":982,"x_min":175,"x_max":808,"o":"m 808 340 l 175 52 l 175 212 l 628 393 l 628 396 l 175 590 l 175 751 l 808 450 l 808 340 z "},"?":{"ha":608,"x_min":42,"x_max":581,"o":"m 178 281 q 168 321 172 299 q 164 363 164 343 q 170 420 164 394 q 189 468 176 446 q 219 512 201 491 q 262 553 237 532 q 307 593 288 574 q 340 630 326 612 q 360 669 353 649 q 367 713 367 689 q 359 752 367 734 q 338 783 352 770 q 304 804 324 796 q 260 811 284 811 q 150 789 207 811 q 42 722 93 767 l 42 926 q 156 973 94 958 q 283 989 218 989 q 401 975 347 989 q 495 931 455 961 q 558 855 536 901 q 581 743 581 808 q 572 668 581 702 q 544 605 562 635 q 498 548 526 575 q 436 491 471 520 q 394 454 412 471 q 365 421 376 437 q 347 386 353 404 q 340 343 340 367 q 345 310 340 327 q 357 281 349 293 l 178 281 m 277 -16 q 187 17 223 -16 q 151 97 151 51 q 187 176 151 144 q 277 208 223 208 q 366 176 331 208 q 401 97 401 145 q 367 16 401 48 q 277 -16 332 -16 z "},"@":{"ha":1325,"x_min":92,"x_max":1236,"o":"m 761 252 l 757 252 q 585 122 709 122 q 434 190 491 122 q 376 378 376 258 q 456 630 376 533 q 647 728 535 728 q 774 648 748 728 l 777 648 l 783 715 l 936 715 q 905 338 905 427 q 957 243 905 243 q 1046 315 1011 243 q 1082 503 1082 387 q 981 763 1082 661 q 699 864 880 864 q 376 729 505 864 q 248 399 248 593 q 361 102 248 210 q 675 -7 475 -7 q 954 52 827 -7 l 954 -78 q 656 -127 838 -127 q 249 16 406 -127 q 92 401 92 159 q 259 817 92 648 q 690 985 427 985 q 1085 854 935 985 q 1236 510 1236 724 q 1144 228 1236 334 q 916 122 1052 122 q 806 158 848 122 q 761 252 764 194 m 671 610 q 571 540 610 610 q 533 379 533 471 q 559 278 533 314 q 627 241 585 241 q 727 310 690 241 q 764 493 764 378 q 738 578 764 547 q 671 610 713 610 z "},"A":{"ha":977,"x_min":7,"x_max":966,"o":"m 966 0 l 728 0 l 659 216 l 313 216 l 244 0 l 7 0 l 361 972 l 621 972 l 966 0 m 608 385 l 504 711 q 488 799 492 748 l 482 799 q 465 714 479 756 l 359 385 l 608 385 z "},"B":{"ha":890,"x_min":111,"x_max":842,"o":"m 111 0 l 111 972 l 465 972 q 715 913 628 972 q 803 745 803 853 q 750 607 803 666 q 614 525 696 548 l 614 522 q 780 446 718 509 q 842 290 842 382 q 746 78 842 157 q 485 0 650 0 l 111 0 m 330 811 l 330 581 l 427 581 q 533 613 494 581 q 572 704 572 646 q 412 811 572 811 l 330 811 m 330 418 l 330 161 l 449 161 q 568 197 525 161 q 611 293 611 232 q 569 385 611 351 q 450 418 526 418 l 330 418 z "},"C":{"ha":867,"x_min":50,"x_max":808,"o":"m 808 35 q 530 -17 702 -17 q 178 115 307 -17 q 50 465 50 246 q 194 844 50 699 q 568 989 338 989 q 808 953 711 989 l 808 742 q 586 800 711 800 q 365 714 449 800 q 281 481 281 628 q 360 256 281 340 q 574 172 439 172 q 808 235 702 172 l 808 35 z "},"D":{"ha":1024,"x_min":111,"x_max":974,"o":"m 111 0 l 111 972 l 456 972 q 974 498 974 972 q 832 136 974 271 q 456 0 691 0 l 111 0 m 330 794 l 330 178 l 439 178 q 662 263 581 178 q 743 496 743 349 q 663 714 743 635 q 437 794 583 794 l 330 794 z "},"E":{"ha":739,"x_min":111,"x_max":694,"o":"m 694 0 l 111 0 l 111 972 l 672 972 l 672 794 l 330 794 l 330 578 l 648 578 l 648 400 l 330 400 l 330 178 l 694 178 l 694 0 z "},"F":{"ha":722,"x_min":111,"x_max":673,"o":"m 673 794 l 330 794 l 330 555 l 646 555 l 646 378 l 330 378 l 330 0 l 111 0 l 111 972 l 673 972 l 673 794 z "},"G":{"ha":987,"x_min":50,"x_max":909,"o":"m 909 65 q 555 -17 767 -17 q 185 113 321 -17 q 50 471 50 243 q 198 844 50 700 q 591 989 346 989 q 864 946 746 989 l 864 741 q 589 806 751 806 q 367 717 452 806 q 281 481 281 629 q 358 249 281 331 q 566 167 435 167 q 690 189 644 167 l 690 379 l 496 379 l 496 554 l 909 554 l 909 65 z "},"H":{"ha":1064,"x_min":111,"x_max":953,"o":"m 953 0 l 733 0 l 733 396 l 330 396 l 330 0 l 111 0 l 111 972 l 330 972 l 330 585 l 733 585 l 733 972 l 953 972 l 953 0 z "},"I":{"ha":440,"x_min":111,"x_max":330,"o":"m 330 0 l 111 0 l 111 972 l 330 972 l 330 0 z "},"J":{"ha":618,"x_min":22,"x_max":517,"o":"m 517 386 q 426 87 517 191 q 164 -17 336 -17 q 22 9 87 -17 l 22 215 q 149 172 79 172 q 298 395 298 172 l 298 972 l 517 972 l 517 386 z "},"K":{"ha":901,"x_min":111,"x_max":920,"o":"m 920 0 l 643 0 l 359 422 q 334 476 351 435 l 330 476 l 330 0 l 111 0 l 111 972 l 330 972 l 330 513 l 334 513 q 361 567 342 532 l 629 972 l 890 972 l 551 509 l 920 0 z "},"L":{"ha":710,"x_min":111,"x_max":690,"o":"m 690 0 l 111 0 l 111 972 l 330 972 l 330 178 l 690 178 l 690 0 z "},"M":{"ha":1329,"x_min":111,"x_max":1219,"o":"m 1219 0 l 1003 0 l 1003 582 q 1011 790 1003 676 l 1006 790 q 975 661 989 701 l 747 0 l 568 0 l 336 654 q 306 790 327 681 l 300 790 q 309 538 309 646 l 309 0 l 111 0 l 111 972 l 432 972 l 631 396 q 665 257 654 327 l 669 257 q 708 397 688 338 l 907 972 l 1219 972 l 1219 0 z "},"N":{"ha":1097,"x_min":111,"x_max":986,"o":"m 986 0 l 765 0 l 364 611 q 315 692 329 665 l 313 692 q 318 534 318 640 l 318 0 l 111 0 l 111 972 l 347 972 l 733 380 q 782 301 760 340 l 785 301 q 779 435 779 335 l 779 972 l 986 972 l 986 0 z "},"O":{"ha":1053,"x_min":50,"x_max":1003,"o":"m 522 -17 q 182 119 313 -17 q 50 473 50 255 q 184 846 50 704 q 538 989 317 989 q 874 852 746 989 q 1003 493 1003 716 q 870 123 1003 264 q 522 -17 736 -17 m 532 800 q 349 714 416 800 q 281 485 281 627 q 349 256 281 340 q 526 172 416 172 q 706 254 640 172 q 772 481 772 336 q 708 716 772 632 q 532 800 644 800 z "},"P":{"ha":853,"x_min":111,"x_max":822,"o":"m 330 335 l 330 0 l 111 0 l 111 972 l 454 972 q 822 663 822 972 q 716 426 822 516 q 435 335 611 335 l 330 335 m 330 804 l 330 501 l 416 501 q 591 654 591 501 q 416 804 591 804 l 330 804 z "},"Q":{"ha":1053,"x_min":50,"x_max":1098,"o":"m 522 -17 q 182 119 313 -17 q 50 473 50 256 q 184 846 50 703 q 538 989 317 989 q 874 852 746 989 q 1003 493 1003 717 q 869 123 1003 264 q 861 114 865 119 q 852 106 857 110 l 1098 -131 l 791 -131 l 663 0 q 522 -17 599 -17 m 532 800 q 349 713 417 800 q 281 485 281 627 q 349 256 281 340 q 526 172 416 172 q 706 254 640 172 q 772 481 772 336 q 708 716 772 631 q 532 800 644 800 z "},"R":{"ha":907,"x_min":111,"x_max":927,"o":"m 927 0 l 675 0 l 524 250 q 492 301 507 279 q 460 339 476 323 q 427 364 444 355 q 389 372 410 372 l 330 372 l 330 0 l 111 0 l 111 972 l 458 972 q 812 708 812 972 q 797 614 812 657 q 753 536 781 571 q 684 477 724 502 q 594 437 644 452 l 594 435 q 636 413 616 428 q 675 377 656 397 q 712 333 694 357 q 743 288 729 310 l 927 0 m 330 808 l 330 538 l 425 538 q 538 578 496 538 q 582 681 582 620 q 429 808 582 808 l 330 808 z "},"S":{"ha":779,"x_min":62,"x_max":730,"o":"m 66 37 l 66 254 q 195 180 125 205 q 334 155 264 155 q 407 163 376 155 q 458 183 437 170 q 489 215 479 197 q 499 254 499 233 q 483 304 499 282 q 438 346 467 327 q 372 382 410 365 q 288 418 333 400 q 118 534 174 466 q 62 700 62 603 q 93 830 62 776 q 176 920 123 885 q 298 972 229 956 q 444 989 367 989 q 579 980 520 989 q 687 951 637 970 l 687 749 q 634 779 663 766 q 574 800 605 791 q 514 812 544 808 q 456 817 484 817 q 389 809 419 817 q 337 789 358 802 q 304 759 316 777 q 293 718 293 741 q 306 674 293 694 q 342 638 319 655 q 400 604 366 621 q 477 570 434 587 q 582 518 535 545 q 661 456 628 490 q 712 377 694 421 q 730 273 730 332 q 699 137 730 192 q 615 47 668 81 q 492 -2 562 13 q 344 -17 422 -17 q 192 -3 264 -17 q 66 37 119 10 z "},"T":{"ha":814,"x_min":21,"x_max":794,"o":"m 794 794 l 517 794 l 517 0 l 297 0 l 297 794 l 21 794 l 21 972 l 794 972 l 794 794 z "},"U":{"ha":1004,"x_min":100,"x_max":904,"o":"m 904 421 q 496 -17 904 -17 q 100 411 100 -17 l 100 972 l 319 972 l 319 408 q 504 172 319 172 q 685 400 685 172 l 685 972 l 904 972 l 904 421 z "},"V":{"ha":926,"x_min":7,"x_max":921,"o":"m 921 972 l 586 0 l 338 0 l 7 972 l 243 972 l 446 296 q 465 199 462 241 l 469 199 q 490 298 474 244 l 692 972 l 921 972 z "},"W":{"ha":1396,"x_min":12,"x_max":1383,"o":"m 1383 972 l 1126 0 l 884 0 l 722 624 q 707 733 709 673 l 704 733 q 686 624 698 667 l 521 0 l 268 0 l 12 972 l 252 972 l 389 325 q 401 214 397 283 l 406 214 q 425 328 408 266 l 602 972 l 836 972 l 996 319 q 1011 215 1004 283 l 1014 215 q 1028 323 1017 269 l 1162 972 l 1383 972 z "},"X":{"ha":910,"x_min":4,"x_max":905,"o":"m 905 0 l 646 0 l 478 317 q 458 382 469 334 l 456 382 q 433 314 451 359 l 265 0 l 4 0 l 314 486 l 31 972 l 297 972 l 436 681 q 465 599 452 646 l 468 599 q 498 684 476 627 l 653 972 l 897 972 l 606 490 l 905 0 z "},"Y":{"ha":843,"x_min":0,"x_max":844,"o":"m 844 972 l 528 346 l 528 0 l 309 0 l 309 342 l 0 972 l 250 972 l 407 610 q 429 530 411 600 l 432 530 q 453 607 441 579 l 612 972 l 844 972 z "},"Z":{"ha":843,"x_min":28,"x_max":811,"o":"m 811 0 l 28 0 l 28 126 l 526 794 l 64 794 l 64 972 l 810 972 l 810 850 l 322 178 l 811 178 l 811 0 z "},"[":{"ha":513,"x_min":147,"x_max":465,"o":"m 465 -221 l 147 -221 l 147 972 l 465 972 l 465 836 l 323 836 l 323 -85 l 465 -85 l 465 -221 z "},"\\":{"ha":606,"x_min":0,"x_max":652,"o":"m 652 -161 l 463 -161 l 0 972 l 191 972 l 652 -161 z "},"]":{"ha":513,"x_min":47,"x_max":367,"o":"m 367 -221 l 47 -221 l 47 -85 l 191 -85 l 191 836 l 47 836 l 47 972 l 367 972 l 367 -221 z "},"^":{"ha":982,"x_min":138,"x_max":847,"o":"m 847 414 l 682 414 l 488 811 l 485 811 l 301 414 l 138 414 l 429 989 l 539 989 l 847 414 z "},"_":{"ha":576,"x_min":0,"x_max":576,"o":"m 576 -201 l 0 -201 l 0 -121 l 576 -121 l 576 -201 z "},"`":{"ha":436,"x_min":37,"x_max":404,"o":"m 404 804 l 250 804 l 37 1023 l 228 1023 l 404 804 z "},"a":{"ha":747,"x_min":39,"x_max":668,"o":"m 668 0 l 465 0 l 465 100 l 463 100 q 256 -17 393 -17 q 97 40 155 -17 q 39 193 39 98 q 278 427 39 395 l 467 452 q 343 566 467 566 q 107 492 219 566 l 107 653 q 230 694 152 676 q 371 711 307 711 q 668 415 668 711 l 668 0 m 467 282 l 467 329 l 340 313 q 236 218 236 299 q 261 158 236 182 q 330 135 287 135 q 429 177 391 135 q 467 282 467 218 z "},"b":{"ha":861,"x_min":90,"x_max":812,"o":"m 307 81 l 304 81 l 304 0 l 90 0 l 90 1028 l 304 1028 l 304 590 l 307 590 q 533 711 387 711 q 740 619 667 711 q 812 367 812 527 q 728 88 812 193 q 501 -17 643 -17 q 307 81 373 -17 m 301 374 l 301 302 q 340 191 301 235 q 439 147 378 147 q 552 204 512 147 q 593 364 593 260 q 556 499 593 450 q 450 547 519 547 q 343 499 386 547 q 301 374 301 451 z "},"c":{"ha":667,"x_min":49,"x_max":616,"o":"m 616 25 q 407 -17 544 -17 q 148 80 247 -17 q 49 330 49 177 q 155 609 49 507 q 439 711 261 711 q 616 679 562 711 l 616 497 q 467 547 549 547 q 320 493 374 547 q 267 345 267 439 q 318 200 267 252 q 460 147 370 147 q 616 197 540 147 l 616 25 z "},"d":{"ha":860,"x_min":49,"x_max":770,"o":"m 770 0 l 555 0 l 555 96 l 553 96 q 338 -17 479 -17 q 128 75 208 -17 q 49 332 49 167 q 136 608 49 504 q 366 711 224 711 q 553 615 500 711 l 555 615 l 555 1028 l 770 1028 l 770 0 m 559 338 l 559 390 q 520 503 559 458 q 418 547 481 547 q 307 491 347 547 q 267 338 267 435 q 305 197 267 246 q 412 147 344 147 q 518 199 477 147 q 559 338 559 252 z "},"e":{"ha":751,"x_min":49,"x_max":714,"o":"m 714 286 l 261 286 q 452 135 272 135 q 653 189 566 135 l 653 35 q 403 -17 557 -17 q 142 76 235 -17 q 49 336 49 170 q 149 610 49 509 q 396 711 250 711 q 631 621 548 711 q 714 376 714 531 l 714 286 m 515 418 q 395 567 515 567 q 306 524 343 567 q 260 418 268 481 l 515 418 z "},"f":{"ha":532,"x_min":31,"x_max":543,"o":"m 543 864 q 464 880 502 880 q 361 768 361 880 l 361 694 l 519 694 l 519 536 l 361 536 l 361 0 l 147 0 l 147 536 l 31 536 l 31 694 l 147 694 l 147 781 q 224 972 147 899 q 435 1044 302 1044 q 543 1031 500 1044 l 543 864 z "},"g":{"ha":860,"x_min":49,"x_max":771,"o":"m 771 79 q 659 -220 771 -114 q 335 -326 547 -326 q 113 -286 195 -326 l 113 -106 q 329 -168 220 -168 q 497 -111 437 -168 q 557 45 557 -54 l 557 100 l 554 100 q 338 -17 481 -17 q 127 77 205 -17 q 49 328 49 170 q 136 608 49 504 q 364 711 222 711 q 554 614 491 711 l 557 614 l 557 694 l 771 694 l 771 79 m 559 334 l 559 389 q 520 501 559 454 q 419 547 481 547 q 307 492 348 547 q 267 335 267 436 q 305 198 267 248 q 411 147 344 147 q 518 198 477 147 q 559 334 559 250 z "},"h":{"ha":836,"x_min":90,"x_max":757,"o":"m 757 0 l 543 0 l 543 395 q 432 547 543 547 q 340 505 375 547 q 304 396 304 462 l 304 0 l 90 0 l 90 1028 l 304 1028 l 304 591 l 307 591 q 521 711 386 711 q 757 427 757 711 l 757 0 z "},"i":{"ha":395,"x_min":75,"x_max":322,"o":"m 199 804 q 110 837 144 804 q 75 916 75 869 q 110 994 75 964 q 199 1025 144 1025 q 288 994 254 1025 q 322 916 322 964 q 288 836 322 867 q 199 804 254 804 m 304 0 l 90 0 l 90 694 l 304 694 l 304 0 z "},"j":{"ha":395,"x_min":-90,"x_max":322,"o":"m 199 804 q 110 837 144 804 q 75 916 75 869 q 110 994 75 964 q 199 1025 144 1025 q 288 994 254 1025 q 322 916 322 964 q 288 836 322 867 q 199 804 254 804 m 304 12 q 229 -234 304 -142 q 12 -326 154 -326 q -90 -306 -35 -326 l -90 -138 q -11 -163 -45 -163 q 90 -4 90 -163 l 90 694 l 304 694 l 304 12 z "},"k":{"ha":777,"x_min":90,"x_max":786,"o":"m 786 0 l 529 0 l 307 345 l 304 345 l 304 0 l 90 0 l 90 1028 l 304 1028 l 304 374 l 307 374 l 514 694 l 768 694 l 519 368 l 786 0 z "},"l":{"ha":395,"x_min":90,"x_max":304,"o":"m 304 0 l 90 0 l 90 1028 l 304 1028 l 304 0 z "},"m":{"ha":1272,"x_min":90,"x_max":1193,"o":"m 1193 0 l 979 0 l 979 396 q 868 547 979 547 q 782 502 815 547 q 749 389 749 456 l 749 0 l 534 0 l 534 400 q 425 547 534 547 q 337 504 370 547 q 304 386 304 460 l 304 0 l 90 0 l 90 694 l 304 694 l 304 586 l 307 586 q 400 676 340 642 q 532 711 460 711 q 733 582 679 711 q 966 711 812 711 q 1193 432 1193 711 l 1193 0 z "},"n":{"ha":840,"x_min":90,"x_max":761,"o":"m 761 0 l 547 0 l 547 386 q 432 547 547 547 q 340 505 376 547 q 304 396 304 462 l 304 0 l 90 0 l 90 694 l 304 694 l 304 585 l 307 585 q 530 711 384 711 q 761 425 761 711 l 761 0 z "},"o":{"ha":849,"x_min":49,"x_max":800,"o":"m 421 -17 q 148 80 248 -17 q 49 345 49 178 q 152 614 49 517 q 431 711 255 711 q 702 614 604 711 q 800 357 800 517 q 699 83 800 184 q 421 -17 597 -17 m 427 547 q 309 495 351 547 q 267 347 267 443 q 428 147 267 147 q 582 353 582 147 q 427 547 582 547 z "},"p":{"ha":861,"x_min":90,"x_max":812,"o":"m 307 81 l 304 81 l 304 -319 l 90 -319 l 90 694 l 304 694 l 304 590 l 307 590 q 530 711 387 711 q 739 619 665 711 q 812 367 812 526 q 727 88 812 193 q 498 -17 641 -17 q 307 81 373 -17 m 301 366 l 301 310 q 339 193 301 238 q 439 147 377 147 q 552 204 512 147 q 593 364 593 260 q 450 547 593 547 q 343 497 385 547 q 301 366 301 448 z "},"q":{"ha":860,"x_min":49,"x_max":770,"o":"m 770 -319 l 555 -319 l 555 96 l 553 96 q 339 -17 480 -17 q 129 74 208 -17 q 49 330 49 165 q 136 608 49 504 q 364 711 224 711 q 553 614 492 711 l 555 614 l 555 694 l 770 694 l 770 -319 m 559 332 l 559 387 q 520 501 559 455 q 419 547 481 547 q 307 491 348 547 q 267 336 267 435 q 306 197 267 248 q 410 147 346 147 q 518 198 477 147 q 559 332 559 249 z "},"r":{"ha":553,"x_min":90,"x_max":543,"o":"m 543 501 q 453 522 505 522 q 344 471 383 522 q 304 332 304 420 l 304 0 l 90 0 l 90 694 l 304 694 l 304 566 l 307 566 q 490 707 358 707 q 543 699 524 707 l 543 501 z "},"s":{"ha":611,"x_min":45,"x_max":578,"o":"m 45 18 l 45 192 q 150 144 98 160 q 250 129 203 129 q 339 144 307 129 q 372 192 372 160 q 357 226 372 212 q 319 250 342 239 q 268 268 296 260 q 214 286 240 276 q 141 320 173 302 q 89 361 110 338 q 56 416 67 385 q 45 490 45 448 q 70 591 45 549 q 138 660 96 633 q 235 699 180 686 q 349 711 290 711 q 442 704 395 711 q 536 684 490 697 l 536 518 q 449 554 495 542 q 357 566 402 566 q 318 562 336 566 q 285 551 299 558 q 262 533 271 544 q 254 507 254 522 q 267 475 254 488 q 298 451 279 461 q 342 434 318 441 q 390 418 366 426 q 467 385 433 403 q 527 344 502 368 q 565 288 551 320 q 578 212 578 256 q 551 107 578 151 q 480 36 524 63 q 377 -4 435 8 q 257 -17 319 -17 q 45 18 142 -17 z "},"t":{"ha":541,"x_min":28,"x_max":510,"o":"m 510 8 q 367 -17 463 -17 q 140 218 140 -17 l 140 536 l 28 536 l 28 694 l 140 694 l 140 844 l 354 905 l 354 694 l 510 694 l 510 536 l 354 536 l 354 256 q 440 147 354 147 q 510 167 474 147 l 510 8 z "},"u":{"ha":840,"x_min":79,"x_max":750,"o":"m 750 0 l 536 0 l 536 106 l 533 106 q 321 -17 454 -17 q 79 275 79 -17 l 79 694 l 293 694 l 293 294 q 410 147 293 147 q 502 188 467 147 q 536 297 536 228 l 536 694 l 750 694 l 750 0 z "},"v":{"ha":753,"x_min":3,"x_max":751,"o":"m 751 694 l 493 0 l 249 0 l 3 694 l 232 694 l 353 267 q 376 143 373 194 l 379 143 q 404 262 384 191 l 528 694 l 751 694 z "},"w":{"ha":1107,"x_min":11,"x_max":1096,"o":"m 1096 694 l 896 0 l 671 0 l 568 407 q 557 496 558 448 l 553 496 q 539 410 548 443 l 429 0 l 207 0 l 11 694 l 229 694 l 325 241 q 335 164 332 210 l 339 164 q 351 244 342 212 l 471 694 l 675 694 l 782 241 q 791 163 786 224 l 796 163 q 807 241 800 202 l 897 694 l 1096 694 z "},"x":{"ha":767,"x_min":5,"x_max":761,"o":"m 761 694 l 532 358 l 760 0 l 513 0 l 412 187 q 383 250 400 210 l 380 250 q 353 189 370 222 l 252 0 l 5 0 l 240 346 l 20 694 l 268 694 l 367 500 q 395 435 387 461 l 397 435 q 427 501 408 467 l 528 694 l 761 694 z "},"y":{"ha":747,"x_min":-3,"x_max":751,"o":"m 751 694 l 469 -56 q 163 -326 368 -326 q 35 -309 85 -326 l 35 -138 q 127 -163 77 -163 q 243 -85 210 -163 l 279 1 l -3 694 l 235 694 l 364 272 q 383 179 376 233 l 386 179 q 408 271 392 218 l 539 694 l 751 694 z "},"z":{"ha":665,"x_min":17,"x_max":640,"o":"m 640 0 l 17 0 l 17 89 l 366 536 l 52 536 l 52 694 l 637 694 l 637 589 l 307 158 l 640 158 l 640 0 z "},"{":{"ha":513,"x_min":72,"x_max":457,"o":"m 457 -221 q 242 -167 309 -221 q 175 26 175 -113 l 175 189 q 72 314 175 314 l 72 439 q 175 568 175 439 l 175 720 q 241 916 175 859 q 457 972 308 972 l 457 846 q 349 728 349 846 l 349 583 q 244 378 349 420 l 244 375 q 349 167 349 333 l 349 28 q 374 -66 349 -39 q 457 -94 399 -94 l 457 -221 z "},"|":{"ha":453,"x_min":142,"x_max":313,"o":"m 313 -326 l 142 -326 l 142 1063 l 313 1063 l 313 -326 z "},"}":{"ha":513,"x_min":57,"x_max":441,"o":"m 441 314 q 338 187 338 314 l 338 31 q 272 -167 338 -113 q 57 -221 205 -221 l 57 -94 q 140 -67 114 -94 q 165 26 165 -39 l 165 171 q 269 374 165 333 l 269 376 q 165 589 165 419 l 165 728 q 57 846 165 846 l 57 972 q 271 916 205 972 q 338 722 338 859 l 338 567 q 441 439 338 439 l 441 314 z "},"~":{"ha":982,"x_min":132,"x_max":851,"o":"m 851 524 q 790 343 847 410 q 639 277 734 277 q 464 336 567 277 q 358 379 390 379 q 271 271 275 379 l 132 271 q 193 452 136 385 q 347 518 250 518 q 509 467 423 518 q 631 414 597 414 q 689 444 666 414 q 713 524 711 474 l 851 524 z "},"Ä":{"ha":977,"x_min":7,"x_max":966,"o":"m 966 0 l 728 0 l 659 216 l 313 216 l 244 0 l 7 0 l 361 972 l 621 972 l 966 0 m 608 385 l 504 711 q 488 799 492 748 l 482 799 q 465 714 479 756 l 359 385 l 608 385 m 641 1063 q 566 1089 595 1063 q 537 1156 537 1116 q 566 1223 537 1197 q 641 1249 595 1249 q 716 1222 686 1249 q 745 1156 745 1196 q 716 1089 745 1115 q 641 1063 687 1063 m 330 1063 q 255 1089 284 1063 q 226 1156 226 1116 q 256 1222 226 1196 q 330 1249 286 1249 q 405 1222 376 1249 q 434 1156 434 1196 q 405 1088 434 1114 q 330 1063 376 1063 z "},"Å":{"ha":977,"x_min":7,"x_max":966,"o":"m 966 0 l 728 0 l 659 216 l 313 216 l 244 0 l 7 0 l 354 954 q 318 1047 318 991 q 368 1162 318 1119 q 490 1204 418 1204 q 615 1161 568 1204 q 663 1050 663 1118 q 627 957 663 996 l 966 0 m 488 1116 q 437 1096 456 1116 q 418 1048 418 1077 q 488 982 418 982 q 540 1001 520 982 q 559 1048 559 1021 q 539 1097 559 1078 q 488 1116 519 1116 m 606 396 l 503 711 q 488 793 494 739 l 482 793 q 467 714 477 747 l 363 396 l 606 396 z "},"Ç":{"ha":867,"x_min":50,"x_max":808,"o":"m 808 35 q 530 -17 702 -17 q 178 115 307 -17 q 50 465 50 246 q 194 844 50 699 q 568 989 338 989 q 808 953 711 989 l 808 742 q 586 800 711 800 q 365 714 449 800 q 281 481 281 628 q 360 256 281 340 q 574 172 439 172 q 808 235 702 172 l 808 35 m 414 -306 l 414 -212 q 463 -216 437 -216 q 546 -167 546 -216 q 471 -122 546 -122 q 446 -123 462 -122 l 446 0 l 562 0 l 562 -56 q 689 -168 689 -61 q 473 -309 689 -309 q 414 -306 442 -309 z "},"É":{"ha":739,"x_min":111,"x_max":694,"o":"m 694 0 l 111 0 l 111 972 l 672 972 l 672 794 l 330 794 l 330 578 l 648 578 l 648 400 l 330 400 l 330 178 l 694 178 l 694 0 m 633 1282 l 421 1063 l 267 1063 l 443 1282 l 633 1282 z "},"Ñ":{"ha":1097,"x_min":111,"x_max":986,"o":"m 986 0 l 765 0 l 364 611 q 315 692 329 665 l 313 692 q 318 534 318 640 l 318 0 l 111 0 l 111 972 l 347 972 l 733 380 q 782 301 760 340 l 785 301 q 779 435 779 335 l 779 972 l 986 972 l 986 0 m 818 1274 q 780 1127 818 1179 q 677 1075 743 1075 q 564 1104 619 1075 q 480 1136 503 1136 q 426 1063 426 1136 l 330 1063 q 368 1209 330 1157 q 472 1261 405 1261 q 586 1228 527 1261 q 667 1198 640 1198 q 720 1274 720 1198 l 818 1274 z "},"Ö":{"ha":1053,"x_min":50,"x_max":1003,"o":"m 522 -17 q 182 119 313 -17 q 50 473 50 255 q 184 846 50 704 q 538 989 317 989 q 874 852 746 989 q 1003 493 1003 716 q 870 123 1003 264 q 522 -17 736 -17 m 532 800 q 349 714 416 800 q 281 485 281 627 q 349 256 281 340 q 526 172 416 172 q 706 254 640 172 q 772 481 772 336 q 708 716 772 632 q 532 800 644 800 m 681 1063 q 606 1089 635 1063 q 577 1156 577 1116 q 606 1223 577 1197 q 681 1249 635 1249 q 756 1222 726 1249 q 785 1156 785 1196 q 756 1089 785 1115 q 681 1063 727 1063 m 370 1063 q 295 1089 324 1063 q 266 1156 266 1116 q 296 1222 266 1196 q 370 1249 326 1249 q 445 1222 416 1249 q 474 1156 474 1196 q 445 1088 474 1114 q 370 1063 416 1063 z "},"Ü":{"ha":1004,"x_min":100,"x_max":904,"o":"m 904 421 q 496 -17 904 -17 q 100 411 100 -17 l 100 972 l 319 972 l 319 408 q 504 172 319 172 q 685 400 685 172 l 685 972 l 904 972 l 904 421 m 657 1063 q 583 1089 612 1063 q 553 1156 553 1116 q 583 1223 553 1197 q 657 1249 612 1249 q 732 1222 703 1249 q 762 1156 762 1196 q 732 1089 762 1115 q 657 1063 703 1063 m 347 1063 q 271 1089 300 1063 q 242 1156 242 1116 q 272 1222 242 1196 q 347 1249 302 1249 q 421 1222 393 1249 q 450 1156 450 1196 q 421 1088 450 1114 q 347 1063 393 1063 z "},"á":{"ha":747,"x_min":39,"x_max":668,"o":"m 668 0 l 465 0 l 465 100 l 463 100 q 256 -17 393 -17 q 97 40 155 -17 q 39 193 39 98 q 278 427 39 395 l 467 452 q 343 566 467 566 q 107 492 219 566 l 107 653 q 230 694 152 676 q 371 711 307 711 q 668 415 668 711 l 668 0 m 467 282 l 467 329 l 340 313 q 236 218 236 299 q 261 158 236 182 q 330 135 287 135 q 429 177 391 135 q 467 282 467 218 m 604 1023 l 392 804 l 237 804 l 414 1023 l 604 1023 z "},"à":{"ha":747,"x_min":39,"x_max":668,"o":"m 668 0 l 465 0 l 465 100 l 463 100 q 256 -17 393 -17 q 97 40 155 -17 q 39 193 39 98 q 278 427 39 395 l 467 452 q 343 566 467 566 q 107 492 219 566 l 107 653 q 230 694 152 676 q 371 711 307 711 q 668 415 668 711 l 668 0 m 467 282 l 467 329 l 340 313 q 236 218 236 299 q 261 158 236 182 q 330 135 287 135 q 429 177 391 135 q 467 282 467 218 m 526 804 l 372 804 l 159 1023 l 349 1023 l 526 804 z "},"â":{"ha":747,"x_min":39,"x_max":668,"o":"m 668 0 l 465 0 l 465 100 l 463 100 q 256 -17 393 -17 q 97 40 155 -17 q 39 193 39 98 q 278 427 39 395 l 467 452 q 343 566 467 566 q 107 492 219 566 l 107 653 q 230 694 152 676 q 371 711 307 711 q 668 415 668 711 l 668 0 m 467 282 l 467 329 l 340 313 q 236 218 236 299 q 261 158 236 182 q 330 135 287 135 q 429 177 391 135 q 467 282 467 218 m 620 804 l 479 804 l 372 932 l 273 804 l 132 804 l 292 1025 l 460 1025 l 620 804 z "},"ä":{"ha":747,"x_min":39,"x_max":668,"o":"m 668 0 l 465 0 l 465 100 l 463 100 q 256 -17 393 -17 q 97 40 155 -17 q 39 193 39 98 q 278 427 39 395 l 467 452 q 343 566 467 566 q 107 492 219 566 l 107 653 q 230 694 152 676 q 371 711 307 711 q 668 415 668 711 l 668 0 m 467 282 l 467 329 l 340 313 q 236 218 236 299 q 261 158 236 182 q 330 135 287 135 q 429 177 391 135 q 467 282 467 218 m 534 804 q 459 831 488 804 q 430 897 430 857 q 459 964 430 939 q 534 990 488 990 q 609 964 579 990 q 638 897 638 938 q 609 830 638 857 q 534 804 580 804 m 223 804 q 148 831 177 804 q 119 897 119 858 q 149 964 119 938 q 223 990 178 990 q 298 964 269 990 q 327 897 327 938 q 298 830 327 856 q 223 804 269 804 z "},"ã":{"ha":747,"x_min":39,"x_max":668,"o":"m 668 0 l 465 0 l 465 100 l 463 100 q 256 -17 393 -17 q 97 40 155 -17 q 39 193 39 98 q 278 427 39 395 l 467 452 q 343 566 467 566 q 107 492 219 566 l 107 653 q 230 694 152 676 q 371 711 307 711 q 668 415 668 711 l 668 0 m 467 282 l 467 329 l 340 313 q 236 218 236 299 q 261 158 236 182 q 330 135 287 135 q 429 177 391 135 q 467 282 467 218 m 615 1015 q 577 868 615 920 q 475 817 540 817 q 361 846 416 817 q 277 878 300 878 q 223 804 223 878 l 127 804 q 165 951 127 899 q 269 1003 202 1003 q 383 970 324 1003 q 465 940 437 940 q 517 1015 517 940 l 615 1015 z "},"å":{"ha":747,"x_min":39,"x_max":668,"o":"m 668 0 l 465 0 l 465 100 l 463 100 q 256 -17 393 -17 q 97 40 155 -17 q 39 193 39 98 q 278 427 39 395 l 467 452 q 343 566 467 566 q 107 492 219 566 l 107 653 q 230 694 152 676 q 371 711 307 711 q 668 415 668 711 l 668 0 m 467 282 l 467 329 l 340 313 q 236 218 236 299 q 261 158 236 182 q 330 135 287 135 q 429 177 391 135 q 467 282 467 218 m 389 804 q 274 845 319 804 q 229 950 229 885 q 276 1059 229 1019 q 392 1100 323 1100 q 509 1060 465 1100 q 554 954 554 1019 q 506 846 554 888 q 389 804 457 804 m 389 1017 q 323 953 323 1017 q 389 889 323 889 q 439 908 419 889 q 458 953 458 926 q 439 999 458 981 q 389 1017 420 1017 z "},"ç":{"ha":667,"x_min":49,"x_max":616,"o":"m 616 25 q 407 -17 544 -17 q 148 80 247 -17 q 49 330 49 177 q 155 609 49 507 q 439 711 261 711 q 616 679 562 711 l 616 497 q 467 547 549 547 q 320 493 374 547 q 267 345 267 439 q 318 200 267 252 q 460 147 370 147 q 616 197 540 147 l 616 25 m 289 -306 l 289 -212 q 338 -216 313 -216 q 421 -167 421 -216 q 346 -122 421 -122 q 321 -123 337 -122 l 321 0 l 437 0 l 437 -56 q 564 -168 564 -61 q 349 -309 564 -309 q 289 -306 317 -309 z "},"é":{"ha":751,"x_min":49,"x_max":714,"o":"m 714 286 l 261 286 q 452 135 272 135 q 653 189 566 135 l 653 35 q 403 -17 557 -17 q 142 76 235 -17 q 49 336 49 170 q 149 610 49 509 q 396 711 250 711 q 631 621 548 711 q 714 376 714 531 l 714 286 m 515 418 q 395 567 515 567 q 306 524 343 567 q 260 418 268 481 l 515 418 m 625 1023 l 412 804 l 258 804 l 434 1023 l 625 1023 z "},"è":{"ha":751,"x_min":49,"x_max":714,"o":"m 714 286 l 261 286 q 452 135 272 135 q 653 189 566 135 l 653 35 q 403 -17 557 -17 q 142 76 235 -17 q 49 336 49 170 q 149 610 49 509 q 396 711 250 711 q 631 621 548 711 q 714 376 714 531 l 714 286 m 515 418 q 395 567 515 567 q 306 524 343 567 q 260 418 268 481 l 515 418 m 539 804 l 385 804 l 172 1023 l 363 1023 l 539 804 z "},"ê":{"ha":751,"x_min":49,"x_max":714,"o":"m 714 286 l 261 286 q 452 135 272 135 q 653 189 566 135 l 653 35 q 403 -17 557 -17 q 142 76 235 -17 q 49 336 49 170 q 149 610 49 509 q 396 711 250 711 q 631 621 548 711 q 714 376 714 531 l 714 286 m 515 418 q 395 567 515 567 q 306 524 343 567 q 260 418 268 481 l 515 418 m 644 804 l 503 804 l 396 932 l 296 804 l 156 804 l 315 1025 l 484 1025 l 644 804 z "},"ë":{"ha":751,"x_min":49,"x_max":714,"o":"m 714 286 l 261 286 q 452 135 272 135 q 653 189 566 135 l 653 35 q 403 -17 557 -17 q 142 76 235 -17 q 49 336 49 170 q 149 610 49 509 q 396 711 250 711 q 631 621 548 711 q 714 376 714 531 l 714 286 m 515 418 q 395 567 515 567 q 306 524 343 567 q 260 418 268 481 l 515 418 m 548 804 q 473 831 503 804 q 444 897 444 857 q 473 964 444 939 q 548 990 503 990 q 623 964 593 990 q 652 897 652 938 q 623 830 652 857 q 548 804 594 804 m 237 804 q 162 831 191 804 q 133 897 133 858 q 163 964 133 938 q 237 990 193 990 q 312 964 283 990 q 341 897 341 938 q 312 830 341 856 q 237 804 283 804 z "},"í":{"ha":446,"x_min":48,"x_max":415,"o":"m 304 0 l 90 0 l 90 694 l 304 694 l 304 0 m 415 1023 l 203 804 l 48 804 l 224 1023 l 415 1023 z "},"ì":{"ha":395,"x_min":-18,"x_max":349,"o":"m 304 0 l 90 0 l 90 694 l 304 694 l 304 0 m 349 804 l 195 804 l -18 1023 l 172 1023 l 349 804 z "},"î":{"ha":395,"x_min":-42,"x_max":446,"o":"m 304 0 l 90 0 l 90 694 l 304 694 l 304 0 m 446 804 l 305 804 l 198 932 l 98 804 l -42 804 l 117 1025 l 286 1025 l 446 804 z "},"ï":{"ha":395,"x_min":-58,"x_max":461,"o":"m 304 0 l 90 0 l 90 694 l 304 694 l 304 0 m 357 804 q 282 831 311 804 q 253 897 253 857 q 282 964 253 939 q 357 990 311 990 q 432 964 402 990 q 461 897 461 938 q 432 830 461 857 q 357 804 403 804 m 46 804 q -29 831 0 804 q -58 897 -58 858 q -28 964 -58 938 q 46 990 1 990 q 121 964 92 990 q 150 897 150 938 q 121 830 150 856 q 46 804 92 804 z "},"ñ":{"ha":840,"x_min":90,"x_max":761,"o":"m 761 0 l 547 0 l 547 386 q 432 547 547 547 q 340 505 376 547 q 304 396 304 462 l 304 0 l 90 0 l 90 694 l 304 694 l 304 585 l 307 585 q 530 711 384 711 q 761 425 761 711 l 761 0 m 666 1015 q 628 868 666 920 q 526 817 591 817 q 412 846 467 817 q 328 878 351 878 q 274 804 274 878 l 178 804 q 216 951 178 899 q 320 1003 253 1003 q 434 970 375 1003 q 515 940 488 940 q 568 1015 568 940 l 666 1015 z "},"ó":{"ha":849,"x_min":49,"x_max":800,"o":"m 421 -17 q 148 80 248 -17 q 49 345 49 178 q 152 614 49 517 q 431 711 255 711 q 702 614 604 711 q 800 357 800 517 q 699 83 800 184 q 421 -17 597 -17 m 427 547 q 309 495 351 547 q 267 347 267 443 q 428 147 267 147 q 582 353 582 147 q 427 547 582 547 m 656 1023 l 444 804 l 290 804 l 466 1023 l 656 1023 z "},"ò":{"ha":849,"x_min":49,"x_max":800,"o":"m 421 -17 q 148 80 248 -17 q 49 345 49 178 q 152 614 49 517 q 431 711 255 711 q 702 614 604 711 q 800 357 800 517 q 699 83 800 184 q 421 -17 597 -17 m 427 547 q 309 495 351 547 q 267 347 267 443 q 428 147 267 147 q 582 353 582 147 q 427 547 582 547 m 578 804 l 424 804 l 211 1023 l 401 1023 l 578 804 z "},"ô":{"ha":849,"x_min":49,"x_max":800,"o":"m 421 -17 q 148 80 248 -17 q 49 345 49 178 q 152 614 49 517 q 431 711 255 711 q 702 614 604 711 q 800 357 800 517 q 699 83 800 184 q 421 -17 597 -17 m 427 547 q 309 495 351 547 q 267 347 267 443 q 428 147 267 147 q 582 353 582 147 q 427 547 582 547 m 670 804 l 530 804 l 422 932 l 323 804 l 182 804 l 342 1025 l 510 1025 l 670 804 z "},"ö":{"ha":849,"x_min":49,"x_max":800,"o":"m 421 -17 q 148 80 248 -17 q 49 345 49 178 q 152 614 49 517 q 431 711 255 711 q 702 614 604 711 q 800 357 800 517 q 699 83 800 184 q 421 -17 597 -17 m 427 547 q 309 495 351 547 q 267 347 267 443 q 428 147 267 147 q 582 353 582 147 q 427 547 582 547 m 583 804 q 508 831 537 804 q 479 897 479 857 q 508 964 479 939 q 583 990 537 990 q 657 964 628 990 q 687 897 687 938 q 658 830 687 857 q 583 804 629 804 m 272 804 q 197 831 226 804 q 168 897 168 858 q 197 964 168 938 q 272 990 227 990 q 347 964 318 990 q 376 897 376 938 q 347 830 376 856 q 272 804 318 804 z "},"õ":{"ha":849,"x_min":49,"x_max":800,"o":"m 421 -17 q 148 80 248 -17 q 49 345 49 178 q 152 614 49 517 q 431 711 255 711 q 702 614 604 711 q 800 357 800 517 q 699 83 800 184 q 421 -17 597 -17 m 427 547 q 309 495 351 547 q 267 347 267 443 q 428 147 267 147 q 582 353 582 147 q 427 547 582 547 m 668 1015 q 630 868 668 920 q 528 817 593 817 q 414 846 469 817 q 330 878 353 878 q 276 804 276 878 l 180 804 q 218 951 180 899 q 322 1003 255 1003 q 436 970 377 1003 q 517 940 490 940 q 570 1015 570 940 l 668 1015 z "},"ú":{"ha":840,"x_min":79,"x_max":750,"o":"m 750 0 l 536 0 l 536 106 l 533 106 q 321 -17 454 -17 q 79 275 79 -17 l 79 694 l 293 694 l 293 294 q 410 147 293 147 q 502 188 467 147 q 536 297 536 228 l 536 694 l 750 694 l 750 0 m 663 1023 l 450 804 l 296 804 l 472 1023 l 663 1023 z "},"ù":{"ha":840,"x_min":79,"x_max":750,"o":"m 750 0 l 536 0 l 536 106 l 533 106 q 321 -17 454 -17 q 79 275 79 -17 l 79 694 l 293 694 l 293 294 q 410 147 293 147 q 502 188 467 147 q 536 297 536 228 l 536 694 l 750 694 l 750 0 m 532 804 l 378 804 l 165 1023 l 355 1023 l 532 804 z "},"û":{"ha":840,"x_min":79,"x_max":750,"o":"m 750 0 l 536 0 l 536 106 l 533 106 q 321 -17 454 -17 q 79 275 79 -17 l 79 694 l 293 694 l 293 294 q 410 147 293 147 q 502 188 467 147 q 536 297 536 228 l 536 694 l 750 694 l 750 0 m 658 804 l 517 804 l 410 932 l 311 804 l 170 804 l 330 1025 l 498 1025 l 658 804 z "},"ü":{"ha":840,"x_min":79,"x_max":750,"o":"m 750 0 l 536 0 l 536 106 l 533 106 q 321 -17 454 -17 q 79 275 79 -17 l 79 694 l 293 694 l 293 294 q 410 147 293 147 q 502 188 467 147 q 536 297 536 228 l 536 694 l 750 694 l 750 0 m 572 804 q 498 831 527 804 q 469 897 469 857 q 498 964 469 939 q 572 990 527 990 q 647 964 618 990 q 677 897 677 938 q 648 830 677 857 q 572 804 618 804 m 262 804 q 186 831 216 804 q 157 897 157 858 q 187 964 157 938 q 262 990 217 990 q 337 964 308 990 q 366 897 366 938 q 337 830 366 856 q 262 804 308 804 z "},"†":{"ha":564,"x_min":22,"x_max":541,"o":"m 541 589 l 356 609 l 326 137 l 238 137 l 208 609 l 22 589 l 22 742 l 221 722 l 201 972 l 363 972 l 342 722 l 541 742 l 541 589 z "},"°":{"ha":528,"x_min":78,"x_max":464,"o":"m 271 607 q 134 663 190 607 q 78 799 78 719 q 134 934 78 879 q 271 989 190 989 q 407 934 351 989 q 464 799 464 879 q 407 663 464 719 q 271 607 351 607 m 271 886 q 209 861 234 886 q 183 799 183 836 q 209 736 183 762 q 271 710 234 710 q 332 736 307 710 q 358 799 358 762 q 333 861 358 836 q 271 886 307 886 z "},"¢":{"ha":799,"x_min":115,"x_max":681,"o":"m 681 140 q 558 103 631 112 l 558 -25 l 449 -25 l 449 100 q 209 202 302 108 q 115 446 115 297 q 206 704 115 604 q 449 821 297 804 l 449 964 l 558 964 l 558 823 q 681 793 633 819 l 681 608 q 558 656 629 648 l 558 267 q 681 313 631 278 l 681 140 m 449 271 l 449 650 q 317 460 317 610 q 449 271 317 309 z "},"£":{"ha":799,"x_min":97,"x_max":755,"o":"m 755 0 l 97 0 l 97 154 q 228 336 228 189 l 228 415 l 111 415 l 111 562 l 228 562 l 228 689 q 311 906 228 823 q 534 989 393 989 q 693 956 621 989 l 693 781 q 551 825 627 825 q 427 669 427 825 l 427 562 l 608 562 l 608 415 l 427 415 l 427 357 q 323 164 427 232 l 755 164 l 755 0 z "},"§":{"ha":674,"x_min":89,"x_max":611,"o":"m 510 294 q 566 176 566 243 q 492 15 566 75 q 298 -45 418 -45 q 102 1 188 -45 l 102 170 q 313 98 224 98 q 399 165 399 98 q 334 239 399 207 q 191 315 238 283 q 117 394 144 347 q 89 496 89 441 q 174 654 89 593 q 114 800 114 714 q 183 953 114 895 q 370 1011 253 1011 q 546 974 464 1011 l 546 804 q 370 869 452 869 q 286 806 286 869 q 314 753 286 775 q 439 688 341 731 q 611 478 611 612 q 510 294 611 365 m 293 586 q 249 511 249 560 q 283 442 249 473 q 404 375 318 412 q 449 458 449 405 q 413 527 449 500 q 293 586 376 553 z "},"•":{"ha":587,"x_min":109,"x_max":482,"o":"m 294 191 q 163 245 218 191 q 109 378 109 300 q 163 509 109 455 q 294 564 217 564 q 427 509 372 564 q 482 378 482 454 q 427 246 482 301 q 294 191 372 191 z "},"¶":{"ha":707,"x_min":62,"x_max":642,"o":"m 642 863 l 562 863 l 562 0 l 444 0 l 444 863 l 364 863 l 364 0 l 244 0 l 244 567 q 114 629 166 572 q 62 772 62 687 q 120 916 62 860 q 264 972 178 972 l 642 972 l 642 863 z "},"ß":{"ha":872,"x_min":90,"x_max":832,"o":"m 370 5 l 370 183 q 489 147 426 147 q 579 183 545 147 q 612 281 612 218 q 552 405 612 359 q 382 454 492 451 l 382 604 q 499 650 457 610 q 541 758 541 691 q 510 848 541 815 q 429 880 480 880 q 304 714 304 880 l 304 0 l 90 0 l 90 711 q 183 954 90 863 q 441 1044 276 1044 q 674 970 589 1044 q 760 779 760 896 q 711 634 760 696 q 586 549 663 572 l 586 546 q 832 275 832 499 q 746 68 832 153 q 514 -17 661 -17 q 370 5 443 -17 z "},"­":{"ha":562,"x_min":97,"x_max":468,"o":"m 468 296 l 97 296 l 97 446 l 468 446 l 468 296 z "},"®":{"ha":1214,"x_min":192,"x_max":1022,"o":"m 605 173 q 308 290 425 173 q 192 582 192 406 q 312 870 192 754 q 610 986 431 986 q 905 873 787 986 q 1018 582 1022 760 q 900 291 1018 410 q 605 173 781 173 m 606 911 q 366 817 460 911 q 271 580 271 722 q 367 342 271 436 q 606 248 463 248 q 842 342 746 248 q 939 579 939 437 q 844 817 939 723 q 606 911 749 911 m 819 338 l 678 338 l 637 465 q 577 530 615 530 l 545 530 l 545 338 l 426 338 l 426 839 l 600 839 q 800 696 800 839 q 683 564 800 594 l 683 562 q 760 483 732 551 l 819 338 m 545 741 l 545 621 l 597 621 q 673 683 673 621 q 586 741 673 741 l 545 741 z "},"©":{"ha":1214,"x_min":89,"x_max":1126,"o":"m 606 -17 q 234 123 380 -17 q 89 484 89 264 q 238 844 89 699 q 611 989 388 989 q 980 847 833 989 q 1126 486 1126 706 q 976 127 1126 271 q 606 -17 826 -17 m 608 913 q 300 791 422 913 q 179 486 179 669 q 302 181 179 302 q 608 60 425 60 q 912 181 788 60 q 1036 485 1036 303 q 914 791 1036 669 q 608 913 792 913 m 817 200 q 631 154 732 154 q 396 245 489 154 q 302 472 302 336 q 400 723 302 629 q 653 818 497 818 q 815 781 738 818 l 815 621 q 650 672 749 672 q 519 620 572 672 q 467 481 467 568 q 520 347 467 398 q 654 296 573 296 q 817 347 750 296 l 817 200 z "},"™":{"ha":1071,"x_min":52,"x_max":946,"o":"m 946 524 l 844 524 l 844 825 l 842 825 l 733 524 l 642 524 l 543 825 l 539 825 l 539 524 l 439 524 l 439 972 l 586 972 l 692 665 l 694 665 l 808 972 l 946 972 l 946 524 m 395 889 l 273 889 l 273 524 l 168 524 l 168 889 l 52 889 l 52 972 l 395 972 l 395 889 z "},"´":{"ha":421,"x_min":37,"x_max":404,"o":"m 404 1023 l 192 804 l 37 804 l 214 1023 l 404 1023 z "},"¨":{"ha":642,"x_min":58,"x_max":578,"o":"m 473 804 q 399 831 428 804 q 370 897 370 857 q 399 964 370 939 q 473 990 428 990 q 548 964 519 990 q 578 897 578 938 q 549 830 578 857 q 473 804 519 804 m 163 804 q 87 831 117 804 q 58 897 58 858 q 88 964 58 938 q 163 990 118 990 q 238 964 209 990 q 267 897 267 938 q 238 830 267 856 q 163 804 209 804 z "},"≠":{"ha":983,"x_min":161,"x_max":822,"o":"m 822 180 l 458 180 l 364 0 l 199 0 l 293 180 l 161 180 l 161 318 l 366 318 l 447 475 l 161 475 l 161 614 l 519 614 l 618 806 l 783 806 l 685 614 l 822 614 l 822 475 l 612 475 l 530 318 l 822 318 l 822 180 z "},"Æ":{"ha":1299,"x_min":-1,"x_max":1254,"o":"m 1254 0 l 672 0 l 672 216 l 353 216 l 253 0 l -1 0 l 490 972 l 1232 972 l 1232 794 l 890 794 l 890 578 l 1208 578 l 1208 400 l 890 400 l 890 178 l 1254 178 l 1254 0 m 672 385 l 672 794 l 619 794 l 428 385 l 672 385 z "},"Ø":{"ha":1053,"x_min":50,"x_max":1003,"o":"m 236 74 l 139 -41 l 54 29 l 155 149 q 50 473 50 279 q 183 846 50 704 q 538 989 317 989 q 810 908 696 989 l 897 1010 l 982 940 l 890 833 q 1003 493 1003 701 q 870 123 1003 264 q 522 -17 736 -17 q 236 74 359 -17 m 689 766 q 532 818 623 818 q 337 725 409 818 q 265 481 265 633 q 297 310 265 382 l 689 766 m 753 675 l 361 216 q 526 154 429 154 q 717 241 645 154 q 789 479 789 328 q 753 675 789 591 z "},"∞":{"ha":1128,"x_min":47,"x_max":1084,"o":"m 566 297 q 309 132 462 132 q 120 208 193 132 q 47 406 47 283 q 123 596 47 517 q 309 675 198 675 q 566 504 469 675 q 823 668 669 668 q 1012 593 939 668 q 1084 396 1084 517 q 1008 205 1084 284 q 822 126 932 126 q 566 297 665 126 m 494 404 q 328 534 421 534 q 238 497 273 534 q 203 404 203 460 q 238 312 203 348 q 329 275 273 275 q 494 404 421 275 m 637 397 q 804 268 711 268 q 893 304 859 268 q 928 397 928 341 q 893 491 928 454 q 803 528 858 528 q 637 397 712 528 z "},"±":{"ha":982,"x_min":161,"x_max":822,"o":"m 822 471 l 561 471 l 561 208 l 424 208 l 424 471 l 164 471 l 164 608 l 424 608 l 424 873 l 561 873 l 561 608 l 822 608 l 822 471 m 821 0 l 161 0 l 161 138 l 821 138 l 821 0 z "},"≤":{"ha":983,"x_min":161,"x_max":821,"o":"m 810 168 l 175 439 l 175 557 l 810 840 l 810 679 l 357 500 l 357 497 l 810 329 l 810 168 m 821 0 l 161 0 l 161 138 l 821 138 l 821 0 z "},"≥":{"ha":983,"x_min":161,"x_max":821,"o":"m 810 439 l 175 168 l 175 329 l 628 496 l 628 498 l 175 679 l 175 840 l 810 557 l 810 439 m 821 0 l 161 0 l 161 138 l 821 138 l 821 0 z "},"¥":{"ha":799,"x_min":28,"x_max":785,"o":"m 785 972 l 545 538 l 715 538 l 715 410 l 509 410 l 509 306 l 715 306 l 715 178 l 509 178 l 509 0 l 300 0 l 300 178 l 86 178 l 86 306 l 300 306 l 300 410 l 86 410 l 86 538 l 260 538 l 28 972 l 245 972 l 412 586 l 415 586 q 440 647 418 593 l 578 972 l 785 972 z "},"µ":{"ha":851,"x_min":90,"x_max":787,"o":"m 787 0 l 568 0 q 551 104 551 47 l 548 104 q 401 -16 509 -16 q 307 28 336 -16 l 304 28 l 304 -268 l 90 -268 l 90 694 l 304 694 l 304 295 q 420 155 304 155 q 545 327 545 155 l 545 694 l 761 694 l 761 213 q 787 0 761 53 z "},"∂":{"ha":802,"x_min":31,"x_max":779,"o":"m 555 596 l 558 596 q 559 623 559 617 q 395 854 559 854 q 212 807 304 854 l 256 977 q 449 1018 349 1018 q 779 625 779 1018 q 729 319 779 478 q 574 71 679 159 q 322 -17 469 -17 q 108 60 186 -17 q 31 269 31 136 q 129 566 31 441 q 382 692 227 692 q 555 596 496 692 m 533 437 q 427 542 507 542 q 301 460 353 542 q 249 277 249 378 q 346 147 249 147 q 467 228 415 147 q 533 437 518 309 z "},"∑":{"ha":892,"x_min":36,"x_max":861,"o":"m 861 -318 l 36 -318 l 36 -199 l 446 334 l 53 847 l 53 972 l 839 972 l 839 794 l 359 794 l 699 339 l 340 -140 l 861 -140 l 861 -318 z "},"∏":{"ha":1099,"x_min":111,"x_max":1000,"o":"m 1000 -319 l 781 -319 l 781 783 l 330 783 l 330 -319 l 111 -319 l 111 972 l 1000 972 l 1000 -319 z "},"∫":{"ha":800,"x_min":113,"x_max":689,"o":"m 689 864 q 610 880 648 880 q 507 768 507 880 l 507 -66 q 430 -259 507 -186 q 221 -332 353 -332 q 113 -318 157 -332 l 113 -151 q 191 -168 157 -168 q 293 -56 293 -168 l 293 781 q 370 972 293 899 q 581 1044 448 1044 q 689 1031 646 1044 l 689 864 z "},"ª":{"ha":570,"x_min":49,"x_max":501,"o":"m 501 486 l 357 486 l 357 545 l 354 545 q 205 472 295 472 q 93 513 137 472 q 49 621 49 555 q 227 786 49 764 l 357 803 q 262 880 357 880 q 96 828 182 880 l 96 947 q 290 986 180 986 q 501 783 501 986 l 501 486 m 357 668 l 357 715 l 273 704 q 195 639 195 693 q 265 579 195 579 q 329 605 302 579 q 357 668 357 631 z "},"º":{"ha":633,"x_min":47,"x_max":582,"o":"m 311 472 q 117 539 186 472 q 47 728 47 607 q 121 918 47 849 q 319 986 195 986 q 512 917 442 986 q 582 737 582 848 q 510 542 582 612 q 311 472 437 472 m 315 868 q 204 730 204 868 q 315 590 204 590 q 424 732 424 590 q 315 868 424 868 z "},"Ω":{"ha":1063,"x_min":56,"x_max":1007,"o":"m 771 176 l 1006 176 l 1006 0 l 599 0 l 599 176 q 777 532 777 330 q 708 728 777 654 q 535 801 639 801 q 357 728 427 801 q 288 526 288 655 q 463 176 288 336 l 463 0 l 56 0 l 56 176 l 286 176 q 57 562 57 309 q 190 872 57 755 q 531 989 322 989 q 876 871 745 989 q 1007 565 1007 753 q 771 176 1007 308 z "},"æ":{"ha":1150,"x_min":39,"x_max":1112,"o":"m 1112 286 l 660 286 q 851 135 673 135 q 1053 189 960 135 l 1053 36 q 796 -17 947 -17 q 526 104 614 -17 l 524 104 q 278 -17 428 -17 q 102 39 165 -17 q 39 195 39 95 q 104 353 39 294 q 292 422 170 413 l 465 436 q 340 566 465 566 q 107 493 222 566 l 107 653 q 358 711 234 711 q 578 621 517 711 l 581 621 q 802 711 670 711 q 1029 621 947 711 q 1112 374 1112 531 l 1112 286 m 914 418 q 794 567 914 567 q 705 525 743 567 q 660 418 667 483 l 914 418 m 465 281 l 465 311 l 359 302 q 235 214 235 292 q 261 157 235 180 q 330 135 288 135 q 427 175 389 135 q 465 281 465 216 z "},"ø":{"ha":849,"x_min":26,"x_max":818,"o":"m 818 685 l 724 586 q 800 357 800 489 q 700 83 800 181 q 421 -16 600 -16 q 199 43 287 -16 l 107 -53 l 26 20 l 119 117 q 49 346 49 212 q 152 615 49 517 q 432 713 256 713 q 643 657 553 713 l 737 757 l 818 685 m 524 536 q 428 564 486 564 q 253 349 253 564 q 265 267 253 299 l 524 536 m 585 441 l 318 164 q 427 134 359 134 q 597 353 597 134 q 585 441 597 403 z "},"¿":{"ha":608,"x_min":36,"x_max":575,"o":"m 439 414 q 449 375 446 397 q 453 333 453 353 q 447 276 453 302 q 429 228 441 250 q 398 184 416 205 q 355 143 380 163 q 311 103 330 121 q 277 65 291 84 q 257 27 264 47 q 250 -18 250 7 q 258 -57 250 -39 q 279 -87 265 -75 q 313 -108 293 -100 q 357 -115 333 -115 q 467 -93 410 -115 q 575 -26 524 -71 l 575 -231 q 461 -277 523 -262 q 334 -293 399 -293 q 216 -279 271 -293 q 122 -235 162 -265 q 59 -159 81 -205 q 36 -47 36 -113 q 45 27 36 -6 q 73 91 55 61 q 119 148 92 121 q 181 205 146 176 q 223 241 205 224 q 253 275 241 258 q 271 310 264 292 q 277 353 277 329 q 272 386 277 369 q 260 414 268 403 l 439 414 m 340 711 q 430 679 395 711 q 466 599 466 645 q 430 519 466 551 q 340 488 394 488 q 251 519 286 488 q 216 599 216 551 q 250 680 216 648 q 340 711 286 711 z "}," ":{"ha":383,"x_min":0,"x_max":0,"o":""},"¡":{"ha":454,"x_min":103,"x_max":351,"o":"m 228 489 q 138 520 173 489 q 103 599 103 551 q 138 680 103 648 q 228 711 173 711 q 316 679 281 711 q 351 599 351 646 q 316 519 351 550 q 228 489 281 489 m 342 -277 l 117 -277 l 142 395 l 315 395 l 342 -277 z "},"¬":{"ha":982,"x_min":161,"x_max":822,"o":"m 822 180 l 685 180 l 685 444 l 161 444 l 161 582 l 822 582 l 822 180 z "},"√":{"ha":903,"x_min":61,"x_max":811,"o":"m 811 1028 l 534 0 l 401 0 l 184 494 l 61 494 l 61 608 l 298 608 l 463 224 l 677 1028 l 811 1028 z "},"ƒ":{"ha":799,"x_min":53,"x_max":708,"o":"m 708 796 q 618 817 665 817 q 518 724 534 817 l 503 631 l 610 631 l 610 485 l 479 485 l 418 82 q 323 -129 397 -51 q 135 -207 248 -207 q 53 -193 101 -207 l 53 -29 q 115 -43 79 -43 q 220 94 199 -43 l 279 485 l 208 485 l 208 631 l 304 631 l 319 732 q 411 913 336 845 q 600 981 486 981 q 708 965 656 981 l 708 796 z "},"≈":{"ha":983,"x_min":132,"x_max":851,"o":"m 851 676 q 790 496 847 562 q 639 429 734 429 q 464 489 568 429 q 358 532 390 532 q 271 425 275 532 l 132 425 q 192 605 136 540 q 346 671 248 671 q 509 619 423 671 q 631 568 593 568 q 689 598 667 568 q 713 676 711 627 l 851 676 m 851 372 q 790 192 847 258 q 639 125 734 125 q 464 186 570 125 q 358 229 389 229 q 271 119 275 229 l 132 119 q 192 301 136 235 q 346 368 248 368 q 509 317 423 368 q 631 264 597 264 q 689 294 667 264 q 713 372 711 323 l 851 372 z "},"∆":{"ha":977,"x_min":24,"x_max":935,"o":"m 935 0 l 24 0 l 24 85 l 354 972 l 613 972 l 935 85 l 935 0 m 674 178 l 503 696 q 479 793 484 753 l 474 793 q 452 697 469 749 l 279 178 l 674 178 z "},"«":{"ha":807,"x_min":36,"x_max":771,"o":"m 771 136 l 589 136 l 367 364 l 589 597 l 771 597 l 545 364 l 771 136 m 441 136 l 260 136 l 36 364 l 260 597 l 440 597 l 214 364 l 441 136 z "},"»":{"ha":807,"x_min":36,"x_max":771,"o":"m 771 364 l 549 136 l 367 136 l 593 364 l 368 597 l 549 597 l 771 364 m 441 364 l 218 136 l 36 136 l 264 364 l 37 597 l 218 597 l 441 364 z "},"…":{"ha":1267,"x_min":87,"x_max":1181,"o":"m 1054 -16 q 966 17 1001 -16 q 930 97 930 50 q 966 177 930 146 q 1055 208 1002 208 q 1145 177 1110 208 q 1181 97 1181 145 q 1146 16 1181 47 q 1054 -16 1111 -16 m 632 -16 q 545 17 579 -16 q 510 97 510 50 q 545 177 510 146 q 633 208 580 208 q 723 177 688 208 q 758 97 758 145 q 723 16 758 47 q 632 -16 688 -16 m 210 -16 q 122 17 157 -16 q 87 97 87 50 q 122 177 87 146 q 211 208 157 208 q 301 177 266 208 q 336 97 336 145 q 301 16 336 47 q 210 -16 267 -16 z "},"À":{"ha":977,"x_min":7,"x_max":966,"o":"m 966 0 l 728 0 l 659 216 l 313 216 l 244 0 l 7 0 l 361 972 l 621 972 l 966 0 m 608 385 l 504 711 q 488 799 492 748 l 482 799 q 465 714 479 756 l 359 385 l 608 385 m 621 1063 l 467 1063 l 254 1282 l 445 1282 l 621 1063 z "},"Ã":{"ha":977,"x_min":7,"x_max":966,"o":"m 966 0 l 728 0 l 659 216 l 313 216 l 244 0 l 7 0 l 361 972 l 621 972 l 966 0 m 608 385 l 504 711 q 488 799 492 748 l 482 799 q 465 714 479 756 l 359 385 l 608 385 m 730 1274 q 693 1127 730 1179 q 590 1075 655 1075 q 476 1104 532 1075 q 393 1136 416 1136 q 338 1063 338 1136 l 243 1063 q 280 1209 243 1157 q 385 1261 317 1261 q 498 1228 439 1261 q 580 1198 552 1198 q 633 1274 633 1198 l 730 1274 z "},"Õ":{"ha":1053,"x_min":50,"x_max":1003,"o":"m 522 -17 q 182 119 313 -17 q 50 473 50 255 q 184 846 50 704 q 538 989 317 989 q 874 852 746 989 q 1003 493 1003 716 q 870 123 1003 264 q 522 -17 736 -17 m 532 800 q 349 714 416 800 q 281 485 281 627 q 349 256 281 340 q 526 172 416 172 q 706 254 640 172 q 772 481 772 336 q 708 716 772 632 q 532 800 644 800 m 778 1274 q 740 1127 778 1179 q 637 1075 703 1075 q 524 1104 579 1075 q 440 1136 463 1136 q 386 1063 386 1136 l 290 1063 q 328 1209 290 1157 q 432 1261 365 1261 q 546 1228 487 1261 q 627 1198 600 1198 q 680 1274 680 1198 l 778 1274 z "},"Œ":{"ha":1305,"x_min":50,"x_max":1261,"o":"m 1261 0 l 700 0 q 621 -8 682 0 q 514 -17 559 -17 q 178 121 306 -17 q 50 473 50 258 q 182 847 50 705 q 532 989 313 989 q 634 981 574 989 q 708 972 694 972 l 1239 972 l 1239 794 l 897 794 l 897 575 l 1215 575 l 1215 396 l 897 396 l 897 178 l 1261 178 l 1261 0 m 672 207 l 672 765 q 530 800 614 800 q 349 712 416 800 q 282 482 282 625 q 351 257 282 341 q 528 172 419 172 q 672 207 606 172 z "},"œ":{"ha":1284,"x_min":49,"x_max":1246,"o":"m 1246 286 l 791 286 q 983 135 801 135 q 1183 189 1097 135 l 1183 35 q 949 -17 1087 -17 q 684 111 778 -17 l 681 111 q 404 -16 588 -16 q 147 81 245 -16 q 49 345 49 178 q 149 614 49 515 q 412 713 248 713 q 574 679 503 713 q 679 593 645 646 l 682 593 q 937 711 762 711 q 1164 621 1082 711 q 1246 378 1246 530 l 1246 286 m 1046 418 q 928 567 1046 567 q 836 524 873 567 q 791 418 799 481 l 1046 418 m 428 547 q 309 495 351 547 q 267 347 267 442 q 427 149 267 149 q 582 350 582 149 q 542 495 582 444 q 428 547 501 547 z "},"–":{"ha":694,"x_min":0,"x_max":694,"o":"m 694 296 l 0 296 l 0 446 l 694 446 l 694 296 z "},"—":{"ha":1389,"x_min":0,"x_max":1389,"o":"m 1389 296 l 0 296 l 0 446 l 1389 446 l 1389 296 z "},"“":{"ha":685,"x_min":65,"x_max":608,"o":"m 608 996 l 532 694 l 347 694 l 476 996 l 608 996 m 326 996 l 252 694 l 65 694 l 193 996 l 326 996 z "},"”":{"ha":685,"x_min":77,"x_max":621,"o":"m 621 996 l 492 694 l 358 694 l 435 996 l 621 996 m 339 996 l 208 694 l 77 694 l 154 996 l 339 996 z "},"‘":{"ha":403,"x_min":65,"x_max":326,"o":"m 326 996 l 252 694 l 65 694 l 193 996 l 326 996 z "},"’":{"ha":403,"x_min":77,"x_max":339,"o":"m 339 996 l 208 694 l 77 694 l 154 996 l 339 996 z "},"÷":{"ha":982,"x_min":161,"x_max":822,"o":"m 496 574 q 428 601 456 574 q 400 667 400 628 q 427 737 400 709 q 496 765 454 765 q 563 738 538 765 q 589 668 589 711 q 561 600 589 627 q 496 574 534 574 m 822 329 l 161 329 l 161 467 l 822 467 l 822 329 m 493 32 q 425 58 453 32 q 397 123 397 85 q 424 194 397 165 q 493 222 451 222 q 561 195 535 222 q 586 125 586 168 q 559 58 586 83 q 493 32 532 32 z "},"◊":{"ha":816,"x_min":49,"x_max":765,"o":"m 765 486 l 444 0 l 367 0 l 49 485 l 367 972 l 444 972 l 765 486 m 610 486 l 407 806 l 204 486 l 407 167 l 610 486 z "},"ÿ":{"ha":747,"x_min":-3,"x_max":751,"o":"m 751 694 l 469 -56 q 163 -326 368 -326 q 35 -309 85 -326 l 35 -138 q 127 -163 77 -163 q 243 -85 210 -163 l 279 1 l -3 694 l 235 694 l 364 272 q 383 179 376 233 l 386 179 q 408 271 392 218 l 539 694 l 751 694 m 538 804 q 463 831 492 804 q 434 897 434 857 q 463 964 434 939 q 538 990 492 990 q 613 964 583 990 q 642 897 642 938 q 613 830 642 857 q 538 804 584 804 m 227 804 q 152 831 181 804 q 123 897 123 858 q 153 964 123 938 q 227 990 182 990 q 302 964 273 990 q 331 897 331 938 q 302 830 331 856 q 227 804 273 804 z "},"Ÿ":{"ha":843,"x_min":0,"x_max":844,"o":"m 844 972 l 528 346 l 528 0 l 309 0 l 309 342 l 0 972 l 250 972 l 407 610 q 429 530 411 600 l 432 530 q 453 607 441 579 l 612 972 l 844 972 m 582 1063 q 507 1089 536 1063 q 478 1156 478 1116 q 507 1223 478 1197 q 582 1249 536 1249 q 657 1222 627 1249 q 686 1156 686 1196 q 657 1089 686 1115 q 582 1063 628 1063 m 271 1063 q 196 1089 225 1063 q 167 1156 167 1116 q 197 1222 167 1196 q 271 1249 227 1249 q 346 1222 317 1249 q 375 1156 375 1196 q 346 1088 375 1114 q 271 1063 317 1063 z "},"⁄":{"ha":488,"x_min":-138,"x_max":632,"o":"m 632 972 l 28 0 l -138 0 l 467 972 l 632 972 z "},"€":{"ha":799,"x_min":74,"x_max":742,"o":"m 742 31 q 533 -18 662 -18 q 284 66 380 -18 q 157 307 188 151 l 74 307 l 74 436 l 139 436 q 138 476 138 453 q 140 532 138 488 l 74 532 l 74 659 l 160 659 q 301 902 197 815 q 559 989 405 989 q 742 951 673 989 l 742 775 q 570 835 666 835 q 438 787 495 835 q 358 659 382 739 l 647 659 l 647 532 l 338 532 q 335 476 335 492 q 336 436 335 458 l 647 436 l 647 307 l 357 307 q 559 136 408 136 q 742 197 655 136 l 742 31 z "},"‹":{"ha":478,"x_min":36,"x_max":441,"o":"m 441 136 l 260 136 l 36 364 l 260 597 l 441 597 l 215 364 l 441 136 z "},"›":{"ha":478,"x_min":36,"x_max":441,"o":"m 441 364 l 218 136 l 36 136 l 262 364 l 37 597 l 218 597 l 441 364 z "},"ﬁ":{"ha":926,"x_min":28,"x_max":854,"o":"m 533 863 q 456 882 494 882 q 359 770 359 882 l 359 694 l 517 694 l 517 539 l 359 539 l 359 0 l 144 0 l 144 539 l 28 539 l 28 694 l 144 694 l 144 781 q 221 972 144 899 q 428 1044 297 1044 q 533 1031 491 1044 l 533 863 m 730 804 q 642 837 676 804 q 607 916 607 869 q 642 994 607 964 q 730 1025 676 1025 q 820 994 785 1025 q 854 916 854 964 q 820 836 854 867 q 730 804 786 804 m 836 0 l 623 0 l 623 694 l 836 694 l 836 0 z "},"ﬂ":{"ha":926,"x_min":28,"x_max":836,"o":"m 533 863 q 456 882 494 882 q 359 770 359 882 l 359 694 l 517 694 l 517 539 l 359 539 l 359 0 l 144 0 l 144 539 l 28 539 l 28 694 l 144 694 l 144 781 q 221 972 144 899 q 428 1044 297 1044 q 533 1031 491 1044 l 533 863 m 836 0 l 623 0 l 623 1028 l 836 1028 l 836 0 z "},"‡":{"ha":564,"x_min":22,"x_max":541,"o":"m 541 327 l 339 347 l 363 137 l 201 137 l 224 347 l 22 327 l 22 480 l 204 460 l 227 555 l 204 650 l 22 629 l 22 783 l 224 762 l 201 972 l 363 972 l 339 762 l 541 783 l 541 629 l 359 650 l 337 555 l 359 460 l 541 480 l 541 327 z "},"·":{"ha":376,"x_min":62,"x_max":314,"o":"m 186 330 q 98 363 133 330 q 62 443 62 395 q 99 523 62 492 q 189 554 135 554 q 279 523 244 554 q 314 443 314 491 q 278 362 314 393 q 186 330 243 330 z "},"‚":{"ha":403,"x_min":61,"x_max":323,"o":"m 323 149 l 193 -153 l 61 -153 l 139 149 l 323 149 z "},"„":{"ha":685,"x_min":61,"x_max":606,"o":"m 606 149 l 475 -153 l 343 -153 l 419 149 l 606 149 m 323 149 l 193 -153 l 61 -153 l 139 149 l 323 149 z "},"‰":{"ha":1745,"x_min":61,"x_max":1683,"o":"m 292 479 q 124 545 188 479 q 61 722 61 611 q 129 915 61 844 q 309 986 196 986 q 477 922 416 986 q 538 741 538 857 q 471 550 538 621 q 292 479 404 479 m 304 867 q 205 729 205 867 q 300 599 205 599 q 396 734 396 599 q 304 867 396 867 m 1002 972 l 368 0 l 203 0 l 836 972 l 1002 972 m 1436 -14 q 1269 52 1333 -14 q 1206 229 1206 118 q 1273 422 1206 351 q 1453 493 1341 493 q 1623 429 1562 493 q 1683 249 1683 366 q 1616 58 1683 129 q 1436 -14 1548 -14 m 1449 374 q 1350 236 1350 374 q 1444 106 1350 106 q 1541 241 1541 106 q 1516 339 1541 304 q 1449 374 1490 374 m 897 -14 q 730 52 793 -14 q 667 229 667 118 q 734 422 667 351 q 914 493 802 493 q 1083 429 1023 493 q 1143 249 1143 366 q 1076 58 1143 129 q 897 -14 1009 -14 m 908 374 q 810 236 810 374 q 905 106 810 106 q 1002 241 1002 106 q 976 339 1002 304 q 908 374 950 374 z "},"Â":{"ha":977,"x_min":7,"x_max":966,"o":"m 966 0 l 728 0 l 659 216 l 313 216 l 244 0 l 7 0 l 361 972 l 621 972 l 966 0 m 608 385 l 504 711 q 488 799 492 748 l 482 799 q 465 714 479 756 l 359 385 l 608 385 m 731 1063 l 591 1063 l 484 1190 l 384 1063 l 243 1063 l 403 1283 l 571 1283 l 731 1063 z "},"Ê":{"ha":739,"x_min":111,"x_max":694,"o":"m 694 0 l 111 0 l 111 972 l 672 972 l 672 794 l 330 794 l 330 578 l 648 578 l 648 400 l 330 400 l 330 178 l 694 178 l 694 0 m 632 1063 l 492 1063 l 385 1190 l 285 1063 l 144 1063 l 304 1283 l 472 1283 l 632 1063 z "},"Á":{"ha":977,"x_min":7,"x_max":966,"o":"m 966 0 l 728 0 l 659 216 l 313 216 l 244 0 l 7 0 l 361 972 l 621 972 l 966 0 m 608 385 l 504 711 q 488 799 492 748 l 482 799 q 465 714 479 756 l 359 385 l 608 385 m 703 1282 l 490 1063 l 336 1063 l 512 1282 l 703 1282 z "},"Ë":{"ha":739,"x_min":111,"x_max":694,"o":"m 694 0 l 111 0 l 111 972 l 672 972 l 672 794 l 330 794 l 330 578 l 648 578 l 648 400 l 330 400 l 330 178 l 694 178 l 694 0 m 551 1063 q 476 1089 505 1063 q 447 1156 447 1116 q 476 1223 447 1197 q 551 1249 505 1249 q 626 1222 596 1249 q 655 1156 655 1196 q 626 1089 655 1115 q 551 1063 597 1063 m 240 1063 q 165 1089 194 1063 q 136 1156 136 1116 q 165 1222 136 1196 q 240 1249 195 1249 q 315 1222 286 1249 q 344 1156 344 1196 q 315 1088 344 1114 q 240 1063 286 1063 z "},"È":{"ha":739,"x_min":111,"x_max":694,"o":"m 694 0 l 111 0 l 111 972 l 672 972 l 672 794 l 330 794 l 330 578 l 648 578 l 648 400 l 330 400 l 330 178 l 694 178 l 694 0 m 519 1063 l 366 1063 l 153 1282 l 343 1282 l 519 1063 z "},"Í":{"ha":440,"x_min":75,"x_max":441,"o":"m 330 0 l 111 0 l 111 972 l 330 972 l 330 0 m 441 1282 l 229 1063 l 75 1063 l 251 1282 l 441 1282 z "},"Î":{"ha":440,"x_min":-19,"x_max":469,"o":"m 330 0 l 111 0 l 111 972 l 330 972 l 330 0 m 469 1063 l 328 1063 l 221 1190 l 121 1063 l -19 1063 l 140 1283 l 309 1283 l 469 1063 z "},"Ï":{"ha":440,"x_min":-36,"x_max":484,"o":"m 330 0 l 111 0 l 111 972 l 330 972 l 330 0 m 379 1063 q 304 1089 334 1063 q 275 1156 275 1116 q 304 1223 275 1197 q 379 1249 334 1249 q 454 1222 425 1249 q 484 1156 484 1196 q 454 1089 484 1115 q 379 1063 425 1063 m 68 1063 q -7 1089 22 1063 q -36 1156 -36 1116 q -6 1222 -36 1196 q 68 1249 24 1249 q 143 1222 115 1249 q 172 1156 172 1196 q 143 1088 172 1114 q 68 1063 115 1063 z "},"Ì":{"ha":440,"x_min":-6,"x_max":361,"o":"m 330 0 l 111 0 l 111 972 l 330 972 l 330 0 m 361 1063 l 207 1063 l -6 1282 l 184 1282 l 361 1063 z "},"Ó":{"ha":1053,"x_min":50,"x_max":1003,"o":"m 522 -17 q 182 119 313 -17 q 50 473 50 255 q 184 846 50 704 q 538 989 317 989 q 874 852 746 989 q 1003 493 1003 716 q 870 123 1003 264 q 522 -17 736 -17 m 532 800 q 349 714 416 800 q 281 485 281 627 q 349 256 281 340 q 526 172 416 172 q 706 254 640 172 q 772 481 772 336 q 708 716 772 632 q 532 800 644 800 m 753 1282 l 541 1063 l 386 1063 l 562 1282 l 753 1282 z "},"Ô":{"ha":1053,"x_min":50,"x_max":1003,"o":"m 522 -17 q 182 119 313 -17 q 50 473 50 255 q 184 846 50 704 q 538 989 317 989 q 874 852 746 989 q 1003 493 1003 716 q 870 123 1003 264 q 522 -17 736 -17 m 532 800 q 349 714 416 800 q 281 485 281 627 q 349 256 281 340 q 526 172 416 172 q 706 254 640 172 q 772 481 772 336 q 708 716 772 632 q 532 800 644 800 m 779 1063 l 639 1063 l 532 1190 l 432 1063 l 292 1063 l 451 1283 l 619 1283 l 779 1063 z "},"Ò":{"ha":1053,"x_min":50,"x_max":1003,"o":"m 522 -17 q 182 119 313 -17 q 50 473 50 255 q 184 846 50 704 q 538 989 317 989 q 874 852 746 989 q 1003 493 1003 716 q 870 123 1003 264 q 522 -17 736 -17 m 532 800 q 349 714 416 800 q 281 485 281 627 q 349 256 281 340 q 526 172 416 172 q 706 254 640 172 q 772 481 772 336 q 708 716 772 632 q 532 800 644 800 m 659 1063 l 505 1063 l 292 1282 l 482 1282 l 659 1063 z "},"Ú":{"ha":1004,"x_min":100,"x_max":904,"o":"m 904 421 q 496 -17 904 -17 q 100 411 100 -17 l 100 972 l 319 972 l 319 408 q 504 172 319 172 q 685 400 685 172 l 685 972 l 904 972 l 904 421 m 738 1282 l 526 1063 l 371 1063 l 547 1282 l 738 1282 z "},"Û":{"ha":1004,"x_min":100,"x_max":904,"o":"m 904 421 q 496 -17 904 -17 q 100 411 100 -17 l 100 972 l 319 972 l 319 408 q 504 172 319 172 q 685 400 685 172 l 685 972 l 904 972 l 904 421 m 745 1063 l 605 1063 l 498 1190 l 398 1063 l 258 1063 l 417 1283 l 585 1283 l 745 1063 z "},"Ù":{"ha":1004,"x_min":100,"x_max":904,"o":"m 904 421 q 496 -17 904 -17 q 100 411 100 -17 l 100 972 l 319 972 l 319 408 q 504 172 319 172 q 685 400 685 172 l 685 972 l 904 972 l 904 421 m 624 1063 l 470 1063 l 257 1282 l 448 1282 l 624 1063 z "},"ı":{"ha":395,"x_min":90,"x_max":304,"o":"m 304 0 l 90 0 l 90 694 l 304 694 l 304 0 z "},"ˆ":{"ha":532,"x_min":21,"x_max":509,"o":"m 509 804 l 368 804 l 261 932 l 161 804 l 21 804 l 180 1025 l 349 1025 l 509 804 z "},"˜":{"ha":532,"x_min":24,"x_max":511,"o":"m 511 1015 q 474 868 511 920 q 371 817 436 817 q 257 846 313 817 q 174 878 197 878 q 119 804 119 878 l 24 804 q 61 951 24 899 q 165 1003 98 1003 q 279 970 220 1003 q 361 940 333 940 q 414 1015 414 940 l 511 1015 z "},"ˉ":{"ha":468,"x_min":35,"x_max":432,"o":"m 432 804 l 35 804 l 35 921 l 432 921 l 432 804 z "},"˘":{"ha":481,"x_min":12,"x_max":469,"o":"m 469 1013 q 400 861 461 917 q 239 804 338 804 q 77 862 140 804 q 12 1013 15 920 l 134 1013 q 241 921 145 921 q 347 1013 334 921 l 469 1013 z "},"˙":{"ha":351,"x_min":72,"x_max":279,"o":"m 176 804 q 101 831 131 804 q 72 897 72 859 q 102 963 72 938 q 176 989 132 989 q 251 963 222 989 q 279 897 279 937 q 251 831 279 857 q 176 804 222 804 z "},"˚":{"ha":376,"x_min":26,"x_max":351,"o":"m 186 804 q 72 845 117 804 q 26 950 26 885 q 74 1059 26 1019 q 189 1100 121 1100 q 307 1060 262 1100 q 351 954 351 1019 q 303 846 351 888 q 186 804 254 804 m 186 1017 q 121 953 121 1017 q 186 889 121 889 q 236 908 216 889 q 256 953 256 926 q 236 999 256 981 q 186 1017 217 1017 z "},"¸":{"ha":299,"x_min":35,"x_max":310,"o":"m 35 -306 l 35 -212 q 83 -216 58 -216 q 167 -167 167 -216 q 92 -122 167 -122 q 66 -123 83 -122 l 66 0 l 183 0 l 183 -56 q 310 -168 310 -61 q 94 -309 310 -309 q 35 -306 63 -309 z "},"˝":{"ha":564,"x_min":22,"x_max":590,"o":"m 590 1021 l 419 804 l 277 804 l 421 1021 l 590 1021 m 334 1021 l 165 804 l 22 804 l 165 1021 l 334 1021 z "},"˛":{"ha":370,"x_min":66,"x_max":300,"o":"m 300 -219 q 196 -237 248 -237 q 102 -204 138 -237 q 66 -118 66 -171 q 116 0 66 -61 l 221 0 q 180 -109 180 -62 q 220 -144 180 -144 q 300 -127 253 -144 l 300 -219 z "},"ˇ":{"ha":532,"x_min":22,"x_max":511,"o":"m 511 1025 l 350 804 l 182 804 l 22 1025 l 161 1025 l 267 897 l 372 1025 l 511 1025 z "},"Ł":{"ha":710,"x_min":1,"x_max":690,"o":"m 690 0 l 111 0 l 111 317 l 1 258 l 1 437 l 111 494 l 111 972 l 330 972 l 330 600 l 522 701 l 522 524 l 330 422 l 330 178 l 690 178 l 690 0 z "},"ł":{"ha":436,"x_min":20,"x_max":414,"o":"m 414 511 l 322 453 l 322 0 l 109 0 l 109 321 l 20 264 l 20 439 l 109 494 l 109 1028 l 322 1028 l 322 627 l 414 685 l 414 511 z "},"Š":{"ha":779,"x_min":62,"x_max":730,"o":"m 66 37 l 66 254 q 195 180 125 205 q 334 155 264 155 q 407 163 376 155 q 458 183 437 170 q 489 215 479 197 q 499 254 499 233 q 483 304 499 282 q 438 346 467 327 q 372 382 410 365 q 288 418 333 400 q 118 534 174 466 q 62 700 62 603 q 93 830 62 776 q 176 920 123 885 q 298 972 229 956 q 444 989 367 989 q 579 980 520 989 q 687 951 637 970 l 687 749 q 634 779 663 766 q 574 800 605 791 q 514 812 544 808 q 456 817 484 817 q 389 809 419 817 q 337 789 358 802 q 304 759 316 777 q 293 718 293 741 q 306 674 293 694 q 342 638 319 655 q 400 604 366 621 q 477 570 434 587 q 582 518 535 545 q 661 456 628 490 q 712 377 694 421 q 730 273 730 332 q 699 137 730 192 q 615 47 668 81 q 492 -2 562 13 q 344 -17 422 -17 q 192 -3 264 -17 q 66 37 119 10 m 660 1262 l 498 1042 l 330 1042 l 171 1262 l 310 1262 l 415 1135 l 521 1262 l 660 1262 z "},"š":{"ha":611,"x_min":45,"x_max":578,"o":"m 45 18 l 45 192 q 150 144 98 160 q 250 129 203 129 q 339 144 307 129 q 372 192 372 160 q 357 226 372 212 q 319 250 342 239 q 268 268 296 260 q 214 286 240 276 q 141 320 173 302 q 89 361 110 338 q 56 416 67 385 q 45 490 45 448 q 70 591 45 549 q 138 660 96 633 q 235 699 180 686 q 349 711 290 711 q 442 704 395 711 q 536 684 490 697 l 536 518 q 449 554 495 542 q 357 566 402 566 q 318 562 336 566 q 285 551 299 558 q 262 533 271 544 q 254 507 254 522 q 267 475 254 488 q 298 451 279 461 q 342 434 318 441 q 390 418 366 426 q 467 385 433 403 q 527 344 502 368 q 565 288 551 320 q 578 212 578 256 q 551 107 578 151 q 480 36 524 63 q 377 -4 435 8 q 257 -17 319 -17 q 45 18 142 -17 m 550 1025 l 389 804 l 220 804 l 61 1025 l 200 1025 l 305 897 l 411 1025 l 550 1025 z "},"Ž":{"ha":843,"x_min":28,"x_max":811,"o":"m 811 0 l 28 0 l 28 126 l 526 794 l 64 794 l 64 972 l 810 972 l 810 850 l 322 178 l 811 178 l 811 0 m 671 1260 l 510 1040 l 342 1040 l 182 1260 l 321 1260 l 427 1133 l 532 1260 l 671 1260 z "},"ž":{"ha":665,"x_min":17,"x_max":640,"o":"m 640 0 l 17 0 l 17 89 l 366 536 l 52 536 l 52 694 l 637 694 l 637 589 l 307 158 l 640 158 l 640 0 m 591 1025 l 430 804 l 262 804 l 102 1025 l 241 1025 l 347 897 l 452 1025 l 591 1025 z "},"¦":{"ha":453,"x_min":142,"x_max":313,"o":"m 313 464 l 142 464 l 142 1063 l 313 1063 l 313 464 m 313 -326 l 142 -326 l 142 281 l 313 281 l 313 -326 z "},"Ð":{"ha":1024,"x_min":0,"x_max":974,"o":"m 111 0 l 111 397 l 0 397 l 0 578 l 111 578 l 111 972 l 456 972 q 974 498 974 972 q 832 136 974 271 q 456 0 691 0 l 111 0 m 330 794 l 330 578 l 514 578 l 514 397 l 330 397 l 330 178 l 439 178 q 662 263 581 178 q 743 496 743 349 q 663 714 743 635 q 437 794 583 794 l 330 794 z "},"ð":{"ha":824,"x_min":49,"x_max":775,"o":"m 513 654 l 515 656 q 383 817 458 755 l 186 720 l 131 815 l 294 893 q 111 1028 188 978 l 350 1028 q 439 962 357 1024 l 624 1053 l 676 960 l 530 889 q 775 382 775 692 q 673 94 775 205 q 406 -17 572 -17 q 143 81 237 -17 q 49 349 49 179 q 139 605 49 505 q 374 705 229 705 q 513 654 453 705 m 415 547 q 306 494 345 547 q 267 349 267 441 q 305 200 267 254 q 412 147 344 147 q 518 202 479 147 q 557 353 557 258 q 415 547 557 547 z "},"Ý":{"ha":843,"x_min":0,"x_max":844,"o":"m 844 972 l 528 346 l 528 0 l 309 0 l 309 342 l 0 972 l 250 972 l 407 610 q 429 530 411 600 l 432 530 q 453 607 441 579 l 612 972 l 844 972 m 612 1259 l 400 1040 l 245 1040 l 422 1259 l 612 1259 z "},"ý":{"ha":747,"x_min":-3,"x_max":751,"o":"m 751 694 l 469 -56 q 163 -326 368 -326 q 35 -309 85 -326 l 35 -138 q 127 -163 77 -163 q 243 -85 210 -163 l 279 1 l -3 694 l 235 694 l 364 272 q 383 179 376 233 l 386 179 q 408 271 392 218 l 539 694 l 751 694 m 566 1023 l 353 804 l 199 804 l 375 1023 l 566 1023 z "},"Þ":{"ha":853,"x_min":111,"x_max":822,"o":"m 330 191 l 330 0 l 111 0 l 111 972 l 330 972 l 330 829 l 454 829 q 822 519 822 829 q 716 282 822 373 q 435 191 611 191 l 330 191 m 330 661 l 330 358 l 416 358 q 591 511 591 358 q 416 661 591 661 l 330 661 z "},"þ":{"ha":861,"x_min":90,"x_max":812,"o":"m 307 81 l 304 81 l 304 -319 l 90 -319 l 90 1028 l 304 1028 l 304 590 l 307 590 q 530 711 387 711 q 739 619 665 711 q 812 367 812 526 q 727 88 812 193 q 498 -17 641 -17 q 307 81 373 -17 m 301 366 l 301 310 q 339 193 301 238 q 439 147 377 147 q 552 204 512 147 q 593 364 593 260 q 450 547 593 547 q 343 497 385 547 q 301 366 301 448 z "},"−":{"ha":982,"x_min":161,"x_max":822,"o":"m 822 329 l 161 329 l 161 467 l 822 467 l 822 329 z "},"×":{"ha":982,"x_min":164,"x_max":821,"o":"m 821 168 l 722 71 l 493 301 l 262 71 l 164 170 l 395 397 l 164 628 l 260 726 l 493 496 l 725 726 l 819 624 l 590 397 l 821 168 z "},"¹":{"ha":547,"x_min":97,"x_max":489,"o":"m 489 396 l 107 396 l 107 513 l 227 513 l 227 836 l 97 808 l 97 930 l 372 986 l 372 513 l 489 513 l 489 396 z "},"²":{"ha":562,"x_min":79,"x_max":489,"o":"m 489 396 l 79 396 l 79 503 l 248 661 q 312 736 300 711 q 325 791 325 761 q 306 839 325 820 q 254 857 286 857 q 111 787 188 857 l 111 933 q 281 986 191 986 q 427 940 373 986 q 481 811 481 893 q 455 715 481 764 q 334 582 430 667 l 262 519 l 262 517 l 489 517 l 489 396 z "},"³":{"ha":562,"x_min":89,"x_max":485,"o":"m 89 418 l 89 541 q 239 494 161 494 q 340 564 340 494 q 224 633 340 633 l 144 633 l 144 746 l 221 746 q 322 811 322 746 q 241 872 322 872 q 107 828 169 872 l 107 947 q 269 986 174 986 q 413 945 360 986 q 465 836 465 904 q 368 704 465 736 l 368 701 q 485 567 485 673 q 418 433 485 484 q 244 382 352 382 q 89 418 154 382 z "},"½":{"ha":1341,"x_min":66,"x_max":1250,"o":"m 458 396 l 77 396 l 77 513 l 196 513 l 196 836 l 66 808 l 66 930 l 342 986 l 342 513 l 458 513 l 458 396 m 1021 972 l 417 0 l 252 0 l 856 972 l 1021 972 m 1250 0 l 840 0 l 840 106 l 1008 265 q 1073 340 1061 315 q 1086 395 1086 365 q 1066 443 1086 424 q 1015 461 1047 461 q 872 391 949 461 l 872 537 q 1042 590 952 590 q 1188 544 1134 590 q 1242 415 1242 497 q 1216 319 1242 368 q 1095 186 1191 271 l 1023 123 l 1023 121 l 1250 121 l 1250 0 z "},"¼":{"ha":1322,"x_min":66,"x_max":1251,"o":"m 458 396 l 77 396 l 77 513 l 196 513 l 196 836 l 66 808 l 66 930 l 342 986 l 342 513 l 458 513 l 458 396 m 1021 972 l 416 0 l 251 0 l 855 972 l 1021 972 m 1251 119 l 1177 119 l 1177 0 l 1032 0 l 1032 119 l 764 119 l 764 215 l 1002 576 l 1177 576 l 1177 224 l 1251 224 l 1251 119 m 1035 460 l 1029 460 q 1003 408 1020 435 l 889 224 l 1032 224 l 1032 403 q 1035 460 1032 435 z "},"¾":{"ha":1360,"x_min":89,"x_max":1283,"o":"m 89 418 l 89 541 q 239 494 161 494 q 340 564 340 494 q 224 633 340 633 l 144 633 l 144 746 l 221 746 q 322 811 322 746 q 241 872 322 872 q 107 828 169 872 l 107 947 q 269 986 174 986 q 413 945 360 986 q 465 836 465 904 q 368 704 465 736 l 368 701 q 485 567 485 673 q 418 433 485 484 q 244 382 352 382 q 89 418 154 382 m 1061 972 l 457 0 l 292 0 l 896 972 l 1061 972 m 1283 119 l 1208 119 l 1208 0 l 1064 0 l 1064 119 l 796 119 l 796 215 l 1034 576 l 1208 576 l 1208 224 l 1283 224 l 1283 119 m 1067 460 l 1061 460 q 1035 408 1052 435 l 921 224 l 1064 224 l 1064 403 q 1067 460 1064 435 z "},"¯":{"ha":576,"x_min":0,"x_max":576,"o":"m 576 947 l 0 947 l 0 1028 l 576 1028 l 576 947 z "},"∙":{"ha":376,"x_min":62,"x_max":314,"o":"m 186 330 q 98 363 133 330 q 62 443 62 395 q 99 523 62 492 q 189 554 135 554 q 279 523 244 554 q 314 443 314 491 q 278 362 314 393 q 186 330 243 330 z "},"¤":{"ha":772,"x_min":35,"x_max":737,"o":"m 737 243 l 642 144 l 545 240 q 386 196 473 196 q 228 240 300 196 l 131 144 l 35 243 l 131 336 q 86 492 86 411 q 131 647 86 574 l 35 742 l 131 840 l 228 745 q 386 789 300 789 q 545 745 473 789 l 642 840 l 737 742 l 642 647 q 688 492 688 572 q 642 336 688 414 l 737 243 m 386 654 q 271 607 318 654 q 224 493 224 560 q 271 379 224 426 q 386 332 318 332 q 502 379 454 332 q 550 493 550 426 q 500 607 550 559 q 386 654 451 654 z "},"⁴":{"ha":581,"x_min":46,"x_max":533,"o":"m 533 515 l 458 515 l 458 396 l 314 396 l 314 515 l 46 515 l 46 611 l 283 972 l 458 972 l 458 621 l 533 621 l 533 515 m 317 856 l 311 856 q 285 804 302 831 l 171 621 l 314 621 l 314 799 q 317 856 314 831 z "},"π":{"ha":962,"x_min":7,"x_max":917,"o":"m 917 536 l 766 536 l 766 256 q 825 158 766 158 q 889 174 856 158 l 889 9 q 770 -12 833 -12 q 553 220 553 -12 l 553 536 l 385 536 l 385 211 q 357 0 385 68 l 139 0 q 171 222 171 82 l 171 536 q 7 479 89 535 l 7 652 q 174 694 66 694 l 917 694 l 917 536 z "},"ก":{"ha":861,"x_min":63,"x_max":779,"o":"m 81 0 l 81 174 q 90 232 81 204 q 116 282 99 259 q 160 322 134 305 q 221 348 186 339 l 63 348 l 63 450 q 98 557 71 509 q 170 640 125 606 q 277 693 215 674 q 418 711 340 711 q 579 690 511 711 q 692 631 648 669 q 758 541 736 593 q 779 428 779 489 l 779 0 l 610 0 l 610 416 q 598 484 610 454 q 564 534 586 514 q 507 566 541 555 q 418 576 473 576 q 331 566 363 576 q 279 539 299 556 q 247 500 258 522 q 232 452 235 479 l 367 452 l 367 348 q 328 334 349 342 q 291 307 308 325 q 262 260 273 289 q 251 186 251 231 l 251 0 l 81 0 z "},"ข":{"ha":1001,"x_min":27,"x_max":911,"o":"m 176 538 q 228 529 204 538 q 268 503 251 519 q 294 463 285 486 q 304 410 304 439 q 294 358 304 382 q 268 318 285 334 q 228 292 251 301 q 176 282 204 282 q 112 295 139 282 q 65 332 84 309 q 37 389 46 356 q 27 463 27 422 q 47 563 27 517 q 105 642 66 609 q 201 693 144 675 q 334 711 258 711 q 456 694 403 711 q 548 646 509 677 q 609 570 588 615 q 630 469 630 525 q 573 430 596 450 q 536 383 550 410 q 516 322 522 357 q 510 242 510 288 l 510 135 l 648 135 q 717 157 692 135 q 742 223 742 178 l 742 701 l 911 701 l 911 195 q 898 116 911 152 q 860 54 885 80 q 797 14 834 28 q 710 0 759 0 l 341 0 l 341 231 q 347 326 341 288 q 367 389 353 363 q 402 434 380 415 q 454 471 424 452 q 447 519 454 495 q 423 560 439 543 q 379 588 406 577 q 308 600 351 600 q 216 582 257 600 q 159 536 175 564 q 167 538 162 538 q 176 538 172 538 m 123 410 q 139 373 123 389 q 176 358 154 358 q 213 373 197 358 q 228 410 228 389 q 213 447 228 432 q 176 463 197 463 q 139 447 154 463 q 123 410 123 432 z "},"ฃ":{"ha":1014,"x_min":27,"x_max":924,"o":"m 130 334 q 145 297 130 313 q 182 282 160 282 q 219 297 203 282 q 234 334 234 313 q 219 371 234 356 q 182 387 203 387 q 145 371 160 387 q 130 334 130 356 m 643 469 q 586 430 609 450 q 549 383 563 410 q 529 322 535 357 q 523 242 523 288 l 523 135 l 661 135 q 730 157 705 135 q 755 223 755 178 l 755 701 l 924 701 l 924 195 q 911 116 924 152 q 872 54 898 80 q 809 14 847 28 q 723 0 772 0 l 354 0 l 354 231 q 360 326 354 288 q 380 389 366 363 q 415 434 393 415 q 467 471 437 452 q 464 502 467 485 q 455 533 460 519 q 439 562 449 547 q 408 592 429 576 l 304 477 l 200 585 q 178 555 187 569 q 164 525 170 541 q 156 492 158 509 q 153 460 153 475 q 166 462 157 461 q 182 463 176 463 q 234 453 210 463 q 274 427 257 444 q 300 387 291 410 q 310 334 310 363 q 300 282 310 306 q 274 242 291 258 q 234 216 257 225 q 182 206 210 206 q 117 220 145 206 q 68 260 88 235 q 38 322 48 286 q 27 401 27 358 q 40 514 27 463 q 76 604 54 565 q 129 669 99 642 q 191 711 159 696 l 304 593 l 413 711 q 489 691 452 709 q 562 641 526 673 q 620 564 597 609 q 643 469 643 519 z "},"ค":{"ha":881,"x_min":53,"x_max":800,"o":"m 297 249 q 286 227 291 241 q 278 196 281 214 q 273 160 275 179 q 271 121 271 140 l 271 0 l 102 0 l 102 174 q 93 238 101 207 q 77 302 85 269 q 60 372 68 335 q 53 452 53 408 q 80 563 53 515 q 155 645 106 612 q 273 694 204 677 q 426 711 342 711 q 584 693 514 711 q 701 640 653 675 q 774 551 749 604 q 800 428 800 498 l 800 0 l 631 0 l 631 412 q 621 475 631 446 q 588 526 610 505 q 527 562 566 547 q 426 576 487 576 q 325 562 365 576 q 264 529 286 549 q 233 482 243 509 q 222 426 222 455 q 230 368 222 394 q 245 314 237 342 q 271 365 254 342 q 310 404 288 388 q 357 429 332 420 q 407 437 382 437 q 461 428 437 437 q 504 401 486 418 q 531 360 522 384 q 541 309 541 337 q 531 257 541 280 q 505 216 522 233 q 465 190 488 199 q 412 180 441 180 q 342 198 372 180 q 297 249 312 216 m 412 361 q 375 346 391 361 q 360 309 360 330 q 375 272 360 287 q 412 256 391 256 q 449 272 434 256 q 465 309 465 287 q 449 346 465 330 q 412 361 434 361 z "},"ฅ":{"ha":881,"x_min":53,"x_max":800,"o":"m 245 280 q 272 331 254 309 q 311 370 289 354 q 357 395 332 387 q 407 404 382 404 q 461 394 437 404 q 504 367 486 385 q 531 327 522 350 q 541 275 541 303 q 531 223 541 246 q 505 182 522 199 q 465 156 488 165 q 412 146 441 146 q 342 165 372 146 q 297 215 312 183 q 286 193 291 207 q 278 162 281 180 q 273 126 275 145 q 271 87 271 106 l 271 0 l 102 0 l 102 174 q 93 238 101 206 q 77 302 85 269 q 60 372 68 335 q 53 452 53 408 q 75 560 53 514 q 133 638 98 606 q 213 687 169 669 q 302 711 258 705 l 428 603 l 545 711 q 640 687 594 706 q 722 635 686 669 q 778 550 757 601 q 800 429 800 499 l 800 0 l 631 0 l 631 391 q 629 442 631 418 q 621 485 627 466 q 598 526 614 505 q 542 562 581 547 l 428 459 l 313 561 q 262 529 281 547 q 235 492 243 510 q 224 453 227 473 q 222 411 222 433 q 230 343 222 374 q 245 281 237 311 l 245 280 m 412 327 q 375 312 391 327 q 360 275 360 296 q 375 238 360 253 q 412 222 391 222 q 449 238 434 222 q 465 275 465 253 q 449 312 465 296 q 412 327 434 327 z "},"ฆ":{"ha":1103,"x_min":27,"x_max":1013,"o":"m 395 189 q 326 123 326 182 q 335 89 326 100 q 359 77 345 77 q 386 89 377 77 q 395 128 395 100 l 395 189 m 310 515 l 207 596 q 168 554 178 576 q 153 514 157 532 q 166 516 157 515 q 182 517 176 517 q 234 507 210 517 q 274 481 257 498 q 300 441 291 465 q 310 389 310 417 q 300 336 310 360 q 274 296 291 313 q 234 270 257 279 q 182 260 210 260 q 117 273 145 260 q 68 310 88 286 q 38 366 48 333 q 27 437 27 398 q 40 538 27 494 q 76 617 54 583 q 129 674 99 651 q 191 711 159 698 l 311 620 l 413 711 q 489 692 452 709 q 562 645 526 675 q 621 574 597 615 q 644 483 644 533 q 606 454 621 467 q 582 427 591 441 q 568 393 572 412 q 564 347 564 374 l 564 289 q 666 270 627 283 q 736 240 704 256 q 796 207 768 225 q 844 168 824 189 l 844 701 l 1013 701 l 1013 0 l 837 0 q 790 61 818 31 q 730 115 762 90 q 662 160 699 140 q 564 186 625 180 l 564 163 q 521 34 564 79 q 393 -11 478 -11 q 270 26 313 -11 q 227 134 227 62 q 240 200 227 172 q 277 247 254 228 q 330 277 300 266 q 395 290 361 288 l 395 347 q 398 389 395 371 q 409 423 401 408 q 431 453 417 438 q 468 484 446 467 q 465 516 468 498 q 457 548 462 533 q 443 577 452 564 q 414 606 434 591 l 310 515 m 130 389 q 145 352 130 367 q 182 336 160 336 q 219 352 203 336 q 234 389 234 367 q 219 426 234 410 q 182 441 203 441 q 145 426 160 441 q 130 389 130 410 z "},"ง":{"ha":634,"x_min":14,"x_max":544,"o":"m 439 583 q 424 620 439 605 q 387 635 408 635 q 350 620 365 635 q 334 583 334 605 q 350 546 334 562 q 387 531 365 531 q 424 546 408 531 q 439 583 439 562 m 374 457 q 329 469 350 459 q 292 494 308 478 q 267 533 276 511 q 258 583 258 555 q 269 638 258 614 q 298 679 279 663 q 342 703 317 695 q 400 711 368 711 q 544 541 544 711 l 544 0 l 372 0 l 14 330 l 14 481 l 374 153 l 374 457 z "},"จ":{"ha":804,"x_min":27,"x_max":722,"o":"m 553 171 l 553 426 q 540 494 553 465 q 503 541 527 522 q 444 567 478 559 q 342 576 409 576 q 258 569 302 576 q 172 551 214 563 q 93 524 130 540 q 27 491 55 509 l 27 647 q 90 676 55 664 q 166 696 125 688 q 251 708 206 704 q 342 711 295 711 q 627 639 531 711 q 722 428 722 567 l 722 0 l 543 0 l 365 194 q 325 162 349 174 q 264 150 301 150 q 213 160 237 150 q 172 187 189 170 q 144 227 155 204 q 134 277 134 250 q 144 332 134 309 q 173 372 155 356 q 216 397 191 389 q 270 405 241 405 q 312 399 293 405 q 348 384 332 393 q 379 360 365 374 q 407 332 393 347 l 553 171 m 315 277 q 299 314 315 298 q 262 329 284 329 q 225 314 241 329 q 210 277 210 298 q 225 240 210 255 q 262 224 241 224 q 299 240 284 224 q 315 277 315 255 z "},"ฉ":{"ha":970,"x_min":27,"x_max":941,"o":"m 143 0 l 143 176 l 138 177 q 94 190 115 180 q 59 216 74 200 q 36 254 44 233 q 27 302 27 276 q 37 358 27 334 q 66 398 47 382 q 112 422 85 414 q 169 431 138 431 q 271 392 229 431 q 313 274 313 354 l 313 155 q 372 202 332 175 q 445 245 412 230 q 512 271 477 260 q 604 289 548 281 l 604 426 q 591 494 604 465 q 553 541 578 522 q 494 567 529 559 q 393 576 460 576 q 309 569 353 576 q 223 551 265 563 q 143 524 181 540 q 78 491 106 509 l 78 647 q 141 676 106 664 q 217 696 176 688 q 301 708 257 704 q 393 711 346 711 q 677 639 582 711 q 773 428 773 567 l 773 290 q 838 277 808 288 q 892 247 869 266 q 928 200 915 228 q 941 134 941 172 q 898 26 941 62 q 764 -11 854 -11 q 647 34 690 -11 q 604 163 604 79 l 604 186 q 517 165 553 178 q 443 126 481 153 q 371 66 404 100 q 319 0 338 31 l 143 0 m 773 128 q 782 89 773 100 q 809 77 791 77 q 833 89 824 77 q 843 123 843 100 q 773 189 843 181 l 773 128 m 208 302 q 192 339 208 324 q 155 355 177 355 q 118 339 134 355 q 103 302 103 324 q 118 266 103 281 q 155 250 134 250 q 192 266 177 250 q 208 302 208 281 z "},"ช":{"ha":1042,"x_min":27,"x_max":972,"o":"m 123 410 q 139 373 123 389 q 176 358 154 358 q 213 373 197 358 q 228 410 228 389 q 213 447 228 432 q 176 463 197 463 q 139 447 154 463 q 123 410 123 432 m 911 195 q 898 116 911 152 q 860 54 885 80 q 797 14 834 28 q 710 0 759 0 l 341 0 l 341 231 q 347 326 341 288 q 367 389 353 363 q 402 434 380 415 q 454 471 424 452 q 448 517 454 495 q 424 557 441 539 q 380 587 408 574 q 313 600 353 600 q 218 580 260 600 q 159 536 176 561 q 167 538 162 538 q 176 538 172 538 q 228 529 204 538 q 268 503 251 519 q 294 463 285 486 q 304 410 304 439 q 294 358 304 382 q 268 318 285 334 q 228 292 251 301 q 176 282 204 282 q 112 295 139 282 q 65 332 84 309 q 37 389 46 356 q 27 463 27 422 q 47 563 27 517 q 105 642 66 609 q 201 693 144 675 q 334 711 258 711 q 451 694 394 711 q 548 646 509 677 q 609 570 588 615 q 630 469 630 525 q 573 430 596 450 q 536 383 550 410 q 516 322 522 357 q 510 242 510 288 l 510 135 l 648 135 q 717 157 692 135 q 742 223 742 178 l 742 360 q 739 405 742 386 q 730 436 736 423 q 714 458 724 450 q 690 472 705 467 l 690 554 q 749 588 728 570 q 780 631 770 607 q 792 684 789 654 q 799 751 795 713 l 972 751 q 959 668 968 703 q 932 604 949 632 q 886 554 914 576 q 818 513 859 532 q 852 496 836 508 q 882 464 869 484 q 903 419 895 445 q 911 360 911 393 l 911 195 z "},"ซ":{"ha":1000,"x_min":27,"x_max":971,"o":"m 523 135 l 648 135 q 716 157 691 135 q 741 223 741 178 l 741 374 q 739 418 741 399 q 730 450 736 437 q 714 472 724 463 q 690 486 704 480 l 690 568 q 748 600 728 583 q 779 637 769 616 q 792 686 789 659 q 798 751 795 713 l 971 751 q 958 670 967 703 q 931 611 949 636 q 886 566 913 585 q 817 526 858 546 q 852 509 835 522 q 882 478 869 497 q 902 432 895 458 q 910 374 910 406 l 910 195 q 897 116 910 152 q 859 54 884 80 q 796 14 833 28 q 709 0 758 0 l 354 0 l 354 231 q 360 326 354 288 q 380 389 366 363 q 415 434 393 415 q 467 471 437 452 q 464 502 467 485 q 456 536 461 519 q 441 567 451 552 q 411 599 432 581 l 304 484 l 200 592 q 173 556 180 572 q 161 525 166 541 q 155 492 157 509 q 153 460 153 475 q 166 462 157 461 q 182 463 176 463 q 234 453 210 463 q 274 427 257 444 q 300 387 291 410 q 310 334 310 363 q 300 282 310 306 q 274 242 291 258 q 234 216 257 225 q 182 206 210 206 q 117 220 145 206 q 68 260 88 235 q 38 322 48 286 q 27 401 27 358 q 40 514 27 463 q 76 604 54 565 q 129 669 99 642 q 191 711 159 696 l 304 593 l 413 711 q 489 690 452 709 q 562 638 526 671 q 620 563 597 606 q 643 469 643 519 q 586 430 609 450 q 549 383 563 410 q 529 322 535 357 q 523 242 523 288 l 523 135 m 130 334 q 145 297 130 313 q 182 282 160 282 q 219 297 203 282 q 234 334 234 313 q 219 371 234 356 q 182 387 203 387 q 145 371 160 387 q 130 334 130 356 z "},"ฌ":{"ha":1319,"x_min":63,"x_max":1229,"o":"m 186 117 q 202 80 186 96 q 239 65 217 65 q 276 80 260 65 q 291 117 291 96 q 276 154 291 139 q 239 170 260 170 q 202 154 217 170 q 186 117 186 139 m 612 416 q 599 480 612 452 q 564 529 586 508 q 508 564 543 551 q 425 576 474 576 q 286 540 330 576 q 232 452 241 503 l 367 452 l 367 348 q 331 340 351 345 q 293 324 311 335 q 263 293 275 313 q 251 243 251 274 q 293 233 273 241 q 330 209 314 224 q 357 171 347 193 q 367 117 367 148 q 328 22 367 54 q 226 -11 289 -11 q 123 27 165 -11 q 81 146 81 66 l 81 174 q 90 232 81 204 q 116 282 99 259 q 160 322 134 305 q 221 348 186 339 l 63 348 l 63 450 q 99 558 71 509 q 173 640 127 606 q 282 693 219 674 q 425 711 346 711 q 575 690 506 711 q 690 631 644 669 q 758 541 736 593 q 781 428 781 489 l 781 289 q 882 271 845 283 q 951 243 918 259 q 1013 208 985 227 q 1060 168 1041 189 l 1060 701 l 1229 701 l 1229 0 l 1053 0 q 1006 62 1034 31 q 946 118 979 92 q 875 162 913 144 q 781 186 837 180 l 781 163 q 738 34 781 79 q 609 -11 694 -11 q 487 26 530 -11 q 444 134 444 62 q 457 200 444 172 q 493 247 470 228 q 547 277 516 266 q 612 290 577 288 l 612 416 m 612 189 q 542 123 542 181 q 551 89 542 100 q 576 77 561 77 q 603 89 593 77 q 612 128 612 100 l 612 189 z "},"ญ":{"ha":1251,"x_min":63,"x_max":1161,"o":"m 857 -158 q 853 -183 857 -168 q 842 -208 850 -198 q 998 -143 932 -189 q 1119 -18 1065 -96 l 1119 -143 q 1058 -199 1092 -173 q 982 -244 1023 -225 q 890 -275 940 -264 q 784 -287 841 -287 q 707 -277 740 -287 q 653 -250 675 -267 q 622 -209 632 -233 q 612 -158 612 -186 q 621 -109 612 -132 q 646 -71 630 -87 q 685 -45 663 -54 q 734 -36 707 -36 q 783 -45 760 -36 q 821 -71 805 -54 q 847 -109 838 -87 q 857 -158 857 -132 m 686 -157 q 700 -192 686 -178 q 734 -207 714 -207 q 768 -192 754 -207 q 783 -157 783 -178 q 768 -124 783 -138 q 734 -110 754 -110 q 700 -124 714 -110 q 686 -157 686 -138 m 186 117 q 202 80 186 96 q 239 65 217 65 q 276 80 260 65 q 291 117 291 96 q 276 154 291 139 q 239 170 260 170 q 202 154 217 170 q 186 117 186 139 m 63 348 l 63 450 q 97 558 71 509 q 166 640 123 606 q 271 693 210 674 q 411 711 332 711 q 559 690 492 711 q 669 631 626 669 q 733 541 713 593 q 753 428 753 489 l 753 135 l 899 135 q 967 157 942 135 q 992 223 992 179 l 992 701 l 1161 701 l 1161 195 q 1148 116 1161 152 q 1110 54 1135 80 q 1047 14 1084 28 q 960 0 1009 0 l 585 0 l 585 412 q 541 533 585 489 q 411 576 498 576 q 321 564 353 576 q 272 534 290 551 q 245 497 255 517 q 232 452 235 476 l 367 452 l 367 348 q 331 340 351 345 q 293 324 311 335 q 263 293 275 313 q 251 243 251 274 q 293 233 273 241 q 330 209 314 224 q 357 171 347 193 q 367 117 367 148 q 328 22 367 54 q 226 -11 289 -11 q 123 27 165 -11 q 81 146 81 66 l 81 174 q 90 232 81 204 q 116 282 99 259 q 160 322 134 305 q 221 348 186 339 l 63 348 z "},"ฎ":{"ha":904,"x_min":29,"x_max":823,"o":"m 145 243 q 158 277 149 262 q 183 305 167 292 q 225 329 200 318 q 285 348 250 339 l 127 348 l 127 450 q 161 558 135 509 q 231 640 187 606 q 335 693 275 674 q 471 711 395 711 q 628 690 562 711 q 738 631 694 669 q 802 541 781 593 q 823 428 823 489 l 823 -278 l 644 -278 q 562 -189 610 -222 q 467 -144 515 -156 q 451 -189 463 -166 q 420 -230 439 -212 q 376 -260 401 -248 q 318 -272 350 -272 q 274 -265 294 -272 q 239 -244 254 -258 q 216 -212 224 -231 q 208 -167 208 -192 q 247 -81 208 -112 q 358 -50 285 -50 q 381 -51 368 -50 q 400 -54 395 -52 q 419 -4 406 -25 q 452 26 433 16 l 556 26 q 503 -11 522 14 q 477 -66 484 -35 q 576 -102 530 -77 q 654 -157 623 -127 l 654 412 q 642 480 654 451 q 610 531 630 510 q 558 564 590 551 q 471 576 526 576 q 388 564 420 576 q 339 535 357 552 q 310 497 321 518 q 296 452 299 476 l 431 452 l 431 348 q 394 340 414 345 q 356 324 374 335 q 327 293 338 313 q 315 243 315 274 l 315 146 q 273 27 315 66 q 171 -11 231 -11 q 113 -3 139 -11 q 68 22 87 5 q 39 62 50 38 q 29 117 29 85 q 62 206 29 174 q 145 243 94 238 m 210 117 q 194 154 210 139 q 157 170 179 170 q 120 154 136 170 q 105 117 105 139 q 120 80 105 96 q 157 65 136 65 q 194 80 179 65 q 210 117 210 96 m 391 -127 q 359 -124 377 -124 q 303 -136 320 -124 q 286 -167 286 -149 q 295 -189 286 -180 q 318 -197 303 -197 q 366 -179 347 -197 q 391 -127 385 -161 z "},"ฏ":{"ha":904,"x_min":29,"x_max":823,"o":"m 338 -110 q 323 -107 334 -109 q 303 -106 312 -106 q 256 -119 275 -106 q 238 -158 238 -132 q 248 -184 238 -174 q 273 -194 257 -194 q 301 -187 290 -194 q 320 -169 313 -180 q 332 -142 328 -157 q 338 -110 336 -127 m 127 348 l 127 450 q 161 558 135 509 q 231 640 187 606 q 335 693 275 674 q 471 711 395 711 q 628 690 562 711 q 738 631 694 669 q 802 541 781 593 q 823 428 823 489 l 823 -278 l 654 -278 q 646 -244 651 -261 q 633 -215 641 -228 q 615 -193 626 -201 q 588 -185 604 -185 q 562 -194 572 -185 q 545 -217 551 -203 q 536 -244 539 -230 q 532 -267 534 -258 l 470 -267 q 447 -178 460 -210 q 411 -134 434 -146 q 397 -188 408 -163 q 369 -230 387 -212 q 327 -258 351 -248 q 273 -269 303 -269 q 228 -261 248 -269 q 192 -238 207 -253 q 169 -203 177 -224 q 160 -158 160 -183 q 172 -102 160 -126 q 204 -63 184 -79 q 250 -39 224 -47 q 302 -31 275 -31 q 314 -32 307 -31 q 327 -33 320 -32 q 339 -34 334 -33 q 348 -36 345 -35 q 392 47 359 14 q 465 97 425 79 l 587 97 q 537 75 563 88 q 489 44 511 62 q 449 0 466 25 q 426 -57 432 -24 q 449 -69 437 -61 q 471 -89 460 -77 q 491 -118 482 -101 q 506 -157 500 -135 q 542 -116 521 -127 q 587 -105 563 -105 q 624 -114 606 -105 q 654 -139 643 -123 l 654 412 q 642 479 654 451 q 609 529 630 507 q 555 564 589 551 q 471 576 522 576 q 389 564 421 576 q 338 534 357 552 q 309 496 319 517 q 296 452 299 476 l 431 452 l 431 348 q 394 340 414 345 q 356 324 374 335 q 327 293 338 313 q 315 243 315 274 l 315 146 q 273 27 315 66 q 171 -11 231 -11 q 114 -3 140 -11 q 68 22 87 5 q 39 62 50 38 q 29 117 29 86 q 62 206 29 174 q 145 243 94 238 q 158 277 149 262 q 183 305 167 292 q 225 329 200 318 q 285 348 250 339 l 127 348 m 210 117 q 194 154 210 139 q 157 170 179 170 q 120 154 136 170 q 105 117 105 139 q 120 80 105 96 q 157 65 136 65 q 194 80 179 65 q 210 117 210 96 z "},"ฐ":{"ha":773,"x_min":29,"x_max":707,"o":"m 218 500 q 272 506 238 503 q 342 509 305 509 q 503 500 436 509 q 612 468 570 492 q 675 398 655 444 q 695 282 695 351 l 695 256 q 684 137 695 186 q 642 54 672 87 q 560 6 612 22 q 425 -9 507 -9 q 290 -2 342 -9 q 208 19 238 6 q 164 50 178 33 q 145 87 151 67 l 138 87 q 99 98 118 90 q 64 122 79 106 q 39 161 48 138 q 29 214 29 184 q 68 308 29 275 q 170 341 106 341 q 274 301 233 341 q 315 194 315 261 l 315 175 q 318 158 315 166 q 330 142 321 149 q 354 131 338 135 q 418 126 370 126 q 486 132 469 126 q 511 151 503 137 q 523 188 520 165 q 526 246 526 211 l 526 274 q 519 330 526 307 q 491 369 512 352 q 440 392 470 386 q 342 397 410 397 q 191 394 261 397 q 63 380 121 390 l 63 473 q 77 573 62 528 q 123 648 92 617 q 204 695 155 679 q 324 711 254 711 q 377 709 347 711 q 441 705 408 707 q 507 701 475 703 q 565 699 540 699 q 647 701 610 699 q 707 706 685 703 l 707 594 q 650 590 683 591 q 570 589 616 589 q 510 591 545 589 q 439 595 475 593 q 373 599 404 597 q 325 601 342 601 q 273 594 292 601 q 240 570 254 588 q 223 536 227 553 q 218 500 218 519 m 210 213 q 194 250 210 235 q 157 265 179 265 q 120 250 136 265 q 105 213 105 235 q 120 176 105 191 q 157 161 136 161 q 194 176 179 161 q 210 213 210 191 m 680 -278 l 578 -278 l 494 -241 l 422 -278 l 362 -278 q 340 -208 353 -233 q 309 -168 327 -182 q 294 -210 305 -190 q 265 -245 283 -230 q 222 -269 248 -260 q 165 -278 197 -278 q 122 -271 142 -278 q 87 -251 102 -264 q 64 -218 72 -237 q 56 -173 56 -198 q 94 -87 56 -118 q 205 -56 133 -56 q 229 -57 215 -56 q 248 -60 242 -58 q 254 -44 250 -52 q 266 -29 258 -37 l 357 -29 q 335 -54 344 -37 q 323 -85 326 -71 q 380 -132 355 -100 q 418 -206 405 -163 l 494 -170 l 595 -214 l 595 -175 l 591 -175 q 561 -169 574 -175 q 536 -153 547 -163 q 520 -128 526 -142 q 514 -98 514 -114 q 519 -69 514 -83 q 535 -45 525 -56 q 561 -28 546 -35 q 596 -22 576 -22 q 658 -44 636 -22 q 680 -101 680 -67 l 680 -278 m 238 -134 q 206 -130 226 -130 q 151 -142 168 -130 q 134 -173 134 -155 q 142 -195 134 -186 q 165 -203 151 -203 q 213 -185 193 -203 q 238 -134 232 -167 m 563 -98 q 571 -117 563 -109 q 591 -125 579 -125 q 610 -117 602 -125 q 618 -98 618 -109 q 610 -78 618 -86 q 591 -70 602 -70 q 571 -78 579 -70 q 563 -98 563 -86 z "},"ฑ":{"ha":1173,"x_min":27,"x_max":1083,"o":"m 523 180 l 811 701 l 953 701 q 1002 694 978 701 q 1043 672 1025 687 q 1072 635 1061 658 q 1083 583 1083 613 l 1083 0 l 914 0 l 914 521 q 905 556 914 545 q 873 568 896 568 l 555 0 l 354 0 l 354 231 q 360 326 354 288 q 380 389 366 363 q 415 434 393 415 q 467 471 437 452 q 464 502 467 485 q 455 536 461 519 q 440 567 450 552 q 408 599 431 581 l 304 484 l 200 592 q 173 555 180 569 q 161 525 166 541 q 155 492 157 509 q 153 460 153 475 q 166 462 157 461 q 182 463 176 463 q 234 453 210 463 q 274 427 257 444 q 300 387 291 410 q 310 334 310 363 q 300 282 310 306 q 274 242 291 258 q 234 216 257 225 q 182 206 210 206 q 117 220 145 206 q 68 260 88 235 q 38 322 48 286 q 27 401 27 358 q 40 514 27 463 q 76 604 54 565 q 129 669 99 642 q 191 711 159 696 l 304 593 l 413 711 q 487 690 448 709 q 562 638 526 671 q 620 563 597 606 q 643 469 643 519 q 586 430 609 450 q 549 383 563 410 q 529 322 535 357 q 523 242 523 288 l 523 180 m 130 334 q 145 297 130 313 q 182 282 160 282 q 219 297 203 282 q 234 334 234 313 q 219 371 234 356 q 182 387 203 387 q 145 371 160 387 q 130 334 130 356 z "},"ฒ":{"ha":1408,"x_min":53,"x_max":1318,"o":"m 701 186 q 659 166 673 180 q 644 123 644 152 q 652 89 644 100 q 671 77 660 77 q 693 89 686 77 q 701 128 701 100 l 701 186 m 638 711 q 720 687 675 706 q 798 635 764 669 q 850 550 831 601 q 869 429 869 499 l 869 289 q 974 268 939 279 q 1041 240 1009 256 q 1102 207 1074 225 q 1149 168 1130 189 l 1149 701 l 1318 701 l 1318 0 l 1142 0 q 1095 60 1123 31 q 1037 111 1067 88 q 971 152 1006 134 q 869 179 935 170 l 869 163 q 826 34 869 79 q 712 -11 782 -11 q 586 24 625 -11 q 546 124 546 60 q 560 186 546 159 q 597 233 574 214 q 647 266 619 253 q 701 283 674 278 l 701 391 q 699 445 701 418 q 689 496 696 472 q 668 542 682 520 q 618 581 654 564 l 473 494 l 312 581 q 259 540 275 561 q 235 500 242 519 q 225 457 228 480 q 222 411 222 433 q 230 347 222 381 q 247 277 238 312 q 264 211 256 243 q 271 155 271 180 l 271 147 q 299 165 285 155 q 325 185 313 174 q 348 206 338 195 q 362 228 357 217 q 312 273 330 243 q 294 343 294 302 q 303 395 294 372 q 330 436 313 419 q 370 462 347 452 q 422 471 393 471 q 474 462 450 471 q 514 435 497 452 q 541 392 532 417 q 551 338 551 368 q 537 271 551 304 q 502 205 524 237 q 451 144 479 174 q 391 87 422 114 q 329 39 359 61 q 271 0 298 17 l 102 0 l 102 141 q 94 214 102 176 q 78 291 87 252 q 61 371 68 331 q 53 452 53 412 q 75 559 53 514 q 133 636 98 605 q 213 685 169 667 q 302 708 258 702 l 473 614 l 638 711 m 474 343 q 459 380 474 365 q 422 395 444 395 q 385 380 400 395 q 370 343 370 365 q 385 306 370 321 q 422 291 400 291 q 459 306 444 291 q 474 343 474 321 z "},"ณ":{"ha":1415,"x_min":63,"x_max":1370,"o":"m 1202 128 q 1211 89 1202 100 q 1238 77 1220 77 q 1262 89 1253 77 q 1272 123 1272 100 q 1202 189 1272 181 l 1202 128 m 81 174 q 90 232 81 204 q 116 282 99 259 q 160 322 134 305 q 221 348 186 339 l 63 348 l 63 450 q 97 558 71 509 q 166 640 123 606 q 271 693 210 674 q 411 711 332 711 q 559 690 492 711 q 669 631 626 669 q 733 541 713 593 q 753 428 753 489 l 753 168 q 801 208 773 189 q 861 243 829 227 q 931 271 893 259 q 1033 289 968 283 l 1033 701 l 1202 701 l 1202 290 q 1267 277 1236 288 q 1320 247 1297 266 q 1357 200 1343 228 q 1370 134 1370 172 q 1326 26 1370 62 q 1192 -11 1283 -11 q 1076 34 1119 -11 q 1033 163 1033 79 l 1033 186 q 937 163 975 182 q 867 118 899 144 q 807 62 835 92 q 760 0 779 31 l 584 0 l 584 412 q 538 533 584 489 q 411 576 492 576 q 330 564 363 576 q 277 534 296 552 q 246 496 257 517 q 232 452 235 476 l 367 452 l 367 348 q 331 340 351 345 q 293 324 311 335 q 263 293 275 313 q 251 243 251 274 l 256 243 q 300 230 280 240 q 335 203 320 220 q 358 165 350 187 q 367 117 367 144 q 357 62 367 86 q 328 22 347 38 q 283 -3 309 5 q 225 -11 257 -11 q 123 27 165 -11 q 81 146 81 66 l 81 174 m 186 117 q 202 80 186 96 q 239 65 217 65 q 276 80 260 65 q 291 117 291 96 q 276 154 291 139 q 239 170 260 170 q 202 154 217 170 q 186 117 186 139 z "},"ด":{"ha":881,"x_min":53,"x_max":800,"o":"m 271 130 q 319 168 300 150 q 349 208 339 186 q 299 253 317 223 q 281 323 281 283 q 290 376 281 352 q 317 416 300 399 q 357 442 334 433 q 409 452 380 452 q 461 442 437 452 q 502 415 484 433 q 528 373 519 397 q 538 318 538 348 q 525 247 538 280 q 492 183 513 213 q 444 127 471 153 q 388 78 417 101 q 328 36 358 56 q 271 0 298 17 l 102 0 l 102 132 q 94 217 102 178 q 78 294 87 256 q 61 370 68 332 q 53 452 53 408 q 80 563 53 515 q 155 645 106 612 q 273 694 204 677 q 426 711 342 711 q 583 694 513 711 q 700 641 652 676 q 774 552 749 606 q 800 428 800 499 l 800 0 l 631 0 l 631 414 q 622 471 631 444 q 594 520 613 498 q 536 559 575 543 q 426 576 497 576 q 319 560 358 576 q 262 523 281 544 q 233 477 243 502 q 222 424 222 452 q 230 349 222 385 q 247 278 238 313 q 264 209 256 243 q 271 138 271 174 l 271 130 m 461 323 q 446 360 461 345 q 409 376 431 376 q 372 360 387 376 q 357 323 357 345 q 372 287 357 302 q 409 271 387 271 q 446 287 431 271 q 461 323 461 302 z "},"ต":{"ha":881,"x_min":53,"x_max":800,"o":"m 271 130 q 319 168 300 150 q 349 208 339 186 q 299 253 317 223 q 281 323 281 283 q 290 376 281 352 q 317 416 300 399 q 357 442 334 433 q 409 452 380 452 q 461 442 437 452 q 502 415 484 433 q 528 373 519 397 q 538 318 538 348 q 525 247 538 280 q 492 183 513 213 q 444 127 471 153 q 388 78 417 101 q 328 36 358 56 q 271 0 298 17 l 102 0 l 102 141 q 94 214 102 176 q 78 291 87 252 q 61 371 68 331 q 53 452 53 412 q 75 559 53 514 q 133 636 98 605 q 213 685 169 667 q 302 708 258 702 l 428 610 l 545 707 q 640 683 594 701 q 722 632 686 665 q 778 549 757 599 q 800 429 800 499 l 800 0 l 631 0 l 631 391 q 629 443 631 418 q 619 490 627 469 q 593 533 612 512 q 538 571 575 554 l 428 479 l 315 571 q 263 536 283 557 q 236 496 243 516 q 225 455 228 477 q 222 411 222 433 q 230 346 222 381 q 247 275 238 311 q 264 204 256 239 q 271 138 271 169 l 271 130 m 461 323 q 446 360 461 345 q 409 376 431 376 q 372 360 387 376 q 357 323 357 345 q 372 287 357 302 q 409 271 387 271 q 446 287 431 271 q 461 323 461 302 z "},"ถ":{"ha":861,"x_min":63,"x_max":779,"o":"m 256 243 q 300 230 280 240 q 335 203 320 220 q 358 165 350 187 q 367 117 367 144 q 357 62 367 86 q 328 22 347 38 q 283 -3 309 5 q 225 -11 257 -11 q 123 27 165 -11 q 81 146 81 66 l 81 174 q 90 232 81 204 q 116 282 99 259 q 160 322 134 305 q 221 348 186 339 l 63 348 l 63 450 q 98 558 71 509 q 170 640 125 606 q 277 693 214 674 q 418 711 339 711 q 579 690 511 711 q 692 631 648 669 q 758 541 736 593 q 779 428 779 489 l 779 0 l 610 0 l 610 412 q 598 479 610 451 q 565 529 586 507 q 509 564 543 551 q 418 576 475 576 q 327 564 361 576 q 276 534 293 551 q 247 496 259 517 q 232 452 235 476 l 367 452 l 367 348 q 331 340 351 345 q 293 324 311 335 q 263 293 275 313 q 251 243 251 274 l 256 243 m 186 117 q 202 80 186 96 q 239 65 217 65 q 276 80 260 65 q 291 117 291 96 q 276 154 291 139 q 239 170 260 170 q 202 154 217 170 q 186 117 186 139 z "},"ท":{"ha":970,"x_min":29,"x_max":880,"o":"m 145 0 l 145 457 l 140 458 q 96 471 117 460 q 61 497 76 481 q 38 535 46 513 q 29 583 29 557 q 39 639 29 615 q 68 679 50 663 q 114 703 87 695 q 171 711 140 711 q 273 673 231 711 q 315 555 315 635 l 315 195 l 608 701 l 750 701 q 799 694 776 701 q 841 672 823 687 q 869 635 859 658 q 880 583 880 613 l 880 0 l 711 0 l 711 528 q 702 556 711 545 q 669 568 693 568 l 335 0 l 145 0 m 210 583 q 194 620 210 605 q 157 635 179 635 q 120 620 136 635 q 105 583 105 605 q 120 546 105 562 q 157 531 136 531 q 194 546 179 531 q 210 583 210 562 z "},"ธ":{"ha":783,"x_min":81,"x_max":726,"o":"m 714 193 q 700 111 714 146 q 659 50 685 75 q 595 13 632 25 q 515 0 559 0 l 88 0 l 88 315 l 257 315 l 257 135 l 450 135 q 523 160 500 135 q 545 226 545 186 l 545 275 q 538 330 545 308 q 510 370 531 353 q 457 393 488 387 q 361 399 426 399 q 210 395 280 399 q 82 382 140 391 l 82 473 q 96 573 81 528 q 142 648 111 617 q 223 695 174 679 q 343 711 273 711 q 396 709 366 711 q 460 705 427 707 q 526 701 494 703 q 584 699 559 699 q 666 701 629 699 q 726 706 704 703 l 726 594 q 669 590 702 591 q 589 589 635 589 q 529 591 564 589 q 458 595 494 593 q 392 599 422 597 q 344 601 361 601 q 259 572 281 601 q 237 500 237 543 q 284 505 257 503 q 361 507 311 507 q 522 499 455 507 q 631 467 589 490 q 694 403 674 443 q 714 294 714 363 l 714 193 z "},"น":{"ha":972,"x_min":29,"x_max":943,"o":"m 315 168 q 361 208 334 189 q 420 242 388 228 q 494 270 453 257 q 606 289 535 283 l 606 701 l 775 701 l 775 290 q 840 277 810 288 q 894 247 871 266 q 930 200 917 228 q 943 134 943 172 q 900 26 943 62 q 766 -11 857 -11 q 649 34 692 -11 q 606 163 606 79 l 606 186 q 502 161 546 180 q 426 117 458 142 q 367 62 394 93 q 321 0 340 31 l 145 0 l 145 457 l 140 458 q 96 471 117 460 q 61 497 76 481 q 38 535 46 513 q 29 583 29 557 q 39 639 29 615 q 68 679 50 663 q 114 703 87 695 q 171 711 140 711 q 273 673 231 711 q 315 555 315 635 l 315 168 m 775 128 q 784 89 775 100 q 811 77 793 77 q 836 89 826 77 q 845 123 845 100 q 775 189 845 181 l 775 128 m 210 583 q 194 620 210 605 q 157 635 179 635 q 120 620 136 635 q 105 583 105 605 q 120 546 105 562 q 157 531 136 531 q 194 546 179 531 q 210 583 210 562 z "},"บ":{"ha":849,"x_min":29,"x_max":759,"o":"m 145 0 l 145 457 l 140 458 q 96 471 117 460 q 61 497 76 481 q 38 535 46 513 q 29 583 29 557 q 39 639 29 615 q 68 679 50 663 q 114 703 87 695 q 171 711 140 711 q 273 673 231 711 q 315 555 315 635 l 315 135 l 496 135 q 565 157 540 135 q 590 223 590 179 l 590 701 l 759 701 l 759 195 q 746 116 759 152 q 708 54 733 80 q 645 14 682 28 q 558 0 607 0 l 145 0 m 210 583 q 194 620 210 605 q 157 635 179 635 q 120 620 136 635 q 105 583 105 605 q 120 546 105 562 q 157 531 136 531 q 194 546 179 531 q 210 583 210 562 z "},"ป":{"ha":849,"x_min":29,"x_max":759,"o":"m 145 0 l 145 457 l 140 458 q 96 471 117 460 q 61 497 76 481 q 38 535 46 513 q 29 583 29 557 q 39 639 29 615 q 68 679 50 663 q 114 703 87 695 q 171 711 140 711 q 273 673 231 711 q 315 555 315 635 l 315 135 l 496 135 q 565 157 540 135 q 590 223 590 179 l 590 972 l 759 972 l 759 195 q 746 116 759 152 q 708 54 733 80 q 645 14 682 28 q 558 0 607 0 l 145 0 m 210 583 q 194 620 210 605 q 157 635 179 635 q 120 620 136 635 q 105 583 105 605 q 120 546 105 562 q 157 531 136 531 q 194 546 179 531 q 210 583 210 562 z "},"ผ":{"ha":947,"x_min":90,"x_max":857,"o":"m 467 410 l 688 162 l 688 701 l 857 701 l 857 0 l 699 0 l 467 253 l 250 0 l 90 0 l 90 555 q 132 673 90 635 q 234 711 174 711 q 292 703 266 711 q 336 679 317 695 q 366 639 355 663 q 376 583 376 615 q 367 535 376 557 q 344 497 359 513 q 309 471 329 481 q 265 458 289 460 l 260 457 l 260 162 l 467 410 m 195 583 q 211 546 195 562 q 248 531 226 531 q 284 546 269 531 q 300 583 300 562 q 284 620 300 605 q 248 635 269 635 q 211 620 226 635 q 195 583 195 605 z "},"ฝ":{"ha":947,"x_min":90,"x_max":857,"o":"m 467 410 l 688 165 l 688 972 l 857 972 l 857 0 l 699 0 l 467 253 l 250 0 l 90 0 l 90 555 q 132 673 90 635 q 234 711 174 711 q 292 703 266 711 q 336 679 317 695 q 366 639 355 663 q 376 583 376 615 q 367 535 376 557 q 344 497 359 513 q 309 471 329 481 q 265 458 289 460 l 260 457 l 260 165 l 467 410 m 195 583 q 211 546 195 562 q 248 531 226 531 q 284 546 269 531 q 300 583 300 562 q 284 620 300 605 q 248 635 269 635 q 211 620 226 635 q 195 583 195 605 z "},"พ":{"ha":1074,"x_min":29,"x_max":984,"o":"m 145 0 l 145 457 l 140 458 q 96 471 117 460 q 61 497 76 481 q 38 535 46 513 q 29 583 29 557 q 39 639 29 615 q 68 679 50 663 q 114 703 87 695 q 171 711 140 711 q 273 673 231 711 q 315 555 315 635 l 315 142 q 325 183 319 160 q 336 228 330 205 q 349 269 342 250 q 359 296 356 288 l 520 694 l 612 694 l 770 296 q 781 269 774 288 q 794 227 788 250 q 806 182 800 205 q 815 142 811 159 l 815 701 l 984 701 l 984 0 l 772 0 l 612 387 q 596 429 606 404 q 580 478 587 454 q 565 536 572 506 q 550 477 557 506 q 533 428 543 453 q 518 386 524 402 l 357 0 l 145 0 m 210 583 q 194 620 210 605 q 157 635 179 635 q 120 620 136 635 q 105 583 105 605 q 120 546 105 562 q 157 531 136 531 q 194 546 179 531 q 210 583 210 562 z "},"ฟ":{"ha":1074,"x_min":29,"x_max":984,"o":"m 145 0 l 145 457 l 140 458 q 96 471 117 460 q 61 497 76 481 q 38 535 46 513 q 29 583 29 557 q 39 639 29 615 q 68 679 50 663 q 114 703 87 695 q 171 711 140 711 q 273 673 231 711 q 315 555 315 635 l 315 142 q 325 183 319 160 q 336 228 330 205 q 349 269 342 250 q 359 296 356 288 l 520 694 l 612 694 l 770 296 q 781 269 774 288 q 794 227 788 250 q 806 182 800 205 q 815 142 811 159 l 815 972 l 984 972 l 984 0 l 772 0 l 612 387 q 596 429 606 404 q 580 478 587 454 q 565 536 572 506 q 550 477 557 506 q 533 428 543 453 q 518 386 524 402 l 357 0 l 145 0 m 210 583 q 194 620 210 605 q 157 635 179 635 q 120 620 136 635 q 105 583 105 605 q 120 546 105 562 q 157 531 136 531 q 194 546 179 531 q 210 583 210 562 z "},"ภ":{"ha":909,"x_min":29,"x_max":819,"o":"m 145 243 q 157 277 149 262 q 181 305 165 292 q 221 329 197 318 q 281 348 245 339 l 123 348 l 123 450 q 157 558 131 509 q 227 640 183 606 q 331 693 271 674 q 467 711 391 711 q 624 690 558 711 q 734 631 690 669 q 798 541 777 593 q 819 428 819 489 l 819 0 l 650 0 l 650 412 q 638 479 650 451 q 607 528 626 507 q 554 563 588 549 q 467 576 519 576 q 384 564 417 576 q 334 534 351 551 q 306 496 317 517 q 292 452 295 476 l 427 452 l 427 348 q 391 340 410 345 q 354 324 371 335 q 326 293 338 313 q 315 243 315 274 l 315 146 q 275 30 315 70 q 171 -11 235 -11 q 114 -3 140 -11 q 68 22 87 5 q 39 62 50 38 q 29 117 29 86 q 38 168 29 145 q 63 206 47 190 q 100 232 79 222 q 145 243 121 241 m 210 117 q 194 154 210 139 q 157 170 179 170 q 120 154 136 170 q 105 117 105 139 q 120 80 105 96 q 157 65 136 65 q 194 80 179 65 q 210 117 210 96 z "},"ม":{"ha":917,"x_min":29,"x_max":827,"o":"m 651 0 q 604 60 632 31 q 544 115 576 89 q 455 162 511 140 q 366 186 400 184 l 366 163 q 323 34 366 79 q 207 -11 280 -11 q 73 26 116 -11 q 29 134 29 62 q 42 200 29 172 q 79 247 56 228 q 132 277 102 266 q 197 290 163 288 l 197 457 l 191 458 q 148 471 168 460 q 113 497 127 481 q 89 535 98 513 q 81 583 81 557 q 91 639 81 615 q 120 679 101 663 q 165 703 139 695 q 222 711 191 711 q 324 673 282 711 q 366 555 366 635 l 366 289 q 459 271 403 287 q 549 240 516 256 q 611 206 583 224 q 658 168 639 189 l 658 701 l 827 701 l 827 0 l 651 0 m 261 583 q 246 620 261 605 q 209 635 231 635 q 172 620 187 635 q 157 583 157 605 q 172 546 157 562 q 209 531 187 531 q 246 546 231 531 q 261 583 261 562 m 197 189 q 127 123 127 181 q 137 89 127 100 q 161 77 146 77 q 188 89 179 77 q 197 128 197 100 l 197 189 z "},"ย":{"ha":833,"x_min":90,"x_max":743,"o":"m 195 583 q 211 546 195 562 q 248 531 226 531 q 284 546 269 531 q 300 583 300 562 q 284 620 300 605 q 248 635 269 635 q 211 620 226 635 q 195 583 195 605 m 90 0 l 90 199 q 99 253 90 231 q 122 292 108 276 q 154 316 136 307 q 189 330 172 326 q 154 345 172 335 q 122 370 136 354 q 99 408 108 385 q 90 463 90 431 l 90 555 q 132 673 90 635 q 234 711 174 711 q 292 703 266 711 q 336 679 317 695 q 366 639 355 663 q 376 583 376 615 q 367 535 376 557 q 344 497 359 513 q 309 471 329 481 q 265 458 289 460 l 260 457 q 272 417 260 433 q 301 393 284 402 q 338 379 319 384 q 371 372 357 374 l 371 290 q 338 282 357 287 q 301 269 319 278 q 271 242 283 259 q 259 197 259 225 l 259 136 l 481 136 q 549 157 524 135 q 574 223 574 179 l 574 701 l 743 701 l 743 195 q 730 116 743 152 q 692 54 718 80 q 629 14 667 28 q 543 0 591 0 l 90 0 z "},"ร":{"ha":716,"x_min":45,"x_max":689,"o":"m 441 281 q 434 320 441 302 q 410 351 427 337 q 363 371 393 364 q 264 378 334 378 q 154 375 205 378 q 45 361 102 371 l 45 459 q 59 568 45 521 q 105 647 74 615 q 187 695 137 679 q 307 711 237 711 q 360 709 329 711 q 424 705 391 707 q 490 701 457 703 q 547 699 522 699 q 630 701 592 699 q 689 706 667 703 l 689 587 q 632 583 665 584 q 552 582 599 582 q 492 584 528 582 q 421 588 457 586 q 355 592 386 590 q 307 594 324 594 q 245 588 260 594 q 219 570 229 581 q 205 543 210 558 q 201 487 201 527 q 247 492 220 490 q 324 494 274 494 q 454 483 399 494 q 543 448 508 473 q 593 381 577 423 q 610 276 610 339 l 610 146 q 570 30 610 70 q 466 -11 530 -11 q 409 -3 435 -11 q 363 22 382 5 q 334 62 345 38 q 324 117 324 86 q 333 168 324 145 q 358 206 342 190 q 395 232 374 222 q 441 243 416 241 l 441 281 m 505 117 q 489 154 505 139 q 452 170 474 170 q 415 154 431 170 q 400 117 400 139 q 415 80 400 96 q 452 65 431 65 q 489 80 474 65 q 505 117 505 96 z "},"ฤ":{"ha":861,"x_min":63,"x_max":779,"o":"m 256 243 q 300 230 280 240 q 335 203 320 220 q 358 165 350 187 q 367 117 367 144 q 357 62 367 86 q 328 22 347 38 q 283 -3 309 5 q 225 -11 257 -11 q 123 27 165 -11 q 81 146 81 66 l 81 174 q 90 232 81 204 q 116 282 99 259 q 160 322 134 305 q 221 348 186 339 l 63 348 l 63 450 q 98 558 71 509 q 170 640 125 606 q 277 693 214 674 q 418 711 339 711 q 579 690 511 711 q 692 631 648 669 q 758 541 736 593 q 779 428 779 489 l 779 -278 l 610 -278 l 610 412 q 599 481 610 451 q 561 534 588 511 q 495 567 534 558 q 418 576 455 576 q 336 566 370 576 q 280 537 302 555 q 246 497 257 518 q 232 452 235 476 l 367 452 l 367 348 q 331 340 351 345 q 293 324 311 335 q 263 293 275 313 q 251 243 251 274 l 256 243 m 186 117 q 202 80 186 96 q 239 65 217 65 q 276 80 260 65 q 291 117 291 96 q 276 154 291 139 q 239 170 260 170 q 202 154 217 170 q 186 117 186 139 z "},"ล":{"ha":867,"x_min":81,"x_max":777,"o":"m 251 243 l 256 243 q 300 230 280 240 q 335 203 320 220 q 358 165 350 187 q 367 117 367 144 q 357 62 367 86 q 328 22 347 38 q 283 -3 309 5 q 225 -11 257 -11 q 123 27 165 -11 q 81 146 81 66 l 81 237 q 147 391 81 336 q 343 446 212 446 q 448 435 403 446 q 522 407 492 424 q 573 367 552 390 q 606 317 593 343 l 608 317 l 608 426 q 594 494 608 465 q 556 541 581 522 q 497 567 532 559 q 396 576 463 576 q 312 569 356 576 q 227 551 269 563 q 147 524 184 540 q 81 491 109 509 l 81 647 q 144 676 109 664 q 220 696 180 688 q 305 708 260 704 q 396 711 349 711 q 681 639 585 711 q 777 428 777 567 l 777 0 l 607 0 l 607 140 q 594 212 607 178 q 556 273 581 245 q 488 319 530 300 q 382 338 445 338 q 281 312 311 338 q 251 253 251 286 l 251 243 m 186 117 q 202 80 186 96 q 239 65 217 65 q 276 80 260 65 q 291 117 291 96 q 276 154 291 139 q 239 170 260 170 q 202 154 217 170 q 186 117 186 139 z "},"ฦ":{"ha":900,"x_min":29,"x_max":819,"o":"m 145 243 q 157 277 149 262 q 181 305 165 292 q 221 329 197 318 q 281 348 245 339 l 123 348 l 123 450 q 157 558 131 509 q 227 640 183 606 q 331 693 271 674 q 467 711 391 711 q 624 690 558 711 q 734 631 690 669 q 798 541 777 593 q 819 428 819 489 l 819 -278 l 650 -278 l 650 412 q 638 479 650 451 q 605 529 626 507 q 552 564 585 551 q 467 576 519 576 q 386 565 416 576 q 336 535 355 553 q 306 496 317 517 q 292 452 295 476 l 427 452 l 427 348 q 391 340 410 345 q 354 324 371 335 q 326 293 338 313 q 315 243 315 274 l 315 146 q 275 30 315 70 q 171 -11 235 -11 q 114 -3 140 -11 q 68 22 87 5 q 39 62 50 38 q 29 117 29 86 q 38 168 29 145 q 63 206 47 190 q 100 232 79 222 q 145 243 121 241 m 210 117 q 194 154 210 139 q 157 170 179 170 q 120 154 136 170 q 105 117 105 139 q 120 80 105 96 q 157 65 136 65 q 194 80 179 65 q 210 117 210 96 z "},"ว":{"ha":736,"x_min":27,"x_max":654,"o":"m 486 419 q 440 537 486 498 q 302 576 395 576 q 230 569 268 576 q 154 551 191 563 q 84 524 117 540 q 27 491 52 509 l 27 647 q 82 676 50 664 q 150 696 113 688 q 225 708 186 704 q 302 711 264 711 q 568 639 481 711 q 654 428 654 566 l 654 146 q 614 30 654 70 q 511 -11 574 -11 q 453 -3 479 -11 q 408 22 427 5 q 379 62 389 38 q 369 117 369 86 q 378 168 369 145 q 403 206 387 190 q 440 232 419 222 q 486 243 461 241 l 486 419 m 549 117 q 534 154 549 139 q 497 170 519 170 q 460 154 475 170 q 445 117 445 139 q 460 80 445 96 q 497 65 475 65 q 534 80 519 65 q 549 117 549 96 z "},"ศ":{"ha":881,"x_min":53,"x_max":804,"o":"m 245 280 q 272 331 254 309 q 311 370 289 354 q 357 395 332 387 q 407 404 382 404 q 461 394 437 404 q 504 367 486 385 q 531 327 522 350 q 541 275 541 303 q 531 223 541 246 q 505 182 522 199 q 465 156 488 165 q 412 146 441 146 q 342 165 372 146 q 297 215 312 183 q 286 193 291 207 q 278 162 281 180 q 273 126 275 145 q 271 87 271 106 l 271 0 l 102 0 l 102 174 q 93 238 101 207 q 77 302 85 269 q 60 372 68 335 q 53 452 53 408 q 80 563 53 515 q 155 645 106 612 q 273 694 204 677 q 426 711 342 711 q 515 706 471 711 q 593 691 559 700 q 604 706 597 697 q 616 726 610 715 q 629 748 623 737 q 639 770 635 760 l 804 770 q 788 730 799 751 q 764 691 777 709 q 738 656 751 672 q 712 631 724 641 q 778 543 757 596 q 800 428 800 490 l 800 0 l 631 0 l 631 412 q 629 439 631 425 q 623 466 627 453 q 610 492 618 479 q 581 522 602 506 q 556 504 566 511 q 534 490 547 498 q 508 474 522 482 q 483 460 494 467 l 333 460 q 365 484 347 471 q 400 510 382 496 q 434 536 418 523 q 475 572 450 549 q 444 575 454 575 q 426 576 434 576 q 322 560 361 576 q 263 525 283 544 q 233 480 243 505 q 222 426 222 455 q 224 390 222 410 q 230 351 227 371 q 237 313 233 332 q 245 280 241 294 m 412 327 q 375 312 391 327 q 360 275 360 296 q 375 238 360 253 q 412 222 391 222 q 449 238 434 222 q 465 275 465 253 q 449 312 465 296 q 412 327 434 327 z "},"ษ":{"ha":954,"x_min":29,"x_max":926,"o":"m 634 373 q 645 377 640 375 q 658 383 651 380 l 658 701 l 827 701 l 827 493 q 883 548 857 519 q 926 608 909 577 l 926 461 q 892 424 918 450 q 827 369 867 399 l 827 195 q 814 116 827 152 q 775 54 801 80 q 712 14 750 28 q 626 0 675 0 l 145 0 l 145 457 l 140 458 q 96 471 117 460 q 61 497 76 481 q 38 535 46 513 q 29 583 29 557 q 39 639 29 615 q 68 679 50 663 q 114 703 87 695 q 171 711 140 711 q 273 673 231 711 q 315 555 315 635 l 315 135 l 564 135 q 633 157 608 135 q 658 223 658 179 l 658 288 q 545 272 603 272 q 472 283 503 272 q 422 314 441 295 q 392 357 402 333 q 382 406 382 381 q 392 461 382 436 q 419 503 401 486 q 459 530 436 521 q 511 540 483 540 q 563 530 540 540 q 604 504 587 521 q 630 464 621 488 q 640 412 640 440 q 638 390 640 402 q 634 373 636 378 m 210 583 q 194 620 210 605 q 157 635 179 635 q 120 620 136 635 q 105 583 105 605 q 120 546 105 562 q 157 531 136 531 q 194 546 179 531 q 210 583 210 562 m 459 412 q 474 375 459 390 q 511 359 490 359 q 548 375 533 359 q 564 412 564 390 q 548 449 564 433 q 511 464 533 464 q 474 449 490 464 q 459 412 459 433 z "},"ส":{"ha":867,"x_min":81,"x_max":804,"o":"m 251 243 l 256 243 q 300 230 280 240 q 335 203 320 220 q 358 165 350 187 q 367 117 367 144 q 357 62 367 86 q 328 22 347 38 q 283 -3 309 5 q 225 -11 257 -11 q 123 27 165 -11 q 81 146 81 66 l 81 237 q 147 391 81 336 q 343 446 212 446 q 452 434 412 446 q 522 406 492 423 q 573 365 552 389 q 606 315 593 340 l 608 315 l 608 422 q 589 494 608 465 q 554 530 570 522 q 534 518 543 523 q 516 508 526 513 q 496 497 506 503 q 479 489 487 492 l 334 489 q 361 505 345 495 q 395 527 378 515 q 429 549 412 538 q 457 569 446 560 q 446 572 453 570 q 430 574 438 573 q 412 575 421 575 q 396 576 403 576 q 312 569 356 576 q 227 551 269 563 q 147 524 184 540 q 81 491 109 509 l 81 647 q 144 676 109 664 q 220 696 180 688 q 305 708 260 704 q 396 711 349 711 q 445 710 420 711 q 495 705 470 708 q 542 697 519 702 q 581 687 564 693 q 598 706 589 694 q 614 728 606 717 q 629 751 623 740 q 639 770 635 762 l 804 770 q 759 686 785 722 q 700 623 733 651 q 756 542 736 591 q 777 428 777 494 l 777 0 l 608 0 l 608 125 q 595 203 608 167 q 557 268 583 239 q 486 317 531 297 q 391 337 441 337 q 283 311 315 337 q 251 253 251 286 l 251 243 m 186 117 q 202 80 186 96 q 239 65 217 65 q 276 80 260 65 q 291 117 291 96 q 276 154 291 139 q 239 170 260 170 q 202 154 217 170 q 186 117 186 139 z "},"ห":{"ha":940,"x_min":29,"x_max":855,"o":"m 711 590 q 707 610 711 602 q 697 624 703 618 q 684 632 691 629 q 669 634 676 634 q 639 624 653 634 q 625 593 625 614 q 640 557 625 574 q 671 534 654 541 q 685 543 677 538 q 698 556 692 549 q 708 571 704 563 q 711 590 711 580 m 145 0 l 145 457 l 140 458 q 96 471 117 460 q 61 497 76 481 q 38 535 46 513 q 29 583 29 557 q 39 639 29 615 q 68 679 50 663 q 114 703 87 695 q 171 711 140 711 q 273 673 231 711 q 315 555 315 635 l 315 233 q 387 308 349 271 q 455 371 425 345 q 519 422 486 397 q 591 475 553 448 q 569 497 581 484 q 547 526 557 510 q 530 559 536 541 q 524 597 524 577 q 564 681 524 650 q 669 711 604 711 q 737 704 706 711 q 791 681 768 696 q 826 645 814 667 q 839 596 839 624 q 833 562 839 578 q 819 532 828 546 q 799 507 810 518 q 776 485 788 495 q 815 454 800 472 q 839 414 830 436 q 851 367 848 393 q 855 314 855 342 l 855 0 l 686 0 l 686 310 q 683 366 686 342 q 661 410 680 389 q 600 362 636 392 q 530 301 564 332 q 462 236 496 270 q 388 152 428 201 q 332 69 349 102 q 315 9 315 36 l 315 0 l 145 0 m 210 583 q 194 620 210 605 q 157 635 179 635 q 120 620 136 635 q 105 583 105 605 q 120 546 105 562 q 157 531 136 531 q 194 546 179 531 q 210 583 210 562 z "},"ฬ":{"ha":1105,"x_min":29,"x_max":1099,"o":"m 808 617 q 765 629 785 619 q 730 656 745 640 q 706 694 715 672 q 698 743 698 716 q 708 798 698 774 q 737 838 718 822 q 782 863 756 854 q 840 871 808 871 q 915 843 880 871 q 965 770 949 816 q 1000 801 982 784 q 1036 837 1018 819 q 1069 876 1053 856 q 1099 915 1086 896 l 1099 753 q 1043 704 1073 726 q 983 665 1013 682 l 983 0 l 772 0 l 610 414 q 597 451 605 430 q 582 496 589 472 q 570 537 574 519 q 565 556 566 554 q 560 536 564 554 q 548 495 555 519 q 533 450 541 471 q 519 413 525 429 l 357 0 l 145 0 l 145 457 l 140 458 q 96 471 117 460 q 61 497 76 481 q 38 535 46 513 q 29 583 29 557 q 39 639 29 615 q 68 679 50 663 q 114 703 87 695 q 171 711 140 711 q 273 673 231 711 q 315 555 315 635 l 315 142 q 324 179 319 160 q 336 218 330 199 q 345 248 342 238 q 356 276 349 257 l 520 694 l 612 694 l 774 283 q 783 260 777 275 q 794 224 788 245 q 806 185 800 203 q 815 149 811 167 l 815 616 l 808 617 m 878 743 q 863 780 878 764 q 826 795 848 795 q 789 780 804 795 q 774 743 774 764 q 789 706 774 721 q 826 690 804 690 q 863 706 848 690 q 878 743 878 721 m 210 583 q 194 620 210 605 q 157 635 179 635 q 120 620 136 635 q 105 583 105 605 q 120 546 105 562 q 157 531 136 531 q 194 546 179 531 q 210 583 210 562 z "},"อ":{"ha":817,"x_min":47,"x_max":743,"o":"m 81 281 q 124 399 81 361 q 225 437 166 437 q 283 429 257 437 q 328 405 309 421 q 357 365 347 389 q 367 309 367 341 q 358 261 367 283 q 335 222 350 239 q 299 196 319 206 q 256 183 279 186 l 251 182 q 287 142 252 157 q 401 126 321 126 q 480 135 451 126 q 529 160 509 144 q 561 204 549 176 q 574 270 574 233 l 574 405 q 558 488 574 456 q 517 538 542 519 q 454 566 493 556 q 362 576 416 576 q 278 569 322 576 q 193 551 235 563 q 113 524 151 540 q 47 491 75 509 l 47 647 q 111 676 75 664 q 186 696 146 688 q 271 708 227 704 q 362 711 315 711 q 647 639 551 711 q 743 428 743 567 l 743 274 q 724 151 743 203 q 664 62 705 98 q 558 8 623 26 q 401 -9 494 -9 q 247 7 309 -9 q 149 53 185 24 q 97 121 112 81 q 81 206 81 161 l 81 281 m 186 309 q 202 272 186 288 q 239 257 217 257 q 276 272 260 257 q 291 309 291 288 q 276 346 291 331 q 239 361 260 361 q 202 346 217 361 q 186 309 186 331 z "},"ฮ":{"ha":819,"x_min":64,"x_max":789,"o":"m 172 309 q 187 272 172 288 q 224 257 202 257 q 261 272 245 257 q 276 309 276 288 q 261 346 276 331 q 224 361 245 361 q 187 346 202 361 q 172 309 172 331 m 370 623 q 257 612 291 623 q 223 586 223 602 q 253 560 223 570 q 357 551 283 551 q 473 556 434 551 q 539 568 512 562 q 486 606 528 589 q 370 623 444 623 m 559 425 q 558 440 559 432 q 558 456 558 448 q 557 470 557 463 q 556 479 557 476 q 480 464 525 469 q 357 459 435 459 q 138 491 212 459 q 64 586 64 522 q 140 680 64 648 q 374 711 216 711 q 494 705 443 711 q 582 686 545 699 q 644 655 618 673 q 686 613 669 637 q 739 653 712 630 q 789 702 766 677 l 789 576 q 755 547 770 558 q 720 523 741 535 q 724 502 722 514 q 726 477 725 490 q 727 449 727 463 q 728 421 728 435 l 728 267 q 709 145 728 197 q 649 59 690 93 q 544 7 608 24 q 387 -9 479 -9 q 232 7 294 -9 q 134 53 170 24 q 82 121 97 81 q 66 206 66 161 l 66 281 q 109 399 66 361 q 210 437 151 437 q 268 429 242 437 q 313 405 294 421 q 342 365 332 389 q 352 309 352 341 q 343 261 352 283 q 320 222 335 239 q 284 196 304 206 q 241 183 264 186 l 236 182 q 274 141 237 157 q 387 126 312 126 q 465 133 435 126 q 516 156 496 140 q 547 197 536 171 q 559 260 559 222 l 559 425 z "},"ฯ":{"ha":785,"x_min":29,"x_max":694,"o":"m 694 701 l 694 0 l 526 0 l 526 524 l 523 524 q 474 455 504 490 q 408 390 445 419 q 324 341 371 360 q 216 322 277 322 q 78 369 127 322 q 29 496 29 415 q 44 570 29 540 q 84 619 60 600 q 140 647 109 638 q 202 656 171 656 q 267 644 239 656 l 267 535 q 237 546 254 541 q 202 551 220 551 q 161 537 178 551 q 144 496 144 523 q 164 452 144 469 q 230 434 184 434 q 332 459 286 434 q 416 522 379 484 q 480 608 452 561 q 524 701 507 656 l 694 701 z "},"ะ":{"ha":524,"x_min":32,"x_max":492,"o":"m 213 536 q 198 573 213 558 q 161 589 182 589 q 124 573 139 589 q 109 536 109 558 q 124 499 109 515 q 161 484 139 484 q 198 499 182 484 q 213 536 213 515 m 281 498 q 397 574 343 522 q 492 692 450 626 l 492 553 q 442 499 473 526 q 372 449 411 471 q 287 411 332 426 q 195 397 242 397 q 123 407 154 397 q 73 436 93 418 q 42 479 52 454 q 32 532 32 504 q 42 584 32 559 q 70 626 52 608 q 110 654 87 644 q 160 665 134 665 q 210 654 186 665 q 251 627 234 644 q 279 586 269 610 q 289 536 289 563 q 286 513 289 526 q 281 498 283 501 m 213 216 q 198 253 213 237 q 161 268 182 268 q 124 253 139 268 q 109 216 109 237 q 124 179 109 194 q 161 163 139 163 q 198 179 182 163 q 213 216 213 194 m 281 177 q 397 253 343 201 q 492 372 450 305 l 492 232 q 442 178 473 205 q 372 128 411 151 q 287 91 332 105 q 195 76 242 76 q 123 86 154 76 q 73 115 93 97 q 42 158 52 134 q 32 212 32 183 q 42 263 32 239 q 70 305 52 287 q 110 333 87 323 q 160 344 134 344 q 210 334 186 344 q 251 306 234 323 q 279 266 269 289 q 289 216 289 242 q 286 193 289 205 q 281 177 283 180 z "},"ั":{"ha":0,"x_min":-476,"x_max":-16,"o":"m -295 880 q -310 917 -295 901 q -347 932 -326 932 q -384 917 -369 932 q -399 880 -399 901 q -384 843 -399 858 q -347 827 -369 827 q -310 843 -326 827 q -295 880 -295 858 m -227 841 q -167 872 -196 853 q -111 917 -138 892 q -60 973 -84 943 q -16 1036 -37 1003 l -16 896 q -66 842 -35 869 q -136 792 -97 814 q -221 754 -176 769 q -313 740 -266 740 q -385 750 -354 740 q -435 779 -415 761 q -466 822 -456 798 q -476 876 -476 847 q -466 927 -476 903 q -438 969 -456 951 q -398 997 -421 987 q -348 1008 -374 1008 q -298 998 -321 1008 q -257 970 -274 987 q -229 929 -239 953 q -219 880 -219 906 q -222 857 -219 869 q -227 841 -224 844 z "},"า":{"ha":738,"x_min":29,"x_max":656,"o":"m 488 0 l 488 412 q 444 534 488 492 q 304 576 399 576 q 232 569 270 576 q 156 551 193 563 q 86 524 119 540 q 29 491 54 509 l 29 647 q 84 676 52 664 q 152 696 115 688 q 227 708 188 704 q 304 711 267 711 q 570 639 484 711 q 656 428 656 566 l 656 0 l 488 0 z "},"ำ":{"ha":738,"x_min":-313,"x_max":656,"o":"m 463 0 l 463 412 q 424 527 463 492 q 304 562 384 562 q 232 556 270 562 q 156 538 193 549 q 86 511 119 526 q 29 477 54 495 l 29 647 q 84 676 52 664 q 152 696 115 688 q 227 708 188 704 q 304 711 267 711 q 570 639 484 711 q 656 428 656 566 l 656 0 l 463 0 m -144 860 q -158 893 -144 880 q -191 907 -172 907 q -224 893 -211 907 q -238 860 -238 880 q -224 826 -238 840 q -191 812 -211 812 q -158 826 -172 812 q -144 860 -144 840 m -313 860 q -304 908 -313 886 q -278 948 -294 931 q -239 974 -262 964 q -191 983 -217 983 q -143 974 -165 983 q -103 948 -120 964 q -76 908 -86 931 q -66 860 -66 886 q -76 811 -66 834 q -103 772 -86 789 q -143 746 -120 755 q -191 736 -165 736 q -239 746 -217 736 q -278 772 -262 755 q -304 811 -294 789 q -313 860 -313 834 z "},"ิ":{"ha":0,"x_min":-753,"x_max":-137,"o":"m -137 744 q -297 767 -220 758 q -448 781 -374 776 q -598 789 -523 787 q -753 791 -673 791 q -656 927 -729 880 q -465 975 -583 975 q -357 960 -410 975 q -261 917 -304 945 q -185 846 -217 888 q -137 750 -153 804 l -137 744 m -465 907 q -619 845 -588 907 q -436 840 -522 845 q -271 824 -350 834 q -300 856 -282 840 q -343 882 -319 871 q -398 900 -368 893 q -465 907 -429 907 z "},"ี":{"ha":0,"x_min":-753,"x_max":-137,"o":"m -137 744 q -297 767 -220 758 q -448 781 -374 776 q -598 789 -523 787 q -753 791 -673 791 q -656 927 -729 880 q -465 975 -583 975 q -331 951 -395 975 q -218 883 -267 928 l -218 1031 l -137 1031 l -137 744 m -465 907 q -619 845 -588 907 q -436 840 -522 845 q -271 824 -350 834 q -300 856 -282 840 q -343 882 -319 871 q -398 900 -368 893 q -465 907 -429 907 z "},"ึ":{"ha":0,"x_min":-753,"x_max":-75,"o":"m -137 744 q -297 767 -220 758 q -448 781 -374 776 q -598 789 -523 787 q -753 791 -673 791 q -656 927 -729 880 q -465 975 -583 975 q -372 964 -417 975 q -287 932 -327 954 q -274 967 -283 951 q -251 995 -264 983 q -219 1013 -237 1006 q -182 1020 -202 1020 q -141 1012 -160 1020 q -107 989 -121 1004 q -84 955 -92 975 q -75 913 -75 936 q -82 877 -75 894 q -100 846 -88 859 q -127 823 -112 832 q -161 810 -143 814 l -162 811 q -137 750 -146 784 l -137 744 m -465 907 q -619 845 -588 907 q -436 840 -522 845 q -271 824 -350 834 q -300 856 -282 840 q -343 882 -319 871 q -398 900 -368 893 q -465 907 -429 907 m -140 913 q -152 944 -140 931 q -182 956 -165 956 q -212 944 -200 956 q -224 913 -224 931 q -212 884 -224 896 q -182 871 -200 871 q -152 884 -165 871 q -140 913 -140 896 z "},"ื":{"ha":0,"x_min":-753,"x_max":-137,"o":"m -137 744 q -297 767 -220 758 q -448 781 -374 776 q -598 789 -523 787 q -753 791 -673 791 q -656 927 -729 880 q -465 975 -583 975 q -406 971 -435 975 q -350 958 -378 966 l -350 1031 l -269 1031 l -269 921 q -218 883 -241 905 l -218 1031 l -137 1031 l -137 744 m -465 907 q -619 845 -588 907 q -436 840 -522 845 q -271 824 -350 834 q -300 856 -282 840 q -343 882 -319 871 q -398 900 -368 893 q -465 907 -429 907 z "},"ุ":{"ha":0,"x_min":-272,"x_max":-106,"o":"m -191 -326 l -191 -227 l -195 -227 q -225 -220 -212 -227 q -250 -204 -239 -214 q -266 -180 -260 -194 q -272 -149 -272 -165 q -267 -121 -272 -134 q -251 -97 -261 -107 q -225 -80 -240 -86 q -190 -73 -210 -73 q -128 -96 -150 -73 q -106 -153 -106 -119 l -106 -326 l -191 -326 m -223 -149 q -215 -169 -223 -161 q -195 -177 -207 -177 q -176 -169 -184 -177 q -168 -149 -168 -161 q -176 -130 -168 -138 q -195 -121 -184 -121 q -215 -130 -207 -121 q -223 -149 -223 -138 z "},"ู":{"ha":0,"x_min":-475,"x_max":-81,"o":"m -288 -246 q -235 -238 -255 -246 q -204 -212 -215 -231 q -190 -162 -193 -193 q -186 -85 -186 -131 l -81 -85 q -83 -142 -81 -113 q -92 -198 -85 -171 q -111 -248 -98 -225 q -145 -289 -123 -271 q -198 -316 -167 -307 q -275 -326 -230 -326 l -394 -326 l -394 -227 l -398 -227 q -428 -220 -414 -227 q -453 -204 -442 -214 q -469 -180 -463 -194 q -475 -149 -475 -165 q -469 -121 -475 -134 q -453 -97 -464 -107 q -428 -80 -443 -86 q -393 -73 -412 -73 q -331 -96 -353 -73 q -309 -153 -309 -119 l -309 -246 l -288 -246 m -426 -149 q -418 -169 -426 -161 q -398 -177 -410 -177 q -378 -169 -387 -177 q -370 -149 -370 -161 q -378 -130 -370 -138 q -398 -121 -387 -121 q -418 -130 -410 -121 q -426 -149 -426 -138 z "},"ฺ":{"ha":0,"x_min":-258,"x_max":-107,"o":"m -107 -149 q -129 -202 -107 -181 q -182 -224 -150 -224 q -213 -218 -199 -224 q -236 -202 -227 -212 q -252 -178 -246 -192 q -258 -149 -258 -165 q -252 -119 -258 -133 q -236 -95 -246 -105 q -213 -78 -227 -84 q -182 -72 -199 -72 q -153 -78 -166 -72 q -129 -95 -139 -84 q -113 -119 -119 -105 q -107 -149 -107 -133 z "},"฿":{"ha":867,"x_min":90,"x_max":821,"o":"m 90 0 l 90 972 l 374 972 l 374 1084 l 479 1084 l 479 972 q 704 906 626 965 q 782 745 782 848 q 728 607 782 665 q 593 525 676 549 l 593 522 q 758 446 697 509 q 821 290 821 381 q 725 78 821 157 q 479 0 634 3 l 479 -107 l 374 -107 l 374 0 l 90 0 m 597 293 q 565 374 597 342 q 479 416 534 406 l 479 160 q 565 207 533 172 q 597 293 597 242 m 302 421 l 302 155 l 374 155 l 374 421 l 302 421 m 302 818 l 302 577 l 374 577 l 374 818 l 302 818 m 558 704 q 538 766 558 741 q 479 805 517 791 l 479 590 q 537 634 515 605 q 558 704 558 663 z "},"เ":{"ha":429,"x_min":100,"x_max":386,"o":"m 270 702 l 270 248 l 275 247 q 319 234 299 244 q 354 208 339 224 q 377 170 369 191 q 386 121 386 148 q 376 66 386 90 q 347 26 366 42 q 302 1 328 9 q 244 -7 276 -7 q 142 32 184 -7 q 100 150 100 70 l 100 702 l 270 702 m 205 121 q 221 84 205 100 q 258 69 236 69 q 295 84 279 69 q 310 121 310 100 q 295 158 310 143 q 258 174 279 174 q 221 158 236 174 q 205 121 205 143 z "},"แ":{"ha":807,"x_min":90,"x_max":778,"o":"m 260 702 l 260 248 l 265 247 q 309 234 289 244 q 344 208 329 224 q 367 170 359 191 q 376 121 376 148 q 366 66 376 90 q 336 26 355 42 q 292 1 317 9 q 234 -7 266 -7 q 132 32 174 -7 q 90 150 90 70 l 90 702 l 260 702 m 195 121 q 211 84 195 100 q 248 69 226 69 q 284 84 269 69 q 300 121 300 100 q 284 158 300 143 q 248 174 269 174 q 211 158 226 174 q 195 121 195 143 m 662 702 l 662 248 l 667 247 q 711 234 691 244 q 746 208 731 224 q 769 170 761 191 q 778 121 778 148 q 768 66 778 90 q 739 26 758 42 q 694 1 720 9 q 636 -7 668 -7 q 534 32 576 -7 q 492 150 492 70 l 492 702 l 662 702 m 597 121 q 613 84 597 100 q 650 69 628 69 q 687 84 671 69 q 702 121 702 100 q 687 158 702 143 q 650 174 671 174 q 613 158 628 174 q 597 121 597 143 z "},"โ":{"ha":621,"x_min":0,"x_max":610,"o":"m 451 864 l 451 248 l 456 247 q 500 234 480 244 q 535 208 520 224 q 558 170 550 191 q 567 121 567 148 q 557 66 567 90 q 528 26 547 42 q 483 1 509 9 q 425 -7 457 -7 q 323 32 366 -7 q 281 150 281 70 l 281 878 q 274 921 280 903 q 257 950 269 939 q 226 966 245 961 q 180 970 208 970 q 82 967 127 970 q 1 954 37 963 l 1 1044 q 15 1144 0 1100 q 61 1220 29 1189 q 142 1267 92 1251 q 262 1283 192 1283 q 312 1281 284 1283 q 369 1277 339 1279 q 428 1273 398 1275 q 482 1271 457 1271 q 558 1273 527 1271 q 610 1278 589 1274 l 610 1166 q 587 1163 599 1164 q 560 1162 574 1162 q 528 1161 546 1161 q 487 1160 510 1160 q 431 1162 463 1160 q 367 1166 399 1164 q 307 1171 335 1168 q 262 1173 279 1173 q 205 1165 222 1173 q 177 1146 187 1157 q 162 1119 168 1135 q 156 1074 156 1103 q 186 1078 169 1076 q 245 1079 203 1079 q 325 1071 281 1079 q 396 1039 368 1063 q 437 974 424 1016 q 451 864 450 932 m 387 121 q 402 84 387 100 q 439 69 417 69 q 476 84 460 69 q 491 121 491 100 q 476 158 491 143 q 439 174 460 174 q 402 158 417 174 q 387 121 387 143 z "},"ใ":{"ha":681,"x_min":41,"x_max":656,"o":"m 471 121 q 487 84 471 100 q 524 69 502 69 q 561 84 545 69 q 576 121 576 100 q 561 158 576 143 q 524 174 545 174 q 487 158 502 174 q 471 121 471 143 m 536 248 l 541 247 q 585 234 564 244 q 620 208 605 224 q 643 170 635 191 q 652 121 652 148 q 642 66 652 90 q 612 26 631 42 q 567 1 593 9 q 510 -7 541 -7 q 408 32 450 -7 q 366 150 366 70 l 366 810 q 373 905 367 867 q 393 968 379 943 q 428 1013 406 994 q 480 1050 450 1031 q 474 1094 480 1074 q 452 1135 469 1114 q 404 1167 435 1156 q 330 1179 374 1179 q 234 1162 275 1179 q 172 1116 193 1145 q 181 1117 176 1117 q 189 1118 186 1118 q 241 1108 218 1118 q 281 1082 264 1099 q 308 1042 298 1065 q 317 989 317 1018 q 308 937 317 961 q 281 897 298 913 q 241 871 264 880 q 189 861 218 861 q 125 874 153 861 q 79 911 98 888 q 50 968 60 935 q 41 1042 41 1002 q 60 1142 41 1097 q 119 1221 80 1188 q 215 1272 157 1254 q 372 1291 272 1291 q 477 1274 420 1291 q 574 1225 534 1257 q 635 1149 614 1194 q 656 1048 656 1104 q 599 1009 622 1029 q 562 962 576 989 q 542 902 548 936 q 536 821 536 867 l 536 248 m 137 989 q 152 952 137 968 q 189 937 168 937 q 226 952 211 937 q 241 989 241 968 q 226 1026 241 1011 q 189 1042 211 1042 q 152 1026 168 1042 q 137 989 137 1011 z "},"ไ":{"ha":680,"x_min":-16,"x_max":640,"o":"m 524 248 l 529 247 q 573 234 553 244 q 608 208 593 224 q 631 170 623 191 q 640 121 640 148 q 629 66 640 90 q 600 26 619 42 q 555 1 581 9 q 498 -7 530 -7 q 396 32 438 -7 q 355 150 355 70 l 355 1118 q 353 1153 355 1140 q 348 1173 351 1166 q 340 1181 345 1179 q 332 1183 336 1183 q 322 1181 327 1183 q 314 1172 318 1179 q 308 1153 311 1165 q 302 1118 304 1140 l 291 1038 q 278 978 286 1004 q 254 932 269 951 q 217 903 239 913 q 163 893 195 893 q 108 903 131 893 q 71 932 85 913 q 48 978 56 951 q 35 1038 39 1004 l 14 1203 q 2 1249 10 1228 q -16 1283 -6 1270 l 93 1283 q 107 1252 102 1270 q 116 1206 112 1235 l 140 1042 q 149 1003 144 1013 q 163 994 154 994 q 176 1003 170 994 q 186 1042 182 1013 l 199 1136 q 215 1202 203 1174 q 246 1247 226 1230 q 297 1274 267 1265 q 373 1283 328 1283 q 430 1271 397 1283 q 484 1238 463 1259 q 514 1185 505 1216 q 524 1117 524 1155 l 524 248 m 459 121 q 474 84 459 100 q 511 69 490 69 q 548 84 533 69 q 564 121 564 100 q 548 158 564 143 q 511 174 533 174 q 474 158 490 174 q 459 121 459 143 z "},"ๅ":{"ha":738,"x_min":29,"x_max":656,"o":"m 488 -278 l 488 419 q 441 537 488 498 q 304 576 395 576 q 232 569 270 576 q 156 551 193 563 q 86 524 119 540 q 29 491 54 509 l 29 647 q 84 676 52 664 q 152 696 115 688 q 227 708 188 704 q 304 711 267 711 q 570 639 484 711 q 656 428 656 566 l 656 -278 l 488 -278 z "},"ๆ":{"ha":730,"x_min":27,"x_max":649,"o":"m 304 484 l 205 587 q 176 555 185 569 q 162 525 168 541 q 155 492 157 509 q 153 460 153 475 q 166 462 157 461 q 182 463 176 463 q 234 453 210 463 q 274 427 257 444 q 300 387 291 410 q 310 334 310 363 q 300 282 310 306 q 274 242 291 258 q 234 216 257 225 q 182 206 210 206 q 117 220 145 206 q 68 260 88 235 q 38 322 48 286 q 27 401 27 358 q 40 514 27 464 q 76 603 54 564 q 129 669 99 642 q 191 711 159 696 l 304 593 l 413 711 q 494 695 452 709 q 570 655 536 682 q 627 591 605 629 q 649 503 649 553 l 649 -278 l 480 -278 l 480 498 q 467 559 480 533 q 409 599 453 585 l 304 484 m 130 334 q 145 297 130 313 q 182 282 160 282 q 219 297 203 282 q 234 334 234 313 q 219 371 234 356 q 182 387 203 387 q 145 371 160 387 q 130 334 130 356 z "},"็":{"ha":0,"x_min":-577,"x_max":-90,"o":"m -196 809 q -177 812 -184 809 q -163 819 -169 814 q -204 837 -188 819 q -221 880 -221 855 q -205 922 -221 903 q -157 940 -189 940 q -108 920 -125 940 q -90 869 -90 900 q -98 824 -90 846 q -119 783 -105 801 q -154 754 -134 765 q -200 743 -174 743 q -255 755 -231 743 q -299 781 -279 767 q -339 808 -320 795 q -378 820 -357 820 q -425 801 -406 820 q -464 746 -444 783 q -507 771 -486 757 q -543 802 -527 785 q -568 842 -559 820 q -577 890 -577 864 q -565 949 -577 925 q -530 987 -552 972 q -480 1008 -509 1002 q -420 1015 -452 1015 l -256 1015 q -207 1021 -231 1015 q -162 1037 -183 1027 q -123 1060 -140 1047 q -93 1085 -105 1072 l -93 1006 q -121 978 -105 989 q -155 961 -137 967 q -193 951 -174 954 q -230 949 -212 949 l -424 949 q -478 932 -462 949 q -494 890 -494 916 q -487 858 -494 869 q -470 842 -479 846 q -435 876 -456 863 q -378 888 -414 888 q -322 876 -349 888 q -274 849 -296 863 q -232 822 -251 834 q -196 809 -212 809 m -185 881 q -178 859 -185 867 q -159 851 -170 851 q -140 859 -147 851 q -132 879 -132 867 q -140 899 -132 890 q -159 907 -147 907 q -178 899 -170 907 q -185 881 -185 890 z "},"่":{"ha":0,"x_min":-234,"x_max":-139,"o":"m -234 977 l -139 977 l -139 753 l -234 753 l -234 977 z "},"้":{"ha":0,"x_min":-529,"x_max":-59,"o":"m -370 907 q -379 892 -374 900 q -394 878 -385 884 q -416 867 -404 871 q -445 863 -429 863 q -478 869 -463 863 q -505 887 -494 876 q -523 914 -516 899 q -529 948 -529 930 q -500 1007 -529 983 q -417 1031 -472 1031 q -362 1023 -387 1031 q -319 1001 -337 1015 q -291 965 -301 986 q -281 918 -281 944 q -342 811 -281 849 q -250 831 -284 811 q -199 883 -216 851 q -176 954 -181 915 q -170 1031 -170 993 l -59 1031 q -68 947 -62 985 q -86 877 -74 908 q -119 823 -98 846 q -171 784 -139 800 q -249 761 -203 768 q -357 753 -294 753 l -443 753 l -443 812 q -391 846 -412 822 q -370 907 -370 871 m -476 947 q -465 921 -476 932 q -438 909 -454 909 q -411 921 -422 909 q -400 947 -400 932 q -411 974 -400 963 q -438 985 -422 985 q -465 974 -454 985 q -476 947 -476 963 z "},"๊":{"ha":0,"x_min":-550,"x_max":-41,"o":"m -481 879 q -480 867 -481 873 q -477 855 -479 860 q -455 876 -469 869 q -425 884 -441 884 q -383 868 -401 884 q -365 820 -365 852 q -385 770 -365 787 q -435 753 -405 753 q -480 762 -459 753 q -517 787 -501 770 q -541 826 -532 803 q -550 879 -550 850 q -525 965 -550 928 q -453 1023 -500 1002 l -372 954 l -294 1023 q -222 967 -248 1002 q -197 884 -197 932 q -198 859 -197 869 q -199 840 -199 848 q -150 888 -167 840 q -132 1023 -134 937 l -41 1023 q -47 965 -43 996 q -59 904 -50 934 q -82 847 -67 874 q -123 798 -97 819 q -188 765 -149 777 q -280 753 -226 753 q -275 785 -277 768 q -272 819 -273 802 q -270 850 -271 836 q -269 876 -269 865 q -276 919 -269 903 q -296 942 -283 935 l -372 875 l -450 942 q -481 879 -481 926 m -454 821 q -446 802 -454 810 q -426 793 -437 793 q -406 802 -414 793 q -398 821 -398 810 q -406 841 -398 833 q -426 849 -414 849 q -446 841 -437 849 q -454 821 -454 833 z "},"๋":{"ha":0,"x_min":-300,"x_max":-73,"o":"m -220 977 l -153 977 l -153 897 l -73 897 l -73 832 l -153 832 l -153 753 l -220 753 l -220 832 l -300 832 l -300 897 l -220 897 l -220 977 z "},"์":{"ha":0,"x_min":-473,"x_max":25,"o":"m -245 847 q -275 771 -245 800 q -358 743 -304 743 q -442 774 -411 743 q -473 856 -473 806 q -464 902 -473 881 q -437 939 -455 924 q -393 964 -419 955 q -332 973 -367 973 q -293 972 -309 973 q -263 971 -277 972 q -231 970 -248 970 q -189 969 -214 969 q -117 991 -142 969 q -85 1061 -93 1014 l 25 1061 q 11 1003 20 1031 q -13 955 2 976 q -52 922 -28 935 q -109 910 -75 910 q -158 911 -132 910 q -209 913 -184 912 q -251 915 -233 914 q -278 916 -270 916 q -268 906 -273 912 q -257 890 -262 899 q -249 871 -252 882 q -245 847 -245 860 m -411 848 q -396 811 -411 825 q -358 798 -382 798 q -322 811 -336 798 q -307 848 -307 825 q -322 885 -307 871 q -358 899 -336 899 q -396 885 -382 899 q -411 848 -411 871 z "},"ํ":{"ha":0,"x_min":-311,"x_max":-64,"o":"m -141 860 q -155 893 -141 880 q -189 907 -169 907 q -222 893 -208 907 q -235 860 -235 880 q -222 826 -235 840 q -189 812 -208 812 q -155 826 -169 812 q -141 860 -141 840 m -311 860 q -301 908 -311 886 q -275 948 -292 931 q -237 974 -259 964 q -189 983 -214 983 q -140 974 -163 983 q -100 948 -117 964 q -74 908 -83 931 q -64 860 -64 886 q -74 811 -64 834 q -100 772 -83 789 q -140 746 -117 755 q -189 736 -163 736 q -237 746 -214 736 q -275 772 -259 755 q -301 811 -292 789 q -311 860 -311 834 z "},"๎":{"ha":0,"x_min":-315,"x_max":-51,"o":"m -104 876 q -140 874 -120 876 q -177 869 -159 873 q -207 858 -195 865 q -219 836 -219 850 q -180 812 -219 812 q -138 816 -159 812 q -99 826 -117 820 l -99 749 q -136 741 -114 744 q -180 739 -159 739 q -280 760 -245 739 q -315 822 -315 781 q -307 855 -315 841 q -282 880 -298 869 q -246 897 -267 890 q -201 908 -225 904 q -248 932 -229 916 q -266 972 -266 948 q -251 1015 -266 998 q -212 1043 -235 1032 q -161 1058 -189 1054 q -108 1063 -134 1063 q -78 1061 -95 1063 q -51 1055 -61 1059 l -51 982 q -62 985 -55 983 q -78 987 -70 986 q -94 988 -86 988 q -108 989 -102 989 q -159 982 -144 989 q -174 962 -174 975 q -168 946 -174 951 q -152 938 -161 940 q -129 935 -142 935 q -104 934 -117 934 l -104 876 z "},"๏":{"ha":757,"x_min":34,"x_max":723,"o":"m 34 336 q 61 469 34 407 q 135 578 88 532 q 244 652 182 625 q 379 679 307 679 q 512 652 450 679 q 622 578 575 625 q 696 469 669 532 q 723 336 723 407 q 696 201 723 264 q 622 92 669 138 q 512 18 575 45 q 379 -9 450 -9 q 244 18 307 -9 q 135 92 182 45 q 61 201 88 138 q 34 336 34 264 m 147 336 q 165 245 147 288 q 214 171 183 203 q 288 121 245 140 q 379 103 330 103 q 469 121 427 103 q 543 171 511 140 q 592 245 574 203 q 610 336 610 288 q 592 426 610 384 q 543 499 574 468 q 469 548 511 530 q 379 566 427 566 q 288 548 330 566 q 214 499 245 530 q 165 426 183 468 q 147 336 147 384 m 265 336 q 274 379 265 359 q 299 415 283 399 q 335 439 314 430 q 379 448 356 448 q 422 439 402 448 q 458 415 443 430 q 483 379 473 399 q 492 336 492 359 q 483 292 492 313 q 458 255 473 271 q 422 231 443 240 q 379 222 402 222 q 335 231 356 222 q 299 255 314 240 q 274 292 283 271 q 265 336 265 313 z "},"๐":{"ha":865,"x_min":51,"x_max":814,"o":"m 431 106 q 523 119 484 106 q 590 154 562 131 q 634 210 618 177 q 650 293 650 243 q 634 375 650 342 q 590 431 618 408 q 523 467 562 454 q 431 479 484 479 q 341 467 380 479 q 275 431 302 454 q 231 375 247 408 q 215 293 215 342 q 231 210 215 243 q 275 154 247 177 q 341 119 302 131 q 431 106 380 106 m 431 -7 q 284 13 353 -7 q 163 71 215 33 q 81 165 111 109 q 51 293 51 221 q 81 421 51 366 q 163 515 111 477 q 284 573 215 553 q 431 593 353 593 q 579 573 510 593 q 701 515 649 553 q 784 421 753 477 q 814 293 814 366 q 784 165 814 221 q 701 71 753 109 q 579 13 649 33 q 431 -7 510 -7 z "},"๑":{"ha":905,"x_min":51,"x_max":854,"o":"m 427 135 q 376 146 399 136 q 338 174 354 157 q 314 214 323 191 q 306 260 306 236 q 342 354 306 319 q 443 389 379 389 q 497 380 471 389 q 543 352 523 371 q 576 305 564 334 q 589 237 589 276 q 572 136 589 181 q 525 60 556 92 q 450 11 494 28 q 349 -7 406 -7 q 239 11 292 -7 q 143 64 185 28 q 76 154 102 100 q 51 279 51 208 q 79 408 51 350 q 159 506 106 465 q 285 570 211 547 q 452 593 359 593 q 617 570 543 593 q 744 507 691 548 q 826 408 797 466 q 854 279 854 351 q 833 163 854 214 q 777 76 812 113 q 699 19 743 40 q 610 -7 655 -1 l 610 113 q 650 148 635 127 q 674 191 665 168 q 687 240 683 214 q 690 293 690 267 q 674 376 690 342 q 627 432 657 409 q 553 467 596 454 q 452 479 511 479 q 350 468 393 479 q 278 434 308 456 q 231 378 248 412 q 215 293 215 345 q 230 205 215 239 q 268 151 245 172 q 315 121 290 130 q 366 111 340 111 q 406 119 390 111 q 427 135 421 126 m 382 260 q 397 223 382 239 q 435 208 413 208 q 455 212 446 208 q 472 223 465 216 q 483 240 479 230 q 487 260 487 250 q 472 297 487 282 q 435 313 456 313 q 414 309 424 313 q 397 297 404 304 q 386 281 390 290 q 382 260 382 271 z "},"๒":{"ha":967,"x_min":81,"x_max":886,"o":"m 437 404 q 441 338 437 367 q 454 288 444 310 q 460 323 454 307 q 479 351 467 339 q 506 369 490 363 q 541 376 522 376 q 576 369 560 376 q 604 351 592 363 q 623 323 616 339 q 629 288 629 307 q 599 217 629 240 q 519 194 568 194 q 437 204 474 194 q 374 238 400 214 q 333 303 347 262 q 319 404 319 343 q 325 490 319 452 q 348 554 331 528 q 394 594 365 580 q 470 608 423 608 q 511 602 492 608 q 544 586 530 596 q 569 562 559 576 q 583 533 578 549 l 584 533 q 625 586 594 564 q 709 608 656 608 q 839 564 792 608 q 886 431 886 520 l 886 186 q 878 119 886 153 q 850 60 870 86 q 794 17 829 33 q 705 0 760 0 l 274 0 q 182 17 219 0 q 123 60 145 33 q 91 119 100 86 q 81 186 81 153 l 81 844 l 254 844 l 254 237 q 279 171 254 194 q 347 149 304 149 l 642 149 q 706 171 683 149 q 730 237 730 193 l 730 414 q 719 471 730 453 q 682 488 707 488 q 663 485 672 488 q 647 472 654 481 q 635 448 640 463 q 631 411 631 433 l 532 411 q 528 448 532 433 q 516 472 524 463 q 500 485 509 481 q 482 488 492 488 q 450 470 462 488 q 437 404 437 451 m 542 327 q 514 315 526 327 q 502 288 502 304 q 513 259 502 271 q 542 248 525 248 q 570 259 558 248 q 581 288 581 271 q 570 316 581 304 q 542 327 558 327 z "},"๓":{"ha":905,"x_min":51,"x_max":854,"o":"m 280 113 q 276 129 277 121 q 275 147 275 138 q 284 200 275 176 q 310 240 294 224 q 350 266 327 257 q 401 275 374 275 q 450 266 427 275 q 490 240 473 257 q 518 200 508 224 q 529 148 529 176 q 518 91 529 119 q 486 41 507 62 q 432 6 465 20 q 355 -7 399 -7 q 233 14 291 -7 q 135 73 176 34 q 73 166 95 111 q 51 292 51 222 q 66 413 51 359 q 113 507 82 468 q 188 566 143 545 q 290 587 233 587 q 355 576 326 587 q 404 547 383 564 q 437 508 425 529 q 456 467 450 487 q 474 508 461 487 q 508 547 487 529 q 557 576 529 564 q 621 587 586 587 q 723 566 679 587 q 795 506 766 545 q 840 412 825 467 q 854 292 854 357 q 838 178 854 229 q 789 89 821 127 q 714 28 758 52 q 617 -7 670 5 l 617 113 q 672 173 654 127 q 690 293 690 218 q 683 366 690 335 q 664 420 676 397 q 634 457 651 444 q 591 471 618 471 q 561 466 574 471 q 537 446 547 460 q 518 406 526 432 q 504 340 510 380 l 404 340 q 389 406 398 380 q 369 447 380 432 q 344 467 358 461 q 314 472 330 472 q 270 458 287 472 q 241 421 253 445 q 222 367 229 398 q 215 293 215 336 q 220 227 215 256 q 234 176 225 198 q 255 139 243 155 q 280 113 267 123 m 401 200 q 363 184 379 200 q 348 147 348 169 q 352 127 348 136 q 363 110 356 117 q 380 99 370 103 q 401 95 390 95 q 438 110 422 95 q 453 147 453 125 q 449 168 453 158 q 438 185 445 178 q 421 196 431 192 q 401 200 412 200 z "},"๔":{"ha":862,"x_min":51,"x_max":804,"o":"m 642 465 q 709 455 680 465 q 759 428 739 446 q 790 386 779 410 q 801 332 801 362 q 791 280 801 304 q 764 240 781 256 q 723 214 747 223 q 673 205 700 205 q 622 214 646 205 q 582 240 599 223 q 556 280 566 257 q 547 333 547 304 q 522 308 532 326 q 513 268 513 291 q 526 215 513 237 q 562 178 539 193 q 615 154 585 163 q 678 141 645 145 q 751 130 720 137 q 804 113 782 122 l 804 -12 q 769 0 791 -7 q 720 12 747 6 q 663 20 692 17 q 605 24 633 24 q 545 20 578 24 q 477 11 511 16 q 410 1 443 5 q 353 -3 378 -3 q 212 18 270 -3 q 118 74 154 38 q 67 158 83 109 q 51 264 51 207 q 80 414 51 350 q 164 526 110 479 q 295 605 218 573 q 471 659 371 636 q 574 703 542 676 q 607 768 607 729 q 604 793 607 779 q 595 816 601 806 l 757 816 q 766 791 762 806 q 770 758 770 777 q 754 682 770 713 q 706 626 738 650 q 628 586 675 603 q 519 555 581 570 q 407 522 463 541 q 308 469 351 502 q 239 388 265 435 q 214 270 214 340 q 223 204 214 231 q 249 159 232 178 q 291 129 266 140 q 353 119 315 119 q 419 125 384 119 q 488 136 454 132 q 466 155 477 142 q 445 184 454 167 q 430 223 436 201 q 424 271 424 245 q 439 343 424 309 q 482 406 454 378 q 550 449 510 433 q 642 465 591 465 m 673 280 q 693 284 684 280 q 710 295 703 288 q 721 312 717 302 q 725 333 725 322 q 710 370 725 355 q 673 385 694 385 q 652 381 662 385 q 635 370 642 377 q 624 353 628 363 q 620 333 620 344 q 635 296 620 311 q 673 280 651 280 z "},"๕":{"ha":862,"x_min":51,"x_max":804,"o":"m 186 670 q 196 720 186 696 q 223 761 206 743 q 264 788 241 778 q 313 798 287 798 q 363 788 340 798 q 404 761 387 778 q 431 720 421 743 q 441 670 441 696 q 440 661 441 665 q 439 652 440 656 q 452 655 446 654 q 465 659 458 657 q 572 703 538 676 q 607 768 607 729 q 604 793 607 779 q 595 816 601 806 l 757 816 q 766 791 762 806 q 770 758 770 777 q 754 682 770 713 q 706 626 738 650 q 628 586 675 603 q 519 555 581 570 q 408 523 463 541 q 309 470 353 504 q 239 387 265 435 q 214 270 214 339 q 223 204 214 231 q 249 159 232 178 q 291 129 266 140 q 353 119 315 119 q 419 125 384 119 q 488 136 454 132 q 466 155 477 142 q 445 184 454 167 q 430 223 436 201 q 424 271 424 245 q 439 343 424 309 q 482 406 454 378 q 550 449 510 433 q 642 465 591 465 q 709 455 680 465 q 759 428 739 446 q 790 386 779 410 q 801 332 801 362 q 791 280 801 304 q 764 240 781 256 q 723 214 747 223 q 673 205 700 205 q 622 214 646 205 q 582 240 599 223 q 556 280 566 257 q 547 333 547 304 q 522 308 532 326 q 513 268 513 291 q 526 215 513 237 q 562 178 539 193 q 615 154 585 163 q 678 141 645 145 q 751 130 720 137 q 804 113 782 122 l 804 -12 q 769 0 791 -7 q 720 12 747 6 q 663 20 692 17 q 605 24 633 24 q 545 20 578 24 q 477 11 511 16 q 410 1 443 5 q 353 -3 378 -3 q 212 18 270 -3 q 118 74 154 38 q 67 158 83 109 q 51 264 51 207 q 63 365 51 319 q 98 448 75 410 q 155 517 121 486 q 231 573 189 548 q 198 615 210 591 q 186 670 186 640 m 673 280 q 693 284 684 280 q 710 295 703 288 q 721 312 717 302 q 725 333 725 322 q 710 370 725 355 q 673 385 694 385 q 652 381 662 385 q 635 370 642 377 q 624 353 628 363 q 620 333 620 344 q 635 296 620 311 q 673 280 651 280 m 315 722 q 294 718 304 722 q 278 707 285 714 q 267 690 271 700 q 262 669 262 680 q 278 632 262 648 q 315 617 293 617 q 335 621 326 617 q 352 632 345 625 q 363 649 359 640 q 368 669 368 659 q 352 707 368 691 q 315 722 336 722 z "},"๖":{"ha":751,"x_min":7,"x_max":700,"o":"m 328 105 q 414 115 377 105 q 477 149 450 125 q 520 209 505 172 q 536 306 536 245 q 522 393 536 359 q 483 449 507 427 q 425 481 458 471 q 349 492 392 492 q 303 489 327 492 q 257 483 280 487 q 213 472 234 478 q 173 458 192 467 q 154 515 165 485 q 128 581 143 545 q 96 653 113 616 q 62 721 79 689 q 32 780 46 753 q 7 823 17 806 l 170 823 q 208 715 191 774 q 239 592 225 656 q 260 597 247 595 q 290 602 274 600 q 322 606 305 604 q 362 607 340 607 q 513 586 449 607 q 618 525 576 564 q 680 431 660 486 q 700 306 700 375 q 680 180 700 237 q 617 81 660 123 q 508 16 574 39 q 349 -7 441 -7 q 238 9 289 -7 q 150 57 186 26 q 92 134 113 88 q 71 237 71 179 q 84 305 71 276 q 117 352 96 334 q 163 380 137 371 q 217 389 190 389 q 317 354 281 389 q 354 260 354 319 q 346 214 354 236 q 321 174 337 191 q 283 146 306 157 q 233 135 261 136 q 247 124 237 130 q 269 115 256 119 q 297 108 281 111 q 328 105 313 105 m 278 260 q 274 281 278 271 q 263 297 270 290 q 246 309 256 304 q 225 313 236 313 q 188 297 203 313 q 173 260 173 282 q 177 240 173 250 q 188 223 181 230 q 205 212 195 216 q 225 208 214 208 q 262 223 247 208 q 278 260 278 239 z "},"๗":{"ha":1147,"x_min":51,"x_max":1066,"o":"m 378 200 q 340 184 356 200 q 325 147 325 169 q 329 127 325 136 q 340 110 333 117 q 357 99 347 103 q 378 95 367 95 q 415 110 399 95 q 430 147 430 125 q 426 168 430 158 q 415 185 422 178 q 398 196 408 192 q 378 200 389 200 m 602 0 q 628 136 621 60 q 636 293 636 212 q 630 366 636 335 q 612 420 623 397 q 587 457 602 444 q 551 471 572 471 q 525 466 536 471 q 505 449 514 461 q 490 412 496 437 q 477 347 483 387 l 376 347 q 363 412 370 387 q 346 450 355 437 q 326 468 337 463 q 303 472 315 472 q 267 458 285 472 q 238 421 248 445 q 221 367 227 398 q 215 293 215 336 q 217 238 215 265 q 223 188 218 212 q 236 146 228 165 q 258 117 245 127 q 253 133 254 125 q 252 151 252 142 q 262 203 252 180 q 288 242 271 227 q 329 267 305 258 q 379 275 352 275 q 427 266 404 275 q 468 240 450 257 q 497 200 486 224 q 507 148 507 176 q 497 88 507 116 q 465 39 486 60 q 411 5 444 18 q 335 -7 379 -7 q 218 14 273 -7 q 127 73 164 34 q 70 166 90 111 q 51 292 51 222 q 65 413 51 359 q 109 507 80 468 q 179 566 137 545 q 274 587 220 587 q 334 575 308 587 q 380 546 361 564 q 412 508 399 529 q 429 467 424 487 q 446 508 433 487 q 477 547 458 530 q 524 576 497 565 q 583 587 550 588 q 677 566 637 587 q 745 506 718 545 q 786 412 772 467 q 800 292 800 357 q 797 209 800 245 q 785 142 793 174 l 807 142 q 876 164 850 142 q 901 230 901 187 l 901 844 l 1066 844 l 1066 186 q 1057 119 1066 153 q 1025 60 1047 86 q 965 17 1002 33 q 873 0 928 0 l 602 0 z "},"๘":{"ha":905,"x_min":51,"x_max":854,"o":"m 701 180 q 649 191 673 180 q 608 218 625 201 q 581 259 591 236 q 572 309 572 283 q 582 361 572 337 q 610 402 592 385 q 652 429 628 419 q 703 439 675 439 q 758 429 730 439 q 806 400 785 420 q 841 350 827 380 q 854 278 854 319 q 839 157 854 210 q 797 68 823 104 q 735 14 770 33 q 661 -5 700 -5 q 612 4 635 -5 q 566 28 588 14 q 523 59 543 42 q 485 90 503 76 q 451 114 467 104 q 421 123 435 123 q 395 115 405 123 q 378 90 385 106 q 368 50 372 73 q 361 -3 364 26 q 219 16 278 -3 q 123 70 160 35 q 68 154 85 104 q 51 264 51 203 q 80 414 51 350 q 164 526 110 479 q 295 605 218 573 q 465 659 371 637 q 574 703 542 676 q 607 768 607 729 q 604 793 607 779 q 595 816 601 806 l 757 816 q 766 791 762 806 q 770 758 770 777 q 754 682 770 713 q 706 626 738 650 q 628 586 675 603 q 519 555 581 570 q 409 521 463 541 q 310 468 355 500 q 239 388 265 435 q 214 270 214 340 q 219 222 214 243 q 234 185 224 201 q 254 160 243 170 q 283 143 265 150 q 298 183 288 163 q 324 218 308 203 q 362 242 340 233 q 415 252 385 252 q 464 242 440 252 q 510 218 488 233 q 553 188 532 204 q 593 157 574 172 q 629 134 612 143 q 663 124 647 124 q 681 126 671 124 q 698 135 690 128 q 713 153 706 141 q 726 184 720 165 q 715 181 721 182 q 701 180 709 180 m 648 309 q 663 272 648 288 q 701 256 679 256 q 721 260 711 256 q 738 272 730 264 q 749 289 745 279 q 753 309 753 298 q 738 346 753 331 q 701 361 722 361 q 680 357 690 361 q 663 346 670 353 q 652 330 656 339 q 648 309 648 320 z "},"๙":{"ha":1034,"x_min":51,"x_max":1005,"o":"m 331 586 q 431 573 389 586 q 501 541 473 560 q 547 501 530 522 q 573 464 564 480 q 586 515 578 490 q 604 560 593 541 q 630 592 614 580 q 667 604 645 604 q 701 595 685 604 q 731 575 717 587 q 756 548 745 562 q 779 519 768 533 q 799 496 789 505 q 819 488 809 488 q 845 505 836 488 q 860 553 854 522 q 868 625 865 584 q 873 715 871 667 l 1005 715 q 992 572 1002 636 q 964 463 983 508 q 917 394 945 418 q 849 370 889 370 q 808 378 827 370 q 773 399 789 387 q 744 426 757 412 q 719 453 730 441 q 699 474 708 466 q 683 482 690 482 q 666 471 673 482 q 654 439 659 459 q 647 394 650 420 q 640 340 644 368 l 764 0 l 591 0 l 482 332 q 419 440 456 408 q 330 472 381 472 q 274 459 294 472 q 240 422 254 446 q 221 367 227 399 q 215 293 215 336 q 221 212 215 249 q 240 147 227 174 q 250 200 240 176 q 276 240 259 224 q 316 266 292 257 q 367 275 339 275 q 415 266 392 275 q 456 240 438 257 q 484 200 473 224 q 494 148 494 176 q 484 91 494 119 q 451 41 473 62 q 397 6 430 20 q 321 -7 365 -7 q 220 14 271 -7 q 133 73 170 34 q 73 166 95 111 q 51 292 51 222 q 69 413 51 359 q 122 506 87 467 q 210 565 157 544 q 331 586 262 586 m 366 200 q 329 184 345 200 q 313 147 313 169 q 317 127 313 136 q 329 110 321 117 q 346 99 336 103 q 366 95 355 95 q 403 110 388 95 q 418 147 418 125 q 414 168 418 158 q 403 185 410 178 q 387 196 396 192 q 366 200 377 200 z "},"๚":{"ha":1093,"x_min":29,"x_max":1012,"o":"m 843 701 l 1012 701 l 1012 0 l 843 0 l 843 701 m 694 701 l 694 0 l 526 0 l 526 524 l 523 524 q 474 455 504 490 q 408 390 445 419 q 324 341 371 360 q 216 322 277 322 q 78 369 127 322 q 29 496 29 415 q 44 570 29 540 q 84 619 60 600 q 140 647 109 638 q 202 656 171 656 q 267 644 239 656 l 267 535 q 237 546 254 541 q 202 551 220 551 q 161 537 178 551 q 144 496 144 523 q 164 452 144 469 q 230 434 184 434 q 332 459 286 434 q 416 522 379 484 q 480 608 452 561 q 524 701 507 656 l 694 701 z "},"๛":{"ha":1236,"x_min":65,"x_max":1220,"o":"m 1220 416 q 1156 260 1202 313 q 1034 206 1109 206 q 947 233 982 206 q 891 304 913 260 l 800 99 l 715 302 l 640 99 l 553 300 q 522 187 541 244 q 474 83 503 130 q 405 8 446 37 q 309 -20 364 -20 q 224 -6 260 -20 q 160 35 187 9 q 115 96 133 61 q 85 173 96 132 q 70 261 75 215 q 65 353 65 307 q 78 499 65 431 q 121 618 91 567 q 199 698 151 669 q 318 728 247 728 q 393 716 355 728 q 463 682 432 705 l 463 549 q 394 598 432 581 q 319 616 356 616 q 251 594 278 616 q 209 535 224 572 q 186 451 193 498 q 180 352 180 403 q 186 255 180 302 q 207 172 193 208 q 246 113 222 135 q 307 90 270 90 q 367 107 340 90 q 414 154 393 124 q 452 226 435 184 q 482 318 469 268 q 507 423 496 368 q 529 537 518 479 l 640 275 l 715 479 l 806 265 l 900 479 q 956 346 923 387 q 1032 304 989 304 q 1096 335 1074 304 q 1127 416 1118 365 l 1220 416 z "},"​":{"ha":0,"x_min":0,"x_max":0,"o":""},"◌":{"ha":825,"x_min":69,"x_max":756,"o":"m 665 623 q 632 589 665 589 q 597 623 597 589 q 632 656 597 656 q 665 623 665 656 m 564 689 q 532 656 564 656 q 496 689 496 656 q 532 724 496 724 q 564 689 564 724 m 732 522 q 697 488 732 488 q 664 522 664 488 q 699 555 664 555 q 732 522 732 555 m 756 404 q 724 370 756 370 q 688 404 688 370 q 724 438 688 438 q 756 404 756 438 m 446 714 q 412 680 446 680 q 378 714 378 680 q 412 747 378 747 q 446 714 446 747 m 329 689 q 294 656 329 656 q 261 689 261 656 q 294 724 261 724 q 329 689 329 724 m 732 286 q 697 253 732 253 q 664 286 664 253 q 697 321 664 321 q 732 286 732 321 m 229 623 q 195 589 229 589 q 161 621 161 589 q 195 656 161 656 q 229 623 229 656 m 665 184 q 632 151 665 151 q 597 184 597 151 q 632 219 597 219 q 665 184 665 219 m 564 118 q 532 85 564 85 q 496 118 496 85 q 532 153 496 153 q 564 118 564 153 m 161 522 q 129 488 161 488 q 94 522 94 488 q 127 555 94 555 q 161 522 161 555 m 137 404 q 104 370 138 370 q 69 404 69 370 q 104 438 69 438 q 137 404 138 438 m 446 96 q 412 61 446 61 q 378 96 378 61 q 412 129 378 129 q 446 96 446 129 m 161 286 q 127 253 161 253 q 94 286 94 253 q 127 321 94 321 q 161 286 161 321 m 329 121 q 294 85 329 85 q 261 118 261 85 q 294 153 261 153 q 329 121 329 153 m 229 184 q 195 151 229 151 q 161 184 161 151 q 195 219 161 219 q 229 184 229 219 z "},"∶":{"ha":376,"x_min":62,"x_max":314,"o":"m 186 615 q 98 647 133 615 q 62 727 62 680 q 99 807 62 776 q 189 838 135 838 q 279 807 244 838 q 314 727 314 775 q 278 646 314 677 q 186 615 243 615 m 186 119 q 98 151 133 119 q 62 231 62 184 q 99 311 62 280 q 189 342 135 342 q 279 311 244 342 q 314 231 314 279 q 278 150 314 182 q 186 119 243 119 z "}," ":{"ha":174,"x_min":0,"x_max":0,"o":""},"Ơ":{"ha":1080,"x_min":50,"x_max":1101,"o":"m 900 822 q 1003 493 1003 690 q 870 123 1003 264 q 522 -17 736 -17 q 182 119 313 -17 q 50 473 50 255 q 184 846 50 704 q 538 989 317 989 q 776 930 672 989 q 838 920 815 920 q 967 1009 967 920 q 955 1084 967 1043 l 1085 1084 q 1101 993 1101 1038 q 1055 866 1101 911 q 924 821 1009 821 q 912 821 920 821 l 900 822 m 532 800 q 349 714 416 800 q 281 485 281 627 q 349 256 281 340 q 526 172 416 172 q 706 254 640 172 q 772 481 772 336 q 708 716 772 632 q 532 800 644 800 z "},"ơ":{"ha":875,"x_min":49,"x_max":863,"o":"m 707 608 q 800 357 800 512 q 699 83 800 184 q 421 -17 597 -17 q 148 80 248 -17 q 49 345 49 178 q 152 614 49 517 q 431 711 255 711 q 534 701 477 711 q 609 694 573 694 q 729 790 729 694 q 717 865 729 824 l 847 865 q 863 777 863 819 q 707 608 863 623 m 427 547 q 309 495 351 547 q 267 347 267 443 q 428 147 267 147 q 582 353 582 147 q 427 547 582 547 z "},"Ư":{"ha":1088,"x_min":100,"x_max":1116,"o":"m 904 874 l 904 421 q 496 -17 904 -17 q 100 411 100 -17 l 100 972 l 319 972 l 319 408 q 504 172 319 172 q 685 400 685 172 l 685 972 l 889 972 q 959 1001 932 972 q 986 1072 986 1029 q 974 1143 986 1102 l 1103 1143 q 1116 1063 1116 1105 q 1060 930 1116 981 q 904 874 1004 878 z "},"ư":{"ha":928,"x_min":79,"x_max":940,"o":"m 750 604 l 750 0 l 536 0 l 536 106 l 533 106 q 321 -17 454 -17 q 79 275 79 -17 l 79 694 l 293 694 l 293 294 q 410 147 293 147 q 502 188 467 147 q 536 297 536 228 l 536 694 l 732 694 q 817 795 817 694 q 804 865 817 824 l 929 865 q 940 786 940 833 q 890 657 940 707 q 750 604 840 608 z "},"̉":{"ha":422,"x_min":100,"x_max":319,"o":"m 222 860 l 222 827 l 127 827 l 127 911 q 208 954 208 916 q 153 991 208 991 q 100 985 127 991 l 100 1064 q 178 1068 161 1068 q 319 961 319 1068 q 222 860 319 877 z "},"̣":{"ha":463,"x_min":126,"x_max":334,"o":"m 231 -265 q 156 -238 185 -265 q 126 -172 126 -211 q 156 -106 126 -132 q 231 -81 186 -81 q 305 -106 276 -81 q 334 -172 334 -132 q 305 -239 334 -212 q 231 -265 276 -265 z "},"̀":{"ha":372,"x_min":25,"x_max":338,"o":"m 338 827 l 204 827 l 25 993 l 215 993 l 338 827 z "},"́":{"ha":372,"x_min":35,"x_max":347,"o":"m 347 993 l 168 827 l 35 827 l 157 993 l 347 993 z "},"Ạ":{"ha":977,"x_min":7,"x_max":966,"o":"m 966 0 l 728 0 l 659 216 l 313 216 l 244 0 l 7 0 l 361 972 l 621 972 l 966 0 m 608 385 l 504 711 q 488 799 492 748 l 482 799 q 465 714 479 756 l 359 385 l 608 385 m 492 -265 q 417 -238 446 -265 q 387 -172 387 -211 q 417 -106 387 -132 q 492 -81 447 -81 q 566 -106 537 -81 q 595 -172 595 -132 q 566 -239 595 -212 q 492 -265 537 -265 z "},"ạ":{"ha":747,"x_min":39,"x_max":668,"o":"m 668 0 l 465 0 l 465 100 l 463 100 q 256 -17 393 -17 q 97 40 155 -17 q 39 193 39 98 q 278 427 39 395 l 467 452 q 343 566 467 566 q 107 492 219 566 l 107 653 q 230 694 152 676 q 371 711 307 711 q 668 415 668 711 l 668 0 m 467 282 l 467 329 l 340 313 q 236 218 236 299 q 261 158 236 182 q 330 135 287 135 q 429 177 391 135 q 467 282 467 218 m 368 -265 q 293 -238 322 -265 q 263 -172 263 -211 q 293 -106 263 -132 q 368 -81 323 -81 q 442 -106 413 -81 q 471 -172 471 -132 q 442 -239 471 -212 q 368 -265 413 -265 z "},"Ả":{"ha":977,"x_min":7,"x_max":966,"o":"m 966 0 l 728 0 l 659 216 l 313 216 l 244 0 l 7 0 l 361 972 l 621 972 l 966 0 m 608 385 l 504 711 q 488 799 492 748 l 482 799 q 465 714 479 756 l 359 385 l 608 385 m 519 1097 l 519 1064 l 424 1064 l 424 1148 q 505 1192 505 1153 q 449 1229 505 1229 q 396 1222 423 1229 l 396 1301 q 474 1305 457 1305 q 616 1198 616 1305 q 519 1097 616 1114 z "},"ả":{"ha":747,"x_min":39,"x_max":668,"o":"m 668 0 l 465 0 l 465 100 l 463 100 q 256 -17 393 -17 q 97 40 155 -17 q 39 193 39 98 q 278 427 39 395 l 467 452 q 343 566 467 566 q 107 492 219 566 l 107 653 q 230 694 152 676 q 371 711 307 711 q 668 415 668 711 l 668 0 m 467 282 l 467 329 l 340 313 q 236 218 236 299 q 261 158 236 182 q 330 135 287 135 q 429 177 391 135 q 467 282 467 218 m 413 860 l 413 827 l 318 827 l 318 911 q 399 954 399 916 q 343 991 399 991 q 290 985 317 991 l 290 1064 q 368 1068 351 1068 q 510 961 510 1068 q 413 860 510 877 z "},"Ấ":{"ha":977,"x_min":7,"x_max":966,"o":"m 966 0 l 728 0 l 659 216 l 313 216 l 244 0 l 7 0 l 361 972 l 621 972 l 966 0 m 608 385 l 504 711 q 488 799 492 748 l 482 799 q 465 714 479 756 l 359 385 l 608 385 m 966 1333 l 787 1166 l 654 1166 l 776 1333 l 966 1333 m 716 1063 l 580 1063 l 477 1156 l 381 1063 l 245 1063 l 399 1232 l 562 1232 l 716 1063 z "},"ấ":{"ha":747,"x_min":39,"x_max":859,"o":"m 668 0 l 465 0 l 465 100 l 463 100 q 256 -17 393 -17 q 97 40 155 -17 q 39 193 39 98 q 278 427 39 395 l 467 452 q 343 566 467 566 q 107 492 219 566 l 107 653 q 230 694 152 676 q 371 711 307 711 q 668 415 668 711 l 668 0 m 467 282 l 467 329 l 340 313 q 236 218 236 299 q 261 158 236 182 q 330 135 287 135 q 429 177 391 135 q 467 282 467 218 m 859 1096 l 679 929 l 546 929 l 668 1096 l 859 1096 m 608 827 l 472 827 l 370 920 l 273 827 l 138 827 l 292 996 l 454 996 l 608 827 z "},"Ầ":{"ha":977,"x_min":-1,"x_max":966,"o":"m 966 0 l 728 0 l 659 216 l 313 216 l 244 0 l 7 0 l 361 972 l 621 972 l 966 0 m 608 385 l 504 711 q 488 799 492 748 l 482 799 q 465 714 479 756 l 359 385 l 608 385 m 312 1166 l 178 1166 l -1 1333 l 189 1333 l 312 1166 m 720 1063 l 584 1063 l 488 1156 l 385 1063 l 249 1063 l 404 1232 l 566 1232 l 720 1063 z "},"ầ":{"ha":747,"x_min":-108,"x_max":668,"o":"m 668 0 l 465 0 l 465 100 l 463 100 q 256 -17 393 -17 q 97 40 155 -17 q 39 193 39 98 q 278 427 39 395 l 467 452 q 343 566 467 566 q 107 492 219 566 l 107 653 q 230 694 152 676 q 371 711 307 711 q 668 415 668 711 l 668 0 m 467 282 l 467 329 l 340 313 q 236 218 236 299 q 261 158 236 182 q 330 135 287 135 q 429 177 391 135 q 467 282 467 218 m 205 929 l 71 929 l -108 1096 l 82 1096 l 205 929 m 613 827 l 477 827 l 381 920 l 278 827 l 142 827 l 296 996 l 458 996 l 613 827 z "},"Ẩ":{"ha":977,"x_min":7,"x_max":966,"o":"m 966 0 l 728 0 l 659 216 l 313 216 l 244 0 l 7 0 l 361 972 l 621 972 l 966 0 m 608 385 l 504 711 q 488 799 492 748 l 482 799 q 465 714 479 756 l 359 385 l 608 385 m 774 1200 l 774 1166 l 680 1166 l 680 1251 q 760 1295 760 1256 q 705 1332 760 1332 q 652 1325 680 1332 l 652 1404 q 730 1408 713 1408 q 871 1301 871 1408 q 774 1200 871 1217 m 720 1064 l 584 1064 l 481 1157 l 385 1064 l 250 1064 l 404 1233 l 566 1233 l 720 1064 z "},"ẩ":{"ha":747,"x_min":39,"x_max":766,"o":"m 668 0 l 465 0 l 465 100 l 463 100 q 256 -17 393 -17 q 97 40 155 -17 q 39 193 39 98 q 278 427 39 395 l 467 452 q 343 566 467 566 q 107 492 219 566 l 107 653 q 230 694 152 676 q 371 711 307 711 q 668 415 668 711 l 668 0 m 467 282 l 467 329 l 340 313 q 236 218 236 299 q 261 158 236 182 q 330 135 287 135 q 429 177 391 135 q 467 282 467 218 m 669 962 l 669 929 l 575 929 l 575 1014 q 655 1057 655 1019 q 600 1095 655 1095 q 547 1088 574 1095 l 547 1166 q 625 1171 608 1171 q 766 1064 766 1171 q 669 962 766 979 m 615 827 l 479 827 l 376 920 l 280 827 l 144 827 l 298 996 l 461 996 l 615 827 z "},"Ẫ":{"ha":977,"x_min":7,"x_max":966,"o":"m 966 0 l 728 0 l 659 216 l 313 216 l 244 0 l 7 0 l 361 972 l 621 972 l 966 0 m 608 385 l 504 711 q 488 799 492 748 l 482 799 q 465 714 479 756 l 359 385 l 608 385 m 719 1431 q 577 1276 719 1276 q 475 1299 537 1276 q 388 1324 410 1324 q 337 1272 337 1324 l 239 1272 q 384 1428 239 1428 q 487 1404 433 1428 q 570 1380 543 1380 q 621 1431 621 1380 l 719 1431 m 716 1062 l 580 1062 l 477 1155 l 381 1062 l 245 1062 l 399 1231 l 562 1231 l 716 1062 z "},"ẫ":{"ha":747,"x_min":39,"x_max":668,"o":"m 668 0 l 465 0 l 465 100 l 463 100 q 256 -17 393 -17 q 97 40 155 -17 q 39 193 39 98 q 278 427 39 395 l 467 452 q 343 566 467 566 q 107 492 219 566 l 107 653 q 230 694 152 676 q 371 711 307 711 q 668 415 668 711 l 668 0 m 467 282 l 467 329 l 340 313 q 236 218 236 299 q 261 158 236 182 q 330 135 287 135 q 429 177 391 135 q 467 282 467 218 m 625 1196 q 483 1040 625 1040 q 381 1064 443 1040 q 294 1089 316 1089 q 243 1036 243 1089 l 145 1036 q 290 1193 145 1193 q 393 1169 338 1193 q 476 1145 449 1145 q 527 1196 527 1145 l 625 1196 m 622 827 l 486 827 l 382 920 l 287 827 l 151 827 l 305 996 l 467 996 l 622 827 z "},"Ậ":{"ha":977,"x_min":7,"x_max":966,"o":"m 966 0 l 728 0 l 659 216 l 313 216 l 244 0 l 7 0 l 361 972 l 621 972 l 966 0 m 608 385 l 504 711 q 488 799 492 748 l 482 799 q 465 714 479 756 l 359 385 l 608 385 m 735 1041 l 595 1041 l 488 1168 l 388 1041 l 248 1041 l 407 1261 l 575 1261 l 735 1041 m 463 -265 q 388 -238 417 -265 q 358 -172 358 -211 q 388 -106 358 -132 q 463 -81 418 -81 q 537 -106 508 -81 q 566 -172 566 -132 q 537 -239 566 -212 q 463 -265 508 -265 z "},"ậ":{"ha":747,"x_min":39,"x_max":668,"o":"m 668 0 l 465 0 l 465 100 l 463 100 q 256 -17 393 -17 q 97 40 155 -17 q 39 193 39 98 q 278 427 39 395 l 467 452 q 343 566 467 566 q 107 492 219 566 l 107 653 q 230 694 152 676 q 371 711 307 711 q 668 415 668 711 l 668 0 m 467 282 l 467 329 l 340 313 q 236 218 236 299 q 261 158 236 182 q 330 135 287 135 q 429 177 391 135 q 467 282 467 218 m 627 804 l 487 804 l 380 932 l 280 804 l 140 804 l 299 1025 l 467 1025 l 627 804 m 362 -265 q 287 -238 317 -265 q 258 -172 258 -211 q 288 -106 258 -132 q 362 -81 317 -81 q 436 -106 408 -81 q 465 -172 465 -132 q 436 -239 465 -212 q 362 -265 408 -265 z "},"Ắ":{"ha":977,"x_min":7,"x_max":966,"o":"m 966 0 l 728 0 l 659 216 l 313 216 l 244 0 l 7 0 l 361 972 l 621 972 l 966 0 m 608 385 l 504 711 q 488 799 492 748 l 482 799 q 465 714 479 756 l 359 385 l 608 385 m 728 1385 l 549 1219 l 416 1219 l 538 1385 l 728 1385 m 707 1232 q 643 1108 700 1154 q 492 1062 585 1062 q 339 1109 398 1062 q 278 1232 281 1157 l 388 1232 q 495 1164 398 1164 q 597 1232 587 1164 l 707 1232 z "},"ắ":{"ha":747,"x_min":39,"x_max":668,"o":"m 668 0 l 465 0 l 465 100 l 463 100 q 256 -17 393 -17 q 97 40 155 -17 q 39 193 39 98 q 278 427 39 395 l 467 452 q 343 566 467 566 q 107 492 219 566 l 107 653 q 230 694 152 676 q 371 711 307 711 q 668 415 668 711 l 668 0 m 467 282 l 467 329 l 340 313 q 236 218 236 299 q 261 158 236 182 q 330 135 287 135 q 429 177 391 135 q 467 282 467 218 m 636 1150 l 456 983 l 323 983 l 446 1150 l 636 1150 m 615 997 q 550 872 608 918 q 399 827 493 827 q 247 874 306 827 q 186 997 189 922 l 296 997 q 403 929 306 929 q 505 997 494 929 l 615 997 z "},"Ằ":{"ha":977,"x_min":7,"x_max":966,"o":"m 966 0 l 728 0 l 659 216 l 313 216 l 244 0 l 7 0 l 361 972 l 621 972 l 966 0 m 608 385 l 504 711 q 488 799 492 748 l 482 799 q 465 714 479 756 l 359 385 l 608 385 m 559 1219 l 425 1219 l 246 1386 l 437 1386 l 559 1219 m 698 1233 q 633 1108 690 1154 q 482 1063 576 1063 q 330 1110 389 1063 q 269 1233 271 1158 l 378 1233 q 486 1165 389 1165 q 588 1233 577 1165 l 698 1233 z "},"ằ":{"ha":747,"x_min":39,"x_max":668,"o":"m 668 0 l 465 0 l 465 100 l 463 100 q 256 -17 393 -17 q 97 40 155 -17 q 39 193 39 98 q 278 427 39 395 l 467 452 q 343 566 467 566 q 107 492 219 566 l 107 653 q 230 694 152 676 q 371 711 307 711 q 668 415 668 711 l 668 0 m 467 282 l 467 329 l 340 313 q 236 218 236 299 q 261 158 236 182 q 330 135 287 135 q 429 177 391 135 q 467 282 467 218 m 471 983 l 337 983 l 158 1150 l 349 1150 l 471 983 m 610 997 q 545 872 602 918 q 394 827 488 827 q 242 874 300 827 q 180 997 183 922 l 290 997 q 397 929 300 929 q 500 997 489 929 l 610 997 z "},"Ẳ":{"ha":977,"x_min":7,"x_max":966,"o":"m 966 0 l 728 0 l 659 216 l 313 216 l 244 0 l 7 0 l 361 972 l 621 972 l 966 0 m 608 385 l 504 711 q 488 799 492 748 l 482 799 q 465 714 479 756 l 359 385 l 608 385 m 529 1249 l 529 1216 l 435 1216 l 435 1301 q 515 1343 515 1305 q 460 1381 515 1381 q 407 1374 437 1381 l 407 1453 q 484 1457 468 1457 q 626 1351 626 1457 q 529 1249 626 1266 m 701 1232 q 636 1108 694 1154 q 486 1062 579 1062 q 333 1109 392 1062 q 272 1232 275 1157 l 382 1232 q 489 1164 392 1164 q 591 1232 581 1164 l 701 1232 z "},"ẳ":{"ha":747,"x_min":39,"x_max":668,"o":"m 668 0 l 465 0 l 465 100 l 463 100 q 256 -17 393 -17 q 97 40 155 -17 q 39 193 39 98 q 278 427 39 395 l 467 452 q 343 566 467 566 q 107 492 219 566 l 107 653 q 230 694 152 676 q 371 711 307 711 q 668 415 668 711 l 668 0 m 467 282 l 467 329 l 340 313 q 236 218 236 299 q 261 158 236 182 q 330 135 287 135 q 429 177 391 135 q 467 282 467 218 m 443 1014 l 443 981 l 349 981 l 349 1065 q 429 1108 429 1070 q 374 1146 429 1146 q 321 1139 351 1146 l 321 1218 q 398 1222 382 1222 q 540 1116 540 1222 q 443 1014 540 1031 m 615 997 q 550 872 608 918 q 399 827 493 827 q 247 874 306 827 q 186 997 189 922 l 296 997 q 403 929 306 929 q 505 997 494 929 l 615 997 z "},"Ẵ":{"ha":977,"x_min":7,"x_max":966,"o":"m 966 0 l 728 0 l 659 216 l 313 216 l 244 0 l 7 0 l 361 972 l 621 972 l 966 0 m 608 385 l 504 711 q 488 799 492 748 l 482 799 q 465 714 479 756 l 359 385 l 608 385 m 731 1431 q 589 1276 731 1276 q 488 1299 549 1276 q 400 1324 422 1324 q 349 1272 349 1324 l 252 1272 q 396 1428 252 1428 q 499 1404 445 1428 q 583 1380 555 1380 q 633 1431 633 1380 l 731 1431 m 707 1232 q 643 1108 700 1154 q 492 1062 585 1062 q 340 1109 399 1062 q 278 1232 281 1157 l 388 1232 q 495 1164 398 1164 q 597 1232 587 1164 l 707 1232 z "},"ẵ":{"ha":747,"x_min":39,"x_max":668,"o":"m 668 0 l 465 0 l 465 100 l 463 100 q 256 -17 393 -17 q 97 40 155 -17 q 39 193 39 98 q 278 427 39 395 l 467 452 q 343 566 467 566 q 107 492 219 566 l 107 653 q 230 694 152 676 q 371 711 307 711 q 668 415 668 711 l 668 0 m 467 282 l 467 329 l 340 313 q 236 218 236 299 q 261 158 236 182 q 330 135 287 135 q 429 177 391 135 q 467 282 467 218 m 628 1196 q 486 1040 628 1040 q 385 1064 446 1040 q 297 1089 319 1089 q 246 1036 246 1089 l 149 1036 q 293 1193 149 1193 q 396 1169 342 1193 q 479 1145 452 1145 q 530 1196 530 1145 l 628 1196 m 604 997 q 539 872 597 918 q 389 827 482 827 q 237 874 296 827 q 175 997 178 922 l 285 997 q 392 929 295 929 q 494 997 484 929 l 604 997 z "},"Ặ":{"ha":977,"x_min":7,"x_max":966,"o":"m 966 0 l 728 0 l 659 216 l 313 216 l 244 0 l 7 0 l 361 972 l 621 972 l 966 0 m 608 385 l 504 711 q 488 799 492 748 l 482 799 q 465 714 479 756 l 359 385 l 608 385 m 715 1249 q 646 1097 707 1153 q 485 1040 585 1040 q 323 1098 386 1040 q 258 1249 261 1156 l 380 1249 q 488 1157 391 1157 q 593 1249 581 1157 l 715 1249 m 463 -265 q 388 -238 417 -265 q 358 -172 358 -211 q 388 -106 358 -132 q 463 -81 418 -81 q 537 -106 508 -81 q 566 -172 566 -132 q 537 -239 566 -212 q 463 -265 508 -265 z "},"ặ":{"ha":747,"x_min":39,"x_max":668,"o":"m 668 0 l 465 0 l 465 100 l 463 100 q 256 -17 393 -17 q 97 40 155 -17 q 39 193 39 98 q 278 427 39 395 l 467 452 q 343 566 467 566 q 107 492 219 566 l 107 653 q 230 694 152 676 q 371 711 307 711 q 668 415 668 711 l 668 0 m 467 282 l 467 329 l 340 313 q 236 218 236 299 q 261 158 236 182 q 330 135 287 135 q 429 177 391 135 q 467 282 467 218 m 621 1013 q 552 861 613 917 q 391 804 490 804 q 229 862 292 804 q 164 1013 167 920 l 286 1013 q 393 921 297 921 q 499 1013 486 921 l 621 1013 m 362 -265 q 287 -238 317 -265 q 258 -172 258 -211 q 288 -106 258 -132 q 362 -81 317 -81 q 436 -106 408 -81 q 465 -172 465 -132 q 436 -239 465 -212 q 362 -265 408 -265 z "},"Ẹ":{"ha":739,"x_min":111,"x_max":694,"o":"m 694 0 l 111 0 l 111 972 l 672 972 l 672 794 l 330 794 l 330 578 l 648 578 l 648 400 l 330 400 l 330 178 l 694 178 l 694 0 m 413 -265 q 338 -238 368 -265 q 309 -172 309 -211 q 338 -106 309 -132 q 413 -81 368 -81 q 487 -106 458 -81 q 516 -172 516 -132 q 487 -239 516 -212 q 413 -265 458 -265 z "},"ẹ":{"ha":751,"x_min":49,"x_max":714,"o":"m 714 286 l 261 286 q 452 135 272 135 q 653 189 566 135 l 653 35 q 403 -17 557 -17 q 142 76 235 -17 q 49 336 49 170 q 149 610 49 509 q 396 711 250 711 q 631 621 548 711 q 714 376 714 531 l 714 286 m 515 418 q 395 567 515 567 q 306 524 343 567 q 260 418 268 481 l 515 418 m 395 -265 q 320 -238 349 -265 q 290 -172 290 -211 q 320 -106 290 -132 q 395 -81 350 -81 q 469 -106 440 -81 q 498 -172 498 -132 q 469 -239 498 -212 q 395 -265 440 -265 z "},"Ẻ":{"ha":739,"x_min":111,"x_max":694,"o":"m 694 0 l 111 0 l 111 972 l 672 972 l 672 794 l 330 794 l 330 578 l 648 578 l 648 400 l 330 400 l 330 178 l 694 178 l 694 0 m 433 1096 l 433 1063 l 338 1063 l 338 1147 q 418 1190 418 1152 q 363 1227 418 1227 q 310 1221 337 1227 l 310 1300 q 388 1304 371 1304 q 530 1197 530 1304 q 433 1096 530 1113 z "},"ẻ":{"ha":751,"x_min":49,"x_max":714,"o":"m 714 286 l 261 286 q 452 135 272 135 q 653 189 566 135 l 653 35 q 403 -17 557 -17 q 142 76 235 -17 q 49 336 49 170 q 149 610 49 509 q 396 711 250 711 q 631 621 548 711 q 714 376 714 531 l 714 286 m 515 418 q 395 567 515 567 q 306 524 343 567 q 260 418 268 481 l 515 418 m 427 860 l 427 827 l 332 827 l 332 911 q 413 954 413 916 q 357 991 413 991 q 304 985 332 991 l 304 1064 q 382 1068 366 1068 q 524 961 524 1068 q 427 860 524 877 z "},"Ẽ":{"ha":739,"x_min":111,"x_max":694,"o":"m 694 0 l 111 0 l 111 972 l 672 972 l 672 794 l 330 794 l 330 578 l 648 578 l 648 400 l 330 400 l 330 178 l 694 178 l 694 0 m 640 1251 q 602 1104 640 1156 q 499 1053 564 1053 q 385 1082 441 1053 q 302 1114 325 1114 q 248 1040 248 1114 l 152 1040 q 189 1187 152 1135 q 294 1239 227 1239 q 408 1206 349 1239 q 489 1176 461 1176 q 542 1251 542 1176 l 640 1251 z "},"ẽ":{"ha":751,"x_min":49,"x_max":714,"o":"m 714 286 l 261 286 q 452 135 272 135 q 653 189 566 135 l 653 35 q 403 -17 557 -17 q 142 76 235 -17 q 49 336 49 170 q 149 610 49 509 q 396 711 250 711 q 631 621 548 711 q 714 376 714 531 l 714 286 m 515 418 q 395 567 515 567 q 306 524 343 567 q 260 418 268 481 l 515 418 m 636 1015 q 598 868 636 920 q 496 817 561 817 q 382 846 437 817 q 298 878 321 878 q 244 804 244 878 l 149 804 q 186 951 149 899 q 290 1003 223 1003 q 404 970 345 1003 q 486 940 458 940 q 538 1015 538 940 l 636 1015 z "},"Ế":{"ha":739,"x_min":111,"x_max":878,"o":"m 694 0 l 111 0 l 111 972 l 672 972 l 672 794 l 330 794 l 330 578 l 648 578 l 648 400 l 330 400 l 330 178 l 694 178 l 694 0 m 878 1331 l 698 1164 l 565 1164 l 687 1331 l 878 1331 m 627 1062 l 491 1062 l 389 1155 l 292 1062 l 157 1062 l 311 1231 l 473 1231 l 627 1062 z "},"ế":{"ha":751,"x_min":49,"x_max":873,"o":"m 714 286 l 261 286 q 452 135 272 135 q 653 189 566 135 l 653 35 q 403 -17 557 -17 q 142 76 235 -17 q 49 336 49 170 q 149 610 49 509 q 396 711 250 711 q 631 621 548 711 q 714 376 714 531 l 714 286 m 515 418 q 395 567 515 567 q 306 524 343 567 q 260 418 268 481 l 515 418 m 873 1096 l 694 929 l 561 929 l 683 1096 l 873 1096 m 623 827 l 487 827 l 385 920 l 288 827 l 153 827 l 307 996 l 469 996 l 623 827 z "},"Ề":{"ha":739,"x_min":-82,"x_max":694,"o":"m 694 0 l 111 0 l 111 972 l 672 972 l 672 794 l 330 794 l 330 578 l 648 578 l 648 400 l 330 400 l 330 178 l 694 178 l 694 0 m 231 1166 l 97 1166 l -82 1333 l 108 1333 l 231 1166 m 639 1063 l 503 1063 l 407 1156 l 304 1063 l 168 1063 l 322 1232 l 484 1232 l 639 1063 z "},"ề":{"ha":751,"x_min":-78,"x_max":714,"o":"m 714 286 l 261 286 q 452 135 272 135 q 653 189 566 135 l 653 35 q 403 -17 557 -17 q 142 76 235 -17 q 49 336 49 170 q 149 610 49 509 q 396 711 250 711 q 631 621 548 711 q 714 376 714 531 l 714 286 m 515 418 q 395 567 515 567 q 306 524 343 567 q 260 418 268 481 l 515 418 m 235 929 l 101 929 l -78 1096 l 112 1096 l 235 929 m 643 827 l 507 827 l 411 920 l 308 827 l 172 827 l 326 996 l 488 996 l 643 827 z "},"Ể":{"ha":739,"x_min":111,"x_max":787,"o":"m 694 0 l 111 0 l 111 972 l 672 972 l 672 794 l 330 794 l 330 578 l 648 578 l 648 400 l 330 400 l 330 178 l 694 178 l 694 0 m 690 1198 l 690 1165 l 596 1165 l 596 1250 q 676 1293 676 1255 q 621 1331 676 1331 q 568 1324 595 1331 l 568 1402 q 646 1407 629 1407 q 787 1300 787 1407 q 690 1198 787 1215 m 636 1063 l 500 1063 l 397 1156 l 301 1063 l 165 1063 l 319 1232 l 482 1232 l 636 1063 z "},"ể":{"ha":751,"x_min":49,"x_max":789,"o":"m 714 286 l 261 286 q 452 135 272 135 q 653 189 566 135 l 653 35 q 403 -17 557 -17 q 142 76 235 -17 q 49 336 49 170 q 149 610 49 509 q 396 711 250 711 q 631 621 548 711 q 714 376 714 531 l 714 286 m 515 418 q 395 567 515 567 q 306 524 343 567 q 260 418 268 481 l 515 418 m 692 962 l 692 929 l 597 929 l 597 1014 q 677 1057 677 1019 q 622 1095 677 1095 q 570 1088 597 1095 l 570 1166 q 647 1171 631 1171 q 789 1064 789 1171 q 692 962 789 979 m 637 827 l 501 827 l 399 920 l 302 827 l 167 827 l 321 996 l 484 996 l 637 827 z "},"Ễ":{"ha":739,"x_min":111,"x_max":694,"o":"m 694 0 l 111 0 l 111 972 l 672 972 l 672 794 l 330 794 l 330 578 l 648 578 l 648 400 l 330 400 l 330 178 l 694 178 l 694 0 m 634 1432 q 492 1276 634 1276 q 391 1300 452 1276 q 303 1325 326 1325 q 252 1272 252 1325 l 155 1272 q 299 1429 155 1429 q 402 1405 348 1429 q 486 1381 458 1381 q 536 1432 536 1381 l 634 1432 m 631 1063 l 495 1063 l 392 1156 l 296 1063 l 160 1063 l 315 1232 l 477 1232 l 631 1063 z "},"ễ":{"ha":751,"x_min":49,"x_max":714,"o":"m 714 286 l 261 286 q 452 135 272 135 q 653 189 566 135 l 653 35 q 403 -17 557 -17 q 142 76 235 -17 q 49 336 49 170 q 149 610 49 509 q 396 711 250 711 q 631 621 548 711 q 714 376 714 531 l 714 286 m 515 418 q 395 567 515 567 q 306 524 343 567 q 260 418 268 481 l 515 418 m 633 1196 q 492 1040 633 1040 q 390 1064 452 1040 q 302 1089 325 1089 q 252 1036 252 1089 l 154 1036 q 298 1193 154 1193 q 401 1169 347 1193 q 485 1145 458 1145 q 536 1196 536 1145 l 633 1196 m 631 827 l 494 827 l 391 920 l 296 827 l 159 827 l 314 996 l 476 996 l 631 827 z "},"Ệ":{"ha":739,"x_min":111,"x_max":694,"o":"m 694 0 l 111 0 l 111 972 l 672 972 l 672 794 l 330 794 l 330 578 l 648 578 l 648 400 l 330 400 l 330 178 l 694 178 l 694 0 m 640 1041 l 499 1041 l 392 1168 l 292 1041 l 152 1041 l 311 1261 l 479 1261 l 640 1041 m 413 -265 q 338 -238 368 -265 q 309 -172 309 -211 q 338 -106 309 -132 q 413 -81 368 -81 q 487 -106 458 -81 q 516 -172 516 -132 q 487 -239 516 -212 q 413 -265 458 -265 z "},"ệ":{"ha":751,"x_min":49,"x_max":714,"o":"m 714 286 l 261 286 q 452 135 272 135 q 653 189 566 135 l 653 35 q 403 -17 557 -17 q 142 76 235 -17 q 49 336 49 170 q 149 610 49 509 q 396 711 250 711 q 631 621 548 711 q 714 376 714 531 l 714 286 m 515 418 q 395 567 515 567 q 306 524 343 567 q 260 418 268 481 l 515 418 m 642 804 l 501 804 l 394 932 l 294 804 l 154 804 l 313 1025 l 481 1025 l 642 804 m 410 -265 q 335 -238 364 -265 q 305 -172 305 -211 q 335 -106 305 -132 q 410 -81 365 -81 q 484 -106 455 -81 q 513 -172 513 -132 q 484 -239 513 -212 q 410 -265 455 -265 z "},"Ỉ":{"ha":440,"x_min":111,"x_max":336,"o":"m 330 0 l 111 0 l 111 972 l 330 972 l 330 0 m 239 1096 l 239 1063 l 144 1063 l 144 1147 q 224 1190 224 1152 q 169 1227 224 1227 q 116 1221 143 1227 l 116 1300 q 194 1304 177 1304 q 336 1197 336 1304 q 239 1096 336 1113 z "},"ỉ":{"ha":395,"x_min":90,"x_max":321,"o":"m 304 0 l 90 0 l 90 694 l 304 694 l 304 0 m 224 860 l 224 827 l 130 827 l 130 911 q 210 954 210 916 q 155 991 210 991 q 102 985 129 991 l 102 1064 q 180 1068 163 1068 q 321 961 321 1068 q 224 860 321 877 z "},"Ị":{"ha":440,"x_min":111,"x_max":330,"o":"m 330 0 l 111 0 l 111 972 l 330 972 l 330 0 m 222 -265 q 147 -238 176 -265 q 117 -172 117 -211 q 147 -106 117 -132 q 222 -81 177 -81 q 296 -106 267 -81 q 325 -172 325 -132 q 296 -239 325 -212 q 222 -265 267 -265 z "},"ị":{"ha":395,"x_min":75,"x_max":322,"o":"m 199 804 q 110 837 144 804 q 75 916 75 869 q 110 994 75 964 q 199 1025 144 1025 q 288 994 254 1025 q 322 916 322 964 q 288 836 322 867 q 199 804 254 804 m 304 0 l 90 0 l 90 694 l 304 694 l 304 0 m 199 -265 q 124 -238 153 -265 q 94 -172 94 -211 q 124 -106 94 -132 q 199 -81 154 -81 q 273 -106 244 -81 q 302 -172 302 -132 q 273 -239 302 -212 q 199 -265 244 -265 z "},"Ọ":{"ha":1053,"x_min":50,"x_max":1003,"o":"m 522 -17 q 182 119 313 -17 q 50 473 50 255 q 184 846 50 704 q 538 989 317 989 q 874 852 746 989 q 1003 493 1003 716 q 870 123 1003 264 q 522 -17 736 -17 m 532 800 q 349 714 416 800 q 281 485 281 627 q 349 256 281 340 q 526 172 416 172 q 706 254 640 172 q 772 481 772 336 q 708 716 772 632 q 532 800 644 800 m 527 -265 q 452 -238 481 -265 q 422 -172 422 -211 q 452 -106 422 -132 q 527 -81 482 -81 q 601 -106 572 -81 q 630 -172 630 -132 q 601 -239 630 -212 q 527 -265 572 -265 z "},"ọ":{"ha":849,"x_min":49,"x_max":800,"o":"m 421 -17 q 148 80 248 -17 q 49 345 49 178 q 152 614 49 517 q 431 711 255 711 q 702 614 604 711 q 800 357 800 517 q 699 83 800 184 q 421 -17 597 -17 m 427 547 q 309 495 351 547 q 267 347 267 443 q 428 147 267 147 q 582 353 582 147 q 427 547 582 547 m 423 -265 q 348 -238 378 -265 q 319 -172 319 -211 q 349 -106 319 -132 q 423 -81 378 -81 q 497 -106 469 -81 q 526 -172 526 -132 q 497 -239 526 -212 q 423 -265 469 -265 z "},"Ỏ":{"ha":1053,"x_min":50,"x_max":1003,"o":"m 522 -17 q 182 119 313 -17 q 50 473 50 255 q 184 846 50 704 q 538 989 317 989 q 874 852 746 989 q 1003 493 1003 716 q 870 123 1003 264 q 522 -17 736 -17 m 532 800 q 349 714 416 800 q 281 485 281 627 q 349 256 281 340 q 526 172 416 172 q 706 254 640 172 q 772 481 772 336 q 708 716 772 632 q 532 800 644 800 m 566 1096 l 566 1063 l 471 1063 l 471 1147 q 551 1190 551 1152 q 496 1227 551 1227 q 443 1221 470 1227 l 443 1300 q 521 1304 504 1304 q 663 1197 663 1304 q 566 1096 663 1113 z "},"ỏ":{"ha":849,"x_min":49,"x_max":800,"o":"m 421 -17 q 148 80 248 -17 q 49 345 49 178 q 152 614 49 517 q 431 711 255 711 q 702 614 604 711 q 800 357 800 517 q 699 83 800 184 q 421 -17 597 -17 m 427 547 q 309 495 351 547 q 267 347 267 443 q 428 147 267 147 q 582 353 582 147 q 427 547 582 547 m 456 860 l 456 827 l 361 827 l 361 911 q 441 954 441 916 q 386 991 441 991 q 333 985 360 991 l 333 1064 q 411 1068 394 1068 q 553 961 553 1068 q 456 860 553 877 z "},"Ố":{"ha":1053,"x_min":50,"x_max":1021,"o":"m 522 -17 q 182 119 313 -17 q 50 473 50 255 q 184 846 50 704 q 538 989 317 989 q 874 852 746 989 q 1003 493 1003 716 q 870 123 1003 264 q 522 -17 736 -17 m 532 800 q 349 714 416 800 q 281 485 281 627 q 349 256 281 340 q 526 172 416 172 q 706 254 640 172 q 772 481 772 336 q 708 716 772 632 q 532 800 644 800 m 1021 1333 l 842 1166 l 709 1166 l 831 1333 l 1021 1333 m 771 1063 l 635 1063 l 532 1156 l 436 1063 l 300 1063 l 454 1232 l 617 1232 l 771 1063 z "},"ố":{"ha":849,"x_min":49,"x_max":924,"o":"m 421 -17 q 148 80 248 -17 q 49 345 49 178 q 152 614 49 517 q 431 711 255 711 q 702 614 604 711 q 800 357 800 517 q 699 83 800 184 q 421 -17 597 -17 m 427 547 q 309 495 351 547 q 267 347 267 443 q 428 147 267 147 q 582 353 582 147 q 427 547 582 547 m 924 1096 l 744 929 l 611 929 l 733 1096 l 924 1096 m 673 827 l 537 827 l 435 920 l 338 827 l 203 827 l 357 996 l 519 996 l 673 827 z "},"Ồ":{"ha":1053,"x_min":49,"x_max":1003,"o":"m 522 -17 q 182 119 313 -17 q 50 473 50 255 q 184 846 50 704 q 538 989 317 989 q 874 852 746 989 q 1003 493 1003 716 q 870 123 1003 264 q 522 -17 736 -17 m 532 800 q 349 714 416 800 q 281 485 281 627 q 349 256 281 340 q 526 172 416 172 q 706 254 640 172 q 772 481 772 336 q 708 716 772 632 q 532 800 644 800 m 361 1166 l 228 1166 l 49 1333 l 239 1333 l 361 1166 m 770 1063 l 633 1063 l 538 1156 l 435 1063 l 298 1063 l 453 1232 l 615 1232 l 770 1063 z "},"ồ":{"ha":849,"x_min":-59,"x_max":800,"o":"m 421 -17 q 148 80 248 -17 q 49 345 49 178 q 152 614 49 517 q 431 711 255 711 q 702 614 604 711 q 800 357 800 517 q 699 83 800 184 q 421 -17 597 -17 m 427 547 q 309 495 351 547 q 267 347 267 443 q 428 147 267 147 q 582 353 582 147 q 427 547 582 547 m 254 929 l 120 929 l -59 1096 l 131 1096 l 254 929 m 662 827 l 526 827 l 430 920 l 327 827 l 191 827 l 345 996 l 507 996 l 662 827 z "},"Ổ":{"ha":1053,"x_min":50,"x_max":1003,"o":"m 522 -17 q 182 119 313 -17 q 50 473 50 255 q 184 846 50 704 q 538 989 317 989 q 874 852 746 989 q 1003 493 1003 716 q 870 123 1003 264 q 522 -17 736 -17 m 532 800 q 349 714 416 800 q 281 485 281 627 q 349 256 281 340 q 526 172 416 172 q 706 254 640 172 q 772 481 772 336 q 708 716 772 632 q 532 800 644 800 m 827 1198 l 827 1165 l 733 1165 l 733 1250 q 813 1293 813 1255 q 758 1331 813 1331 q 705 1324 732 1331 l 705 1402 q 783 1407 766 1407 q 924 1300 924 1407 q 827 1198 924 1215 m 773 1063 l 637 1063 l 534 1156 l 438 1063 l 302 1063 l 456 1232 l 619 1232 l 773 1063 z "},"ổ":{"ha":849,"x_min":49,"x_max":814,"o":"m 421 -17 q 148 80 248 -17 q 49 345 49 178 q 152 614 49 517 q 431 711 255 711 q 702 614 604 711 q 800 357 800 517 q 699 83 800 184 q 421 -17 597 -17 m 427 547 q 309 495 351 547 q 267 347 267 443 q 428 147 267 147 q 582 353 582 147 q 427 547 582 547 m 717 962 l 717 929 l 623 929 l 623 1014 q 703 1057 703 1019 q 647 1095 703 1095 q 595 1088 622 1095 l 595 1166 q 672 1171 656 1171 q 814 1064 814 1171 q 717 962 814 979 m 663 827 l 526 827 l 424 920 l 328 827 l 192 827 l 346 996 l 509 996 l 663 827 z "},"Ỗ":{"ha":1053,"x_min":50,"x_max":1003,"o":"m 522 -17 q 182 119 313 -17 q 50 473 50 255 q 184 846 50 704 q 538 989 317 989 q 874 852 746 989 q 1003 493 1003 716 q 870 123 1003 264 q 522 -17 736 -17 m 532 800 q 349 714 416 800 q 281 485 281 627 q 349 256 281 340 q 526 172 416 172 q 706 254 640 172 q 772 481 772 336 q 708 716 772 632 q 532 800 644 800 m 775 1432 q 633 1276 775 1276 q 532 1300 593 1276 q 444 1325 467 1325 q 393 1272 393 1325 l 296 1272 q 440 1429 296 1429 q 543 1405 489 1429 q 627 1381 600 1381 q 677 1432 677 1381 l 775 1432 m 772 1063 l 636 1063 l 533 1156 l 437 1063 l 301 1063 l 456 1232 l 618 1232 l 772 1063 z "},"ỗ":{"ha":849,"x_min":49,"x_max":800,"o":"m 421 -17 q 148 80 248 -17 q 49 345 49 178 q 152 614 49 517 q 431 711 255 711 q 702 614 604 711 q 800 357 800 517 q 699 83 800 184 q 421 -17 597 -17 m 427 547 q 309 495 351 547 q 267 347 267 443 q 428 147 267 147 q 582 353 582 147 q 427 547 582 547 m 673 1196 q 532 1040 673 1040 q 430 1064 492 1040 q 342 1089 365 1089 q 292 1036 292 1089 l 194 1036 q 338 1193 194 1193 q 441 1169 387 1193 q 525 1145 498 1145 q 576 1196 576 1145 l 673 1196 m 671 827 l 534 827 l 431 920 l 336 827 l 199 827 l 354 996 l 516 996 l 671 827 z "},"Ộ":{"ha":1053,"x_min":50,"x_max":1003,"o":"m 522 -17 q 182 119 313 -17 q 50 473 50 255 q 184 846 50 704 q 538 989 317 989 q 874 852 746 989 q 1003 493 1003 716 q 870 123 1003 264 q 522 -17 736 -17 m 532 800 q 349 714 416 800 q 281 485 281 627 q 349 256 281 340 q 526 172 416 172 q 706 254 640 172 q 772 481 772 336 q 708 716 772 632 q 532 800 644 800 m 781 1041 l 641 1041 l 534 1168 l 434 1041 l 294 1041 l 453 1261 l 621 1261 l 781 1041 m 521 -265 q 446 -238 475 -265 q 416 -172 416 -211 q 446 -106 416 -132 q 521 -81 476 -81 q 595 -106 566 -81 q 624 -172 624 -132 q 595 -239 624 -212 q 521 -265 566 -265 z "},"ộ":{"ha":849,"x_min":49,"x_max":800,"o":"m 421 -17 q 148 80 248 -17 q 49 345 49 178 q 152 614 49 517 q 431 711 255 711 q 702 614 604 711 q 800 357 800 517 q 699 83 800 184 q 421 -17 597 -17 m 427 547 q 309 495 351 547 q 267 347 267 443 q 428 147 267 147 q 582 353 582 147 q 427 547 582 547 m 676 804 l 536 804 l 429 932 l 329 804 l 189 804 l 348 1025 l 516 1025 l 676 804 m 422 -265 q 347 -238 376 -265 q 317 -172 317 -211 q 347 -106 317 -132 q 422 -81 377 -81 q 496 -106 467 -81 q 525 -172 525 -132 q 496 -239 525 -212 q 422 -265 467 -265 z "},"Ớ":{"ha":1080,"x_min":50,"x_max":1101,"o":"m 900 822 q 1003 493 1003 690 q 870 123 1003 264 q 522 -17 736 -17 q 182 119 313 -17 q 50 473 50 255 q 184 846 50 704 q 538 989 317 989 q 776 930 672 989 q 838 920 815 920 q 967 1009 967 920 q 955 1084 967 1043 l 1085 1084 q 1101 993 1101 1038 q 1055 866 1101 911 q 924 821 1009 821 q 912 821 920 821 l 900 822 m 532 800 q 349 714 416 800 q 281 485 281 627 q 349 256 281 340 q 526 172 416 172 q 706 254 640 172 q 772 481 772 336 q 708 716 772 632 q 532 800 644 800 m 774 1260 l 562 1041 l 408 1041 l 584 1260 l 774 1260 z "},"ớ":{"ha":875,"x_min":49,"x_max":863,"o":"m 707 608 q 800 357 800 512 q 699 83 800 184 q 421 -17 597 -17 q 148 80 248 -17 q 49 345 49 178 q 152 614 49 517 q 431 711 255 711 q 534 701 477 711 q 609 694 573 694 q 729 790 729 694 q 717 865 729 824 l 847 865 q 863 777 863 819 q 707 608 863 623 m 427 547 q 309 495 351 547 q 267 347 267 443 q 428 147 267 147 q 582 353 582 147 q 427 547 582 547 m 653 1023 l 441 804 l 286 804 l 463 1023 l 653 1023 z "},"Ờ":{"ha":1080,"x_min":50,"x_max":1101,"o":"m 900 822 q 1003 493 1003 690 q 870 123 1003 264 q 522 -17 736 -17 q 182 119 313 -17 q 50 473 50 255 q 184 846 50 704 q 538 989 317 989 q 776 930 672 989 q 838 920 815 920 q 967 1009 967 920 q 955 1084 967 1043 l 1085 1084 q 1101 993 1101 1038 q 1055 866 1101 911 q 924 821 1009 821 q 912 821 920 821 l 900 822 m 532 800 q 349 714 416 800 q 281 485 281 627 q 349 256 281 340 q 526 172 416 172 q 706 254 640 172 q 772 481 772 336 q 708 716 772 632 q 532 800 644 800 m 713 1041 l 559 1041 l 347 1260 l 537 1260 l 713 1041 z "},"ờ":{"ha":875,"x_min":49,"x_max":863,"o":"m 707 608 q 800 357 800 512 q 699 83 800 184 q 421 -17 597 -17 q 148 80 248 -17 q 49 345 49 178 q 152 614 49 517 q 431 711 255 711 q 534 701 477 711 q 609 694 573 694 q 729 790 729 694 q 717 865 729 824 l 847 865 q 863 777 863 819 q 707 608 863 623 m 427 547 q 309 495 351 547 q 267 347 267 443 q 428 147 267 147 q 582 353 582 147 q 427 547 582 547 m 593 804 l 439 804 l 226 1023 l 416 1023 l 593 804 z "},"Ở":{"ha":1080,"x_min":50,"x_max":1101,"o":"m 900 822 q 1003 493 1003 690 q 870 123 1003 264 q 522 -17 736 -17 q 182 119 313 -17 q 50 473 50 255 q 184 846 50 704 q 538 989 317 989 q 776 930 672 989 q 838 920 815 920 q 967 1009 967 920 q 955 1084 967 1043 l 1085 1084 q 1101 993 1101 1038 q 1055 866 1101 911 q 924 821 1009 821 q 912 821 920 821 l 900 822 m 532 800 q 349 714 416 800 q 281 485 281 627 q 349 256 281 340 q 526 172 416 172 q 706 254 640 172 q 772 481 772 336 q 708 716 772 632 q 532 800 644 800 m 586 1096 l 586 1063 l 491 1063 l 491 1147 q 572 1190 572 1152 q 516 1227 572 1227 q 463 1221 490 1227 l 463 1300 q 541 1304 524 1304 q 683 1197 683 1304 q 586 1096 683 1113 z "},"ở":{"ha":875,"x_min":49,"x_max":863,"o":"m 707 608 q 800 357 800 512 q 699 83 800 184 q 421 -17 597 -17 q 148 80 248 -17 q 49 345 49 178 q 152 614 49 517 q 431 711 255 711 q 534 701 477 711 q 609 694 573 694 q 729 790 729 694 q 717 865 729 824 l 847 865 q 863 777 863 819 q 707 608 863 623 m 427 547 q 309 495 351 547 q 267 347 267 443 q 428 147 267 147 q 582 353 582 147 q 427 547 582 547 m 457 860 l 457 827 l 362 827 l 362 911 q 443 954 443 916 q 387 991 443 991 q 334 985 361 991 l 334 1064 q 412 1068 395 1068 q 554 961 554 1068 q 457 860 554 877 z "},"Ỡ":{"ha":1080,"x_min":50,"x_max":1101,"o":"m 900 822 q 1003 493 1003 690 q 870 123 1003 264 q 522 -17 736 -17 q 182 119 313 -17 q 50 473 50 255 q 184 846 50 704 q 538 989 317 989 q 776 930 672 989 q 838 920 815 920 q 967 1009 967 920 q 955 1084 967 1043 l 1085 1084 q 1101 993 1101 1038 q 1055 866 1101 911 q 924 821 1009 821 q 912 821 920 821 l 900 822 m 532 800 q 349 714 416 800 q 281 485 281 627 q 349 256 281 340 q 526 172 416 172 q 706 254 640 172 q 772 481 772 336 q 708 716 772 632 q 532 800 644 800 m 785 1251 q 747 1104 785 1156 q 644 1053 709 1053 q 530 1082 586 1053 q 447 1114 470 1114 q 393 1040 393 1114 l 297 1040 q 334 1187 297 1135 q 439 1239 372 1239 q 553 1206 494 1239 q 634 1176 606 1176 q 687 1251 687 1176 l 785 1251 z "},"ỡ":{"ha":875,"x_min":49,"x_max":863,"o":"m 707 608 q 800 357 800 512 q 699 83 800 184 q 421 -17 597 -17 q 148 80 248 -17 q 49 345 49 178 q 152 614 49 517 q 431 711 255 711 q 534 701 477 711 q 609 694 573 694 q 729 790 729 694 q 717 865 729 824 l 847 865 q 863 777 863 819 q 707 608 863 623 m 427 547 q 309 495 351 547 q 267 347 267 443 q 428 147 267 147 q 582 353 582 147 q 427 547 582 547 m 673 1015 q 635 868 673 920 q 532 817 597 817 q 418 846 474 817 q 335 878 358 878 q 281 804 281 878 l 185 804 q 222 951 185 899 q 327 1003 260 1003 q 441 970 382 1003 q 522 940 494 940 q 575 1015 575 940 l 673 1015 z "},"Ợ":{"ha":1080,"x_min":50,"x_max":1101,"o":"m 900 822 q 1003 493 1003 690 q 870 123 1003 264 q 522 -17 736 -17 q 182 119 313 -17 q 50 473 50 255 q 184 846 50 704 q 538 989 317 989 q 776 930 672 989 q 838 920 815 920 q 967 1009 967 920 q 955 1084 967 1043 l 1085 1084 q 1101 993 1101 1038 q 1055 866 1101 911 q 924 821 1009 821 q 912 821 920 821 l 900 822 m 532 800 q 349 714 416 800 q 281 485 281 627 q 349 256 281 340 q 526 172 416 172 q 706 254 640 172 q 772 481 772 336 q 708 716 772 632 q 532 800 644 800 m 521 -265 q 446 -238 475 -265 q 416 -172 416 -211 q 446 -106 416 -132 q 521 -81 476 -81 q 595 -106 566 -81 q 624 -172 624 -132 q 595 -239 624 -212 q 521 -265 566 -265 z "},"ợ":{"ha":875,"x_min":49,"x_max":863,"o":"m 707 608 q 800 357 800 512 q 699 83 800 184 q 421 -17 597 -17 q 148 80 248 -17 q 49 345 49 178 q 152 614 49 517 q 431 711 255 711 q 534 701 477 711 q 609 694 573 694 q 729 790 729 694 q 717 865 729 824 l 847 865 q 863 777 863 819 q 707 608 863 623 m 427 547 q 309 495 351 547 q 267 347 267 443 q 428 147 267 147 q 582 353 582 147 q 427 547 582 547 m 420 -265 q 346 -238 375 -265 q 316 -172 316 -211 q 346 -106 316 -132 q 420 -81 376 -81 q 495 -106 466 -81 q 524 -172 524 -132 q 495 -239 524 -212 q 420 -265 466 -265 z "},"Ụ":{"ha":1004,"x_min":100,"x_max":904,"o":"m 904 421 q 496 -17 904 -17 q 100 411 100 -17 l 100 972 l 319 972 l 319 408 q 504 172 319 172 q 685 400 685 172 l 685 972 l 904 972 l 904 421 m 496 -265 q 421 -238 450 -265 q 391 -172 391 -211 q 421 -106 391 -132 q 496 -81 451 -81 q 570 -106 541 -81 q 599 -172 599 -132 q 570 -239 599 -212 q 496 -265 541 -265 z "},"ụ":{"ha":840,"x_min":79,"x_max":750,"o":"m 750 0 l 536 0 l 536 106 l 533 106 q 321 -17 454 -17 q 79 275 79 -17 l 79 694 l 293 694 l 293 294 q 410 147 293 147 q 502 188 467 147 q 536 297 536 228 l 536 694 l 750 694 l 750 0 m 406 -265 q 331 -238 360 -265 q 301 -172 301 -211 q 331 -106 301 -132 q 406 -81 361 -81 q 480 -106 451 -81 q 509 -172 509 -132 q 480 -239 509 -212 q 406 -265 451 -265 z "},"Ủ":{"ha":1004,"x_min":100,"x_max":904,"o":"m 904 421 q 496 -17 904 -17 q 100 411 100 -17 l 100 972 l 319 972 l 319 408 q 504 172 319 172 q 685 400 685 172 l 685 972 l 904 972 l 904 421 m 526 1096 l 526 1063 l 431 1063 l 431 1147 q 512 1190 512 1152 q 456 1227 512 1227 q 404 1221 431 1227 l 404 1300 q 481 1304 465 1304 q 623 1197 623 1304 q 526 1096 623 1113 z "}}}
